%TF.GenerationSoftware,Altium Limited,Altium Designer,23.5.1 (21)*%
G04 Layer_Color=0*
%FSLAX45Y45*%
%MOMM*%
%TF.SameCoordinates,D1A1A69A-B0F0-4312-96CC-35C0D177272F*%
%TF.FilePolarity,Positive*%
%TF.FileFunction,Plated,1,4,PTH,Drill*%
%TF.Part,Single*%
G01*
G75*
%TA.AperFunction,OtherDrill,Pad Free-TH (128mm,55.5mm)*%
%ADD90C,1.15200*%
%TA.AperFunction,OtherDrill,Pad Free-TH (84mm,94.25mm)*%
%ADD91C,1.15200*%
%TA.AperFunction,OtherDrill,Pad Free-17 (84mm,52mm)*%
%ADD92C,2.50000*%
%TA.AperFunction,OtherDrill,Pad Free-17 (84mm,98mm)*%
%ADD93C,2.50000*%
%TA.AperFunction,OtherDrill,Pad Free-17 (128mm,98mm)*%
%ADD94C,2.50000*%
%TA.AperFunction,OtherDrill,Pad Free-17 (128mm,52mm)*%
%ADD95C,2.50000*%
%TA.AperFunction,ViaDrill,NotFilled*%
%ADD96C,0.40000*%
%ADD97C,0.30000*%
%ADD98C,0.20000*%
D90*
X12800000Y5550000D02*
D03*
D91*
X8400000Y9425000D02*
D03*
D92*
Y5200000D02*
D03*
D93*
Y9800000D02*
D03*
D94*
X12800000D02*
D03*
D95*
Y5200000D02*
D03*
D96*
X11971730Y9281201D02*
D03*
X10770295Y8785651D02*
D03*
X10574552Y8602296D02*
D03*
X10849584Y8545307D02*
D03*
X10691006Y8404076D02*
D03*
X10965606Y9876418D02*
D03*
X11934005Y9906859D02*
D03*
X12134005D02*
D03*
X12334005D02*
D03*
X10850548Y9354921D02*
D03*
X10789084Y9874126D02*
D03*
X9791758Y9874650D02*
D03*
X9991758D02*
D03*
X10191758D02*
D03*
X10391758D02*
D03*
X10591758D02*
D03*
X11268446Y9307912D02*
D03*
X12797361Y9503186D02*
D03*
X12897362Y9303186D02*
D03*
X12797361Y9103186D02*
D03*
X12897362Y8903186D02*
D03*
X12797361Y8703186D02*
D03*
X12897362Y8503186D02*
D03*
X12797361Y7103185D02*
D03*
X12897362Y6903185D02*
D03*
X12797361Y6703185D02*
D03*
X12897362Y6503185D02*
D03*
X12797361Y6303185D02*
D03*
X12897362Y6103185D02*
D03*
X12797361Y5903185D02*
D03*
X12897362Y5703184D02*
D03*
X12597361Y9503186D02*
D03*
X12697361Y9303186D02*
D03*
X12597361Y9103186D02*
D03*
X12697361Y8903186D02*
D03*
X12597361Y8703186D02*
D03*
X12697361Y8503186D02*
D03*
Y6903185D02*
D03*
X12597361Y6703185D02*
D03*
X12697361Y6503185D02*
D03*
X12597361Y6303185D02*
D03*
X12697361Y6103185D02*
D03*
X12597361Y5903185D02*
D03*
X12697361Y5703184D02*
D03*
X12597361Y5503184D02*
D03*
Y5103184D02*
D03*
X12497361Y9703187D02*
D03*
X12397361Y9503186D02*
D03*
X12497361Y9303186D02*
D03*
X12397361Y9103186D02*
D03*
X12497361Y8903186D02*
D03*
X12397361Y8703186D02*
D03*
X12497361Y8503186D02*
D03*
X12397361Y8303186D02*
D03*
Y5903185D02*
D03*
X12497361Y5703184D02*
D03*
X12397361Y5503184D02*
D03*
X12497361Y5303184D02*
D03*
X12397361Y5103184D02*
D03*
X12297361Y9703187D02*
D03*
Y9303186D02*
D03*
Y8503186D02*
D03*
X12197361Y8303186D02*
D03*
X12297361Y8103186D02*
D03*
Y7703186D02*
D03*
Y5703184D02*
D03*
X12197361Y5503184D02*
D03*
X12297361Y5303184D02*
D03*
X12197361Y5103184D02*
D03*
X11997361Y9503186D02*
D03*
Y9103186D02*
D03*
X12097361Y8503186D02*
D03*
X11997361Y8303186D02*
D03*
X12097361Y8103186D02*
D03*
Y7703186D02*
D03*
X11997361Y7503185D02*
D03*
X12097361Y5703184D02*
D03*
X11997361Y5503184D02*
D03*
X12097361Y5303184D02*
D03*
X11997361Y5103184D02*
D03*
X11897361Y8903186D02*
D03*
Y8503186D02*
D03*
X11797360Y8303186D02*
D03*
X11897361Y8103186D02*
D03*
Y7703186D02*
D03*
X11797360Y7503185D02*
D03*
X11897361Y7303185D02*
D03*
Y6103185D02*
D03*
Y5703184D02*
D03*
X11797360Y5503184D02*
D03*
X11897361Y5303184D02*
D03*
X11797360Y5103184D02*
D03*
X11597360Y8303186D02*
D03*
X11697360Y8103186D02*
D03*
Y7703186D02*
D03*
Y7303185D02*
D03*
Y6103185D02*
D03*
X11597360Y5503184D02*
D03*
X11697360Y5303184D02*
D03*
X11597360Y5103184D02*
D03*
X11497360Y8503186D02*
D03*
X11397360Y7503185D02*
D03*
X11497360Y6503185D02*
D03*
Y5303184D02*
D03*
X11397360Y5103184D02*
D03*
X11197360Y9503186D02*
D03*
Y9103186D02*
D03*
X11297360Y8503186D02*
D03*
Y7703186D02*
D03*
Y7303185D02*
D03*
X11197360Y7103185D02*
D03*
X11297360Y5303184D02*
D03*
X11197360Y5103184D02*
D03*
X11097360Y9703187D02*
D03*
X10997360Y9503186D02*
D03*
X11097360Y9303186D02*
D03*
Y8503186D02*
D03*
Y8103186D02*
D03*
Y7703186D02*
D03*
X10797360Y9103186D02*
D03*
X10897360Y7703186D02*
D03*
X10797360Y6703185D02*
D03*
X10897360Y5303184D02*
D03*
X10697360Y9703187D02*
D03*
X10597360Y9503186D02*
D03*
Y6703185D02*
D03*
X10697360Y6503185D02*
D03*
X10597360Y6303185D02*
D03*
X10697360Y6103185D02*
D03*
X10597360Y5903185D02*
D03*
Y5503184D02*
D03*
X10697360Y5303184D02*
D03*
X10497360Y9703187D02*
D03*
X10397360Y9503186D02*
D03*
Y6703185D02*
D03*
X10497360Y6503185D02*
D03*
X10397360Y6303185D02*
D03*
X10497360Y6103185D02*
D03*
X10397360Y5903185D02*
D03*
X10497360Y5703184D02*
D03*
X10397360Y5503184D02*
D03*
X10497360Y5303184D02*
D03*
X10297360Y9703187D02*
D03*
X10197360Y9503186D02*
D03*
X10297360Y9303186D02*
D03*
X10197360Y6703185D02*
D03*
X10297360Y6503185D02*
D03*
X10197360Y6303185D02*
D03*
X10297360Y6103185D02*
D03*
X10197360Y5903185D02*
D03*
X10297360Y5703184D02*
D03*
X10197360Y5503184D02*
D03*
X10297360Y5303184D02*
D03*
X10097360Y9703187D02*
D03*
Y5303184D02*
D03*
X9897359Y9703187D02*
D03*
Y9303186D02*
D03*
Y8503186D02*
D03*
Y7303185D02*
D03*
Y6503185D02*
D03*
X9797359Y6303185D02*
D03*
X9897359Y6103185D02*
D03*
X9797359Y5903185D02*
D03*
X9597359Y9503186D02*
D03*
Y8303186D02*
D03*
Y7503185D02*
D03*
X9697359Y7303185D02*
D03*
X9597359Y7103185D02*
D03*
X9397359Y9503186D02*
D03*
Y8703186D02*
D03*
X9497359Y8503186D02*
D03*
X9397359Y8303186D02*
D03*
X9497359Y7303185D02*
D03*
Y6903185D02*
D03*
X9397359Y6703185D02*
D03*
Y6303185D02*
D03*
X9197359Y8703186D02*
D03*
Y8303186D02*
D03*
X9297359Y8103186D02*
D03*
X9197359Y7903186D02*
D03*
X9297359Y6503185D02*
D03*
X9197359Y6303185D02*
D03*
X9297359Y6103185D02*
D03*
X9197359Y5103184D02*
D03*
X8997359Y8303186D02*
D03*
X9097359Y8103186D02*
D03*
X8997359Y7903186D02*
D03*
X9097359Y6503185D02*
D03*
X8997359Y6303185D02*
D03*
X9097359Y6103185D02*
D03*
X8997359Y5903185D02*
D03*
Y5503184D02*
D03*
Y5103184D02*
D03*
X8797359Y9503186D02*
D03*
Y9103186D02*
D03*
Y8703186D02*
D03*
Y8303186D02*
D03*
X8897359Y8103186D02*
D03*
X8797359Y7903186D02*
D03*
X8897359Y7703186D02*
D03*
X8797359Y7503185D02*
D03*
Y7103185D02*
D03*
Y6703185D02*
D03*
X8897359Y6503185D02*
D03*
X8797359Y6303185D02*
D03*
X8897359Y6103185D02*
D03*
X8797359Y5903185D02*
D03*
X8897359Y5703184D02*
D03*
X8797359Y5503184D02*
D03*
X8897359Y5303184D02*
D03*
X8797359Y5103184D02*
D03*
X8697359Y9703187D02*
D03*
X8597359Y9503186D02*
D03*
X8697359Y9303186D02*
D03*
X8597359Y9103186D02*
D03*
Y8703186D02*
D03*
X8697359Y8503186D02*
D03*
X8597359Y8303186D02*
D03*
X8697359Y8103186D02*
D03*
X8597359Y7903186D02*
D03*
X8697359Y7703186D02*
D03*
X8597359Y7503185D02*
D03*
X8697359Y7303185D02*
D03*
X8597359Y7103185D02*
D03*
X8697359Y6903185D02*
D03*
X8597359Y6703185D02*
D03*
X8697359Y6503185D02*
D03*
X8597359Y6303185D02*
D03*
X8697359Y6103185D02*
D03*
X8597359Y5903185D02*
D03*
X8697359Y5703184D02*
D03*
X8597359Y5503184D02*
D03*
X8697359Y5303184D02*
D03*
X8597359Y5103184D02*
D03*
X8497359Y9303186D02*
D03*
X8397359Y9103186D02*
D03*
X8497359Y8903186D02*
D03*
X8397359Y8703186D02*
D03*
X8497359Y8503186D02*
D03*
X8397359Y8303186D02*
D03*
X8497359Y8103186D02*
D03*
X8397359Y7903186D02*
D03*
X8497359Y7703186D02*
D03*
X8397359Y7503185D02*
D03*
X8497359Y7303185D02*
D03*
X8397359Y7103185D02*
D03*
X8497359Y6903185D02*
D03*
X8397359Y6703185D02*
D03*
X8497359Y6503185D02*
D03*
X8397359Y6303185D02*
D03*
X8497359Y6103185D02*
D03*
X8397359Y5903185D02*
D03*
X8497359Y5703184D02*
D03*
X8397359Y5503184D02*
D03*
D97*
X12151915Y6217468D02*
D03*
X9776397Y8405532D02*
D03*
X9495615Y8848359D02*
D03*
X8937234Y8671151D02*
D03*
X11110750Y6423305D02*
D03*
X10908152Y6939132D02*
D03*
X9660111Y9019944D02*
D03*
X11337864Y6380616D02*
D03*
X9935167Y7978251D02*
D03*
X10968009Y8277165D02*
D03*
X9868353Y8239441D02*
D03*
X9709908Y7541985D02*
D03*
X9790000Y7730000D02*
D03*
X9214163Y6658316D02*
D03*
X9393198Y7141804D02*
D03*
X8668811Y8848881D02*
D03*
X9029700Y5600700D02*
D03*
X12192000Y6832600D02*
D03*
X12136892Y6373467D02*
D03*
X12512908Y8037044D02*
D03*
X11277600Y9715500D02*
D03*
X10142008Y9098908D02*
D03*
X9512300Y9702800D02*
D03*
X9767528Y9368961D02*
D03*
X10955226Y7145888D02*
D03*
X10740699Y6899716D02*
D03*
X10101642Y8316621D02*
D03*
X10041529Y8643378D02*
D03*
X12389794Y6737657D02*
D03*
X12137757Y6588375D02*
D03*
X11648800Y9923101D02*
D03*
X12214319Y9442271D02*
D03*
X10640060Y8963660D02*
D03*
X10030460Y8823960D02*
D03*
X8850000Y9890000D02*
D03*
D98*
X9050000Y9350000D02*
D03*
X9160000D02*
D03*
Y9240000D02*
D03*
X9050000D02*
D03*
X10603642Y7560005D02*
D03*
X10493642D02*
D03*
X10383642D02*
D03*
X10273642D02*
D03*
X10163642D02*
D03*
X10603642Y7670005D02*
D03*
X10493642D02*
D03*
X10383642D02*
D03*
X10273642D02*
D03*
X10163642D02*
D03*
X10603642Y7780005D02*
D03*
X10493642D02*
D03*
X10383642D02*
D03*
X10273642D02*
D03*
X10163642D02*
D03*
X10603642Y7890005D02*
D03*
X10493642D02*
D03*
X10383642D02*
D03*
X10273642D02*
D03*
X10163642D02*
D03*
X10603642Y8000005D02*
D03*
X10493642D02*
D03*
X10383642D02*
D03*
X10273642D02*
D03*
X10163642D02*
D03*
%TF.MD5,a2a83f0bdae69c39bc751897f99dd583*%
M02*
