%TF.GenerationSoftware,Altium Limited,Altium Designer,23.5.1 (21)*%
G04 Layer_Physical_Order=4*
G04 Layer_Color=16711680*
%FSLAX45Y45*%
%MOMM*%
%TF.SameCoordinates,D1A1A69A-B0F0-4312-96CC-35C0D177272F*%
%TF.FilePolarity,Positive*%
%TF.FileFunction,Copper,L4,Bot,Signal*%
%TF.Part,Single*%
G01*
G75*
%TA.AperFunction,Conductor*%
%ADD46C,0.40000*%
%ADD47C,0.25000*%
%ADD48C,0.50000*%
%ADD49C,0.75000*%
%ADD50C,0.30000*%
%ADD51C,1.00000*%
%TA.AperFunction,ViaPad*%
%ADD53C,1.15200*%
%ADD54C,3.00000*%
%TA.AperFunction,ComponentPad*%
%ADD55C,0.99100*%
%TA.AperFunction,ViaPad*%
%ADD56C,0.80000*%
%ADD57C,0.60000*%
%ADD58C,0.70000*%
%ADD59C,0.50000*%
D46*
X9776397Y8405532D02*
Y8576034D01*
X10024323Y8823960D01*
X9662707Y8937732D02*
Y9017348D01*
X8937234Y8605339D02*
Y8671151D01*
X11110750Y6851113D02*
X11117849Y6858212D01*
X10024323Y8823960D02*
X10030460D01*
X9868353Y7700430D02*
Y8239441D01*
X10587458Y8751305D02*
X10639642Y8803490D01*
X10103115Y8751305D02*
X10587458D01*
X10639642Y8803490D02*
Y8909299D01*
X10640060Y8963660D02*
Y9047460D01*
Y8963660D02*
X10728720D01*
X9709908Y7541985D02*
X9868353Y7700430D01*
X10640060Y8909716D02*
Y8963660D01*
X10030460Y8823960D02*
X10103115Y8751305D01*
D47*
X10142008Y9098908D02*
Y9217992D01*
X9470000Y9890000D02*
X10142008Y9217992D01*
X8850000Y9890000D02*
X9470000D01*
D48*
X9662120Y8872401D02*
Y8937145D01*
X8967869Y8533856D02*
X9033531D01*
X8937234Y8564492D02*
X8967869Y8533856D01*
X8937234Y8564492D02*
Y8605339D01*
X12214264Y9212622D02*
Y9442215D01*
X10728720Y8963660D02*
X10867795D01*
X11110750Y6423305D02*
Y6851113D01*
X10640060Y9047460D02*
Y9102122D01*
D49*
X9394099Y8533856D02*
X9661702Y8801460D01*
Y8871982D01*
X9033531Y8533856D02*
X9394099D01*
X12217972Y9040817D02*
Y9208913D01*
X10867795Y8963660D02*
X10971377Y8860079D01*
Y8680303D02*
Y8860079D01*
X10640060Y9157602D02*
X10700154Y9217696D01*
X10640060Y9102122D02*
Y9157602D01*
D50*
X10223254Y8965954D02*
X11180401Y9923101D01*
X11648800D01*
X9688268Y7758301D02*
Y8649218D01*
X10005004Y8965954D02*
X10223254D01*
X9688268Y8649218D02*
X10005004Y8965954D01*
X9688268Y7758301D02*
X9716570Y7730000D01*
X9790000D01*
D51*
X11373232Y8750300D02*
X12159827D01*
X12218406Y8808879D02*
Y9028037D01*
X12159827Y8750300D02*
X12218406Y8808879D01*
X10967572Y8277601D02*
Y8676498D01*
X10969150Y8678076D01*
X11117849Y6858212D02*
X11233212D01*
X10909299Y9214233D02*
X11373232Y8750300D01*
X10703616Y9214233D02*
X10909299D01*
X11233212Y6858212D02*
X11525000Y7150000D01*
Y8025000D01*
X11272835Y8277165D02*
X11525000Y8025000D01*
X10968009Y8277165D02*
X11272835D01*
X10908152Y6939132D02*
X11035694D01*
X11113906Y6860919D01*
D53*
X12800000Y5550000D02*
D03*
X8400000Y9425000D02*
D03*
D54*
Y5200000D02*
D03*
Y9800000D02*
D03*
X12800000D02*
D03*
Y5200000D02*
D03*
D55*
X11884000Y9133500D02*
D03*
X11376000Y9031900D02*
D03*
Y9235100D02*
D03*
D56*
X11971730Y9281201D02*
D03*
X10770295Y8785651D02*
D03*
X10574552Y8602296D02*
D03*
X10849584Y8545307D02*
D03*
X10691006Y8404076D02*
D03*
X10965606Y9876418D02*
D03*
X11934005Y9906859D02*
D03*
X12134005D02*
D03*
X12334005D02*
D03*
X10850548Y9354921D02*
D03*
X10789084Y9874126D02*
D03*
X9791758Y9874650D02*
D03*
X9991758D02*
D03*
X10191758D02*
D03*
X10391758D02*
D03*
X10591758D02*
D03*
X11268446Y9307912D02*
D03*
X12797361Y9503186D02*
D03*
X12897362Y9303186D02*
D03*
X12797361Y9103186D02*
D03*
X12897362Y8903186D02*
D03*
X12797361Y8703186D02*
D03*
X12897362Y8503186D02*
D03*
X12797361Y7103185D02*
D03*
X12897362Y6903185D02*
D03*
X12797361Y6703185D02*
D03*
X12897362Y6503185D02*
D03*
X12797361Y6303185D02*
D03*
X12897362Y6103185D02*
D03*
X12797361Y5903185D02*
D03*
X12897362Y5703184D02*
D03*
X12597361Y9503186D02*
D03*
X12697361Y9303186D02*
D03*
X12597361Y9103186D02*
D03*
X12697361Y8903186D02*
D03*
X12597361Y8703186D02*
D03*
X12697361Y8503186D02*
D03*
Y6903185D02*
D03*
X12597361Y6703185D02*
D03*
X12697361Y6503185D02*
D03*
X12597361Y6303185D02*
D03*
X12697361Y6103185D02*
D03*
X12597361Y5903185D02*
D03*
X12697361Y5703184D02*
D03*
X12597361Y5503184D02*
D03*
Y5103184D02*
D03*
X12497361Y9703187D02*
D03*
X12397361Y9503186D02*
D03*
X12497361Y9303186D02*
D03*
X12397361Y9103186D02*
D03*
X12497361Y8903186D02*
D03*
X12397361Y8703186D02*
D03*
X12497361Y8503186D02*
D03*
X12397361Y8303186D02*
D03*
Y5903185D02*
D03*
X12497361Y5703184D02*
D03*
X12397361Y5503184D02*
D03*
X12497361Y5303184D02*
D03*
X12397361Y5103184D02*
D03*
X12297361Y9703187D02*
D03*
Y9303186D02*
D03*
Y8503186D02*
D03*
X12197361Y8303186D02*
D03*
X12297361Y8103186D02*
D03*
Y7703186D02*
D03*
Y5703184D02*
D03*
X12197361Y5503184D02*
D03*
X12297361Y5303184D02*
D03*
X12197361Y5103184D02*
D03*
X11997361Y9503186D02*
D03*
Y9103186D02*
D03*
X12097361Y8503186D02*
D03*
X11997361Y8303186D02*
D03*
X12097361Y8103186D02*
D03*
Y7703186D02*
D03*
X11997361Y7503185D02*
D03*
X12097361Y5703184D02*
D03*
X11997361Y5503184D02*
D03*
X12097361Y5303184D02*
D03*
X11997361Y5103184D02*
D03*
X11897361Y8903186D02*
D03*
Y8503186D02*
D03*
X11797360Y8303186D02*
D03*
X11897361Y8103186D02*
D03*
Y7703186D02*
D03*
X11797360Y7503185D02*
D03*
X11897361Y7303185D02*
D03*
Y6103185D02*
D03*
Y5703184D02*
D03*
X11797360Y5503184D02*
D03*
X11897361Y5303184D02*
D03*
X11797360Y5103184D02*
D03*
X11597360Y8303186D02*
D03*
X11697360Y8103186D02*
D03*
Y7703186D02*
D03*
Y7303185D02*
D03*
Y6103185D02*
D03*
X11597360Y5503184D02*
D03*
X11697360Y5303184D02*
D03*
X11597360Y5103184D02*
D03*
X11497360Y8503186D02*
D03*
X11397360Y7503185D02*
D03*
X11497360Y6503185D02*
D03*
Y5303184D02*
D03*
X11397360Y5103184D02*
D03*
X11197360Y9503186D02*
D03*
Y9103186D02*
D03*
X11297360Y8503186D02*
D03*
Y7703186D02*
D03*
Y7303185D02*
D03*
X11197360Y7103185D02*
D03*
X11297360Y5303184D02*
D03*
X11197360Y5103184D02*
D03*
X11097360Y9703187D02*
D03*
X10997360Y9503186D02*
D03*
X11097360Y9303186D02*
D03*
Y8503186D02*
D03*
Y8103186D02*
D03*
Y7703186D02*
D03*
X10797360Y9103186D02*
D03*
X10897360Y7703186D02*
D03*
X10797360Y6703185D02*
D03*
X10897360Y5303184D02*
D03*
X10697360Y9703187D02*
D03*
X10597360Y9503186D02*
D03*
Y6703185D02*
D03*
X10697360Y6503185D02*
D03*
X10597360Y6303185D02*
D03*
X10697360Y6103185D02*
D03*
X10597360Y5903185D02*
D03*
Y5503184D02*
D03*
X10697360Y5303184D02*
D03*
X10497360Y9703187D02*
D03*
X10397360Y9503186D02*
D03*
Y6703185D02*
D03*
X10497360Y6503185D02*
D03*
X10397360Y6303185D02*
D03*
X10497360Y6103185D02*
D03*
X10397360Y5903185D02*
D03*
X10497360Y5703184D02*
D03*
X10397360Y5503184D02*
D03*
X10497360Y5303184D02*
D03*
X10297360Y9703187D02*
D03*
X10197360Y9503186D02*
D03*
X10297360Y9303186D02*
D03*
X10197360Y6703185D02*
D03*
X10297360Y6503185D02*
D03*
X10197360Y6303185D02*
D03*
X10297360Y6103185D02*
D03*
X10197360Y5903185D02*
D03*
X10297360Y5703184D02*
D03*
X10197360Y5503184D02*
D03*
X10297360Y5303184D02*
D03*
X10097360Y9703187D02*
D03*
Y5303184D02*
D03*
X9897359Y9703187D02*
D03*
Y9303186D02*
D03*
Y8503186D02*
D03*
Y7303185D02*
D03*
Y6503185D02*
D03*
X9797359Y6303185D02*
D03*
X9897359Y6103185D02*
D03*
X9797359Y5903185D02*
D03*
X9597359Y9503186D02*
D03*
Y8303186D02*
D03*
Y7503185D02*
D03*
X9697359Y7303185D02*
D03*
X9597359Y7103185D02*
D03*
X9397359Y9503186D02*
D03*
Y8703186D02*
D03*
X9497359Y8503186D02*
D03*
X9397359Y8303186D02*
D03*
X9497359Y7303185D02*
D03*
Y6903185D02*
D03*
X9397359Y6703185D02*
D03*
Y6303185D02*
D03*
X9197359Y8703186D02*
D03*
Y8303186D02*
D03*
X9297359Y8103186D02*
D03*
X9197359Y7903186D02*
D03*
X9297359Y6503185D02*
D03*
X9197359Y6303185D02*
D03*
X9297359Y6103185D02*
D03*
X9197359Y5103184D02*
D03*
X8997359Y8303186D02*
D03*
X9097359Y8103186D02*
D03*
X8997359Y7903186D02*
D03*
X9097359Y6503185D02*
D03*
X8997359Y6303185D02*
D03*
X9097359Y6103185D02*
D03*
X8997359Y5903185D02*
D03*
Y5503184D02*
D03*
Y5103184D02*
D03*
X8797359Y9503186D02*
D03*
Y9103186D02*
D03*
Y8703186D02*
D03*
Y8303186D02*
D03*
X8897359Y8103186D02*
D03*
X8797359Y7903186D02*
D03*
X8897359Y7703186D02*
D03*
X8797359Y7503185D02*
D03*
Y7103185D02*
D03*
Y6703185D02*
D03*
X8897359Y6503185D02*
D03*
X8797359Y6303185D02*
D03*
X8897359Y6103185D02*
D03*
X8797359Y5903185D02*
D03*
X8897359Y5703184D02*
D03*
X8797359Y5503184D02*
D03*
X8897359Y5303184D02*
D03*
X8797359Y5103184D02*
D03*
X8697359Y9703187D02*
D03*
X8597359Y9503186D02*
D03*
X8697359Y9303186D02*
D03*
X8597359Y9103186D02*
D03*
Y8703186D02*
D03*
X8697359Y8503186D02*
D03*
X8597359Y8303186D02*
D03*
X8697359Y8103186D02*
D03*
X8597359Y7903186D02*
D03*
X8697359Y7703186D02*
D03*
X8597359Y7503185D02*
D03*
X8697359Y7303185D02*
D03*
X8597359Y7103185D02*
D03*
X8697359Y6903185D02*
D03*
X8597359Y6703185D02*
D03*
X8697359Y6503185D02*
D03*
X8597359Y6303185D02*
D03*
X8697359Y6103185D02*
D03*
X8597359Y5903185D02*
D03*
X8697359Y5703184D02*
D03*
X8597359Y5503184D02*
D03*
X8697359Y5303184D02*
D03*
X8597359Y5103184D02*
D03*
X8497359Y9303186D02*
D03*
X8397359Y9103186D02*
D03*
X8497359Y8903186D02*
D03*
X8397359Y8703186D02*
D03*
X8497359Y8503186D02*
D03*
X8397359Y8303186D02*
D03*
X8497359Y8103186D02*
D03*
X8397359Y7903186D02*
D03*
X8497359Y7703186D02*
D03*
X8397359Y7503185D02*
D03*
X8497359Y7303185D02*
D03*
X8397359Y7103185D02*
D03*
X8497359Y6903185D02*
D03*
X8397359Y6703185D02*
D03*
X8497359Y6503185D02*
D03*
X8397359Y6303185D02*
D03*
X8497359Y6103185D02*
D03*
X8397359Y5903185D02*
D03*
X8497359Y5703184D02*
D03*
X8397359Y5503184D02*
D03*
D57*
X12151915Y6217468D02*
D03*
X9776397Y8405532D02*
D03*
X9495615Y8848359D02*
D03*
X8937234Y8671151D02*
D03*
X11110750Y6423305D02*
D03*
X10908152Y6939132D02*
D03*
X9660111Y9019944D02*
D03*
X11337864Y6380616D02*
D03*
X9935167Y7978251D02*
D03*
X10968009Y8277165D02*
D03*
X9868353Y8239441D02*
D03*
X9709908Y7541985D02*
D03*
X9790000Y7730000D02*
D03*
X9214163Y6658316D02*
D03*
X9393198Y7141804D02*
D03*
X8668811Y8848881D02*
D03*
X9029700Y5600700D02*
D03*
X12192000Y6832600D02*
D03*
X12136892Y6373467D02*
D03*
X12512908Y8037044D02*
D03*
X11277600Y9715500D02*
D03*
X9512300Y9702800D02*
D03*
X9767528Y9368961D02*
D03*
X10955226Y7145888D02*
D03*
X10740699Y6899716D02*
D03*
X10101642Y8316621D02*
D03*
X10041529Y8643378D02*
D03*
X12389794Y6737657D02*
D03*
X12137757Y6588375D02*
D03*
D58*
X10142008Y9098908D02*
D03*
X11648800Y9923101D02*
D03*
X12214319Y9442271D02*
D03*
X10640060Y8963660D02*
D03*
X10030460Y8823960D02*
D03*
X8850000Y9890000D02*
D03*
D59*
X9050000Y9350000D02*
D03*
X9160000D02*
D03*
Y9240000D02*
D03*
X9050000D02*
D03*
X10603642Y7560005D02*
D03*
X10493642D02*
D03*
X10383642D02*
D03*
X10273642D02*
D03*
X10163642D02*
D03*
X10603642Y7670005D02*
D03*
X10493642D02*
D03*
X10383642D02*
D03*
X10273642D02*
D03*
X10163642D02*
D03*
X10603642Y7780005D02*
D03*
X10493642D02*
D03*
X10383642D02*
D03*
X10273642D02*
D03*
X10163642D02*
D03*
X10603642Y7890005D02*
D03*
X10493642D02*
D03*
X10383642D02*
D03*
X10273642D02*
D03*
X10163642D02*
D03*
X10603642Y8000005D02*
D03*
X10493642D02*
D03*
X10383642D02*
D03*
X10273642D02*
D03*
X10163642D02*
D03*
%TF.MD5,626d964a5624cb4f3bb6181314ddecb5*%
M02*
