%TF.GenerationSoftware,Altium Limited,Altium Designer,23.5.1 (21)*%
G04 Layer_Physical_Order=2*
G04 Layer_Color=12811406*
%FSLAX45Y45*%
%MOMM*%
%TF.SameCoordinates,5289BC4C-B9E5-40BB-BF73-25A575C0F3CC*%
%TF.FilePolarity,Positive*%
%TF.FileFunction,Copper,L2,Inr,Signal*%
%TF.Part,Single*%
G01*
G75*
%TA.AperFunction,ViaPad*%
%ADD53C,1.15200*%
%ADD54C,3.00000*%
%TA.AperFunction,ComponentPad*%
%ADD55C,0.99100*%
%TA.AperFunction,ViaPad*%
%ADD56C,0.80000*%
%ADD57C,0.60000*%
%ADD58C,0.70000*%
%ADD59C,0.50000*%
G36*
X12858337Y9992314D02*
X12894736Y9977238D01*
X12927492Y9955350D01*
X12955350Y9927492D01*
X12977237Y9894736D01*
X12992314Y9858338D01*
X13000000Y9819698D01*
Y9800000D01*
Y5200000D01*
Y5180302D01*
X12992314Y5141662D01*
X12977237Y5105264D01*
X12955350Y5072507D01*
X12927492Y5044650D01*
X12894736Y5022762D01*
X12858337Y5007686D01*
X12819698Y5000000D01*
X8290151D01*
X8270831Y5003843D01*
X8252632Y5011381D01*
X8236254Y5022325D01*
X8222325Y5036254D01*
X8211381Y5052632D01*
X8203843Y5070831D01*
X8200000Y5090151D01*
Y5100000D01*
Y9800000D01*
Y9800000D01*
Y9819698D01*
X8207686Y9858338D01*
X8222762Y9894736D01*
X8244650Y9927492D01*
X8272507Y9955350D01*
X8305264Y9977238D01*
X8341662Y9992314D01*
X8380302Y10000000D01*
X12819698D01*
X12858337Y9992314D01*
D02*
G37*
%LPC*%
G36*
X11658745Y9973101D02*
X11638854D01*
X11620477Y9965489D01*
X11606412Y9951424D01*
X11598800Y9933047D01*
Y9913156D01*
X11606412Y9894779D01*
X11620477Y9880713D01*
X11638854Y9873101D01*
X11658745D01*
X11677122Y9880713D01*
X11691188Y9894779D01*
X11698800Y9913156D01*
Y9933047D01*
X11691188Y9951424D01*
X11677122Y9965489D01*
X11658745Y9973101D01*
D02*
G37*
G36*
X8859946Y9940000D02*
X8840054D01*
X8821677Y9932388D01*
X8807612Y9918323D01*
X8800000Y9899946D01*
Y9880054D01*
X8807612Y9861677D01*
X8821677Y9847612D01*
X8840054Y9840000D01*
X8859946D01*
X8878323Y9847612D01*
X8892388Y9861677D01*
X8900000Y9880054D01*
Y9899946D01*
X8892388Y9918323D01*
X8878323Y9932388D01*
X8859946Y9940000D01*
D02*
G37*
G36*
X12816251Y9965000D02*
X12783749D01*
X12751871Y9958659D01*
X12721843Y9946221D01*
X12694819Y9928164D01*
X12671836Y9905181D01*
X12653779Y9878157D01*
X12641341Y9848129D01*
X12635000Y9816251D01*
Y9783749D01*
X12641341Y9751871D01*
X12653779Y9721843D01*
X12671836Y9694819D01*
X12694819Y9671836D01*
X12721843Y9653779D01*
X12751871Y9641341D01*
X12783749Y9635000D01*
X12816251D01*
X12848129Y9641341D01*
X12878157Y9653779D01*
X12905180Y9671836D01*
X12928165Y9694819D01*
X12946220Y9721843D01*
X12958659Y9751871D01*
X12964999Y9783749D01*
Y9816251D01*
X12958659Y9848129D01*
X12946220Y9878157D01*
X12928165Y9905181D01*
X12905180Y9928164D01*
X12878157Y9946221D01*
X12848129Y9958659D01*
X12816251Y9965000D01*
D02*
G37*
G36*
X8416251D02*
X8383749D01*
X8351871Y9958659D01*
X8321843Y9946221D01*
X8294819Y9928164D01*
X8271836Y9905181D01*
X8253779Y9878157D01*
X8241341Y9848129D01*
X8235000Y9816251D01*
Y9783749D01*
X8241341Y9751871D01*
X8253779Y9721843D01*
X8271836Y9694819D01*
X8294819Y9671836D01*
X8321843Y9653779D01*
X8351871Y9641341D01*
X8383749Y9635000D01*
X8416251D01*
X8448129Y9641341D01*
X8478157Y9653779D01*
X8505181Y9671836D01*
X8528164Y9694819D01*
X8546221Y9721843D01*
X8558659Y9751871D01*
X8565000Y9783749D01*
Y9816251D01*
X8558659Y9848129D01*
X8546221Y9878157D01*
X8528164Y9905181D01*
X8505181Y9928164D01*
X8478157Y9946221D01*
X8448129Y9958659D01*
X8416251Y9965000D01*
D02*
G37*
G36*
X12224265Y9492271D02*
X12204374D01*
X12185997Y9484659D01*
X12171931Y9470594D01*
X12164320Y9452217D01*
Y9432326D01*
X12171931Y9413948D01*
X12185997Y9399883D01*
X12204374Y9392271D01*
X12224265D01*
X12242642Y9399883D01*
X12256708Y9413948D01*
X12264319Y9432326D01*
Y9452217D01*
X12256708Y9470594D01*
X12242642Y9484659D01*
X12224265Y9492271D01*
D02*
G37*
G36*
X8409558Y9497600D02*
X8390442D01*
X8371977Y9492652D01*
X8355423Y9483094D01*
X8341906Y9469577D01*
X8332348Y9453022D01*
X8327400Y9434558D01*
Y9415442D01*
X8332348Y9396977D01*
X8341906Y9380423D01*
X8355423Y9366906D01*
X8371977Y9357348D01*
X8390442Y9352400D01*
X8409558D01*
X8428023Y9357348D01*
X8444577Y9366906D01*
X8458094Y9380423D01*
X8467652Y9396977D01*
X8472600Y9415442D01*
Y9434558D01*
X8467652Y9453022D01*
X8458094Y9469577D01*
X8444577Y9483094D01*
X8428023Y9492652D01*
X8409558Y9497600D01*
D02*
G37*
G36*
X11388840Y9299650D02*
X11363160D01*
X11339436Y9289823D01*
X11321277Y9271664D01*
X11311450Y9247940D01*
Y9222260D01*
X11321277Y9198535D01*
X11339436Y9180377D01*
X11363160Y9170550D01*
X11388840D01*
X11412565Y9180377D01*
X11430723Y9198535D01*
X11440550Y9222260D01*
Y9247940D01*
X11430723Y9271664D01*
X11412565Y9289823D01*
X11388840Y9299650D01*
D02*
G37*
G36*
X11896840Y9198050D02*
X11871160D01*
X11847436Y9188223D01*
X11829277Y9170064D01*
X11819450Y9146340D01*
Y9120660D01*
X11829277Y9096935D01*
X11847436Y9078777D01*
X11871160Y9068950D01*
X11896840D01*
X11920565Y9078777D01*
X11938723Y9096935D01*
X11948550Y9120660D01*
Y9146340D01*
X11938723Y9170064D01*
X11920565Y9188223D01*
X11896840Y9198050D01*
D02*
G37*
G36*
X11757158Y9213315D02*
X11503000D01*
X11491520Y9208559D01*
X11486764Y9197079D01*
Y9070000D01*
X11491520Y9058519D01*
X11503000Y9053764D01*
X11757158D01*
X11768639Y9058519D01*
X11773394Y9070000D01*
Y9197079D01*
X11768639Y9208559D01*
X11757158Y9213315D01*
D02*
G37*
G36*
X10151953Y9148908D02*
X10132062D01*
X10113685Y9141296D01*
X10099620Y9127231D01*
X10092008Y9108854D01*
Y9088962D01*
X10099620Y9070585D01*
X10113685Y9056520D01*
X10132062Y9048908D01*
X10151953D01*
X10170330Y9056520D01*
X10184396Y9070585D01*
X10192008Y9088962D01*
Y9108854D01*
X10184396Y9127231D01*
X10170330Y9141296D01*
X10151953Y9148908D01*
D02*
G37*
G36*
X9669062Y9064944D02*
X9651160D01*
X9634620Y9058093D01*
X9621962Y9045435D01*
X9615111Y9028895D01*
Y9010993D01*
X9621962Y8994454D01*
X9634620Y8981795D01*
X9651160Y8974944D01*
X9669062D01*
X9685601Y8981795D01*
X9698260Y8994454D01*
X9705111Y9010993D01*
Y9028895D01*
X9698260Y9045435D01*
X9685601Y9058093D01*
X9669062Y9064944D01*
D02*
G37*
G36*
X11388840Y9096450D02*
X11363160D01*
X11339436Y9086623D01*
X11321277Y9068464D01*
X11311450Y9044740D01*
Y9019060D01*
X11321277Y8995335D01*
X11339436Y8977177D01*
X11363160Y8967350D01*
X11388840D01*
X11412565Y8977177D01*
X11430723Y8995335D01*
X11440550Y9019060D01*
Y9044740D01*
X11430723Y9068464D01*
X11412565Y9086623D01*
X11388840Y9096450D01*
D02*
G37*
G36*
X10650006Y9013660D02*
X10630114D01*
X10611737Y9006048D01*
X10597672Y8991983D01*
X10590060Y8973606D01*
Y8953714D01*
X10597672Y8935337D01*
X10611737Y8921272D01*
X10630114Y8913660D01*
X10650006D01*
X10668383Y8921272D01*
X10682448Y8935337D01*
X10690060Y8953714D01*
Y8973606D01*
X10682448Y8991983D01*
X10668383Y9006048D01*
X10650006Y9013660D01*
D02*
G37*
G36*
X10040406Y8873960D02*
X10020514D01*
X10002137Y8866348D01*
X9988072Y8852283D01*
X9980460Y8833906D01*
Y8814014D01*
X9988072Y8795637D01*
X10002137Y8781572D01*
X10020514Y8773960D01*
X10040406D01*
X10058783Y8781572D01*
X10072848Y8795637D01*
X10080460Y8814014D01*
Y8833906D01*
X10072848Y8852283D01*
X10058783Y8866348D01*
X10040406Y8873960D01*
D02*
G37*
G36*
X8946185Y8716150D02*
X8928283D01*
X8911743Y8709300D01*
X8899085Y8696641D01*
X8892234Y8680102D01*
Y8662200D01*
X8899085Y8645660D01*
X8911743Y8633002D01*
X8928283Y8626151D01*
X8946185D01*
X8962724Y8633002D01*
X8975383Y8645660D01*
X8982234Y8662200D01*
Y8680102D01*
X8975383Y8696641D01*
X8962724Y8709300D01*
X8946185Y8716150D01*
D02*
G37*
G36*
X9785348Y8450532D02*
X9767446D01*
X9750907Y8443681D01*
X9738248Y8431023D01*
X9731397Y8414483D01*
Y8396581D01*
X9738248Y8380042D01*
X9750907Y8367383D01*
X9767446Y8360532D01*
X9785348D01*
X9801887Y8367383D01*
X9814546Y8380042D01*
X9821397Y8396581D01*
Y8414483D01*
X9814546Y8431023D01*
X9801887Y8443681D01*
X9785348Y8450532D01*
D02*
G37*
G36*
X10976960Y8322164D02*
X10959058D01*
X10942518Y8315314D01*
X10929860Y8302655D01*
X10923009Y8286116D01*
Y8268214D01*
X10929860Y8251674D01*
X10942518Y8239016D01*
X10959058Y8232165D01*
X10976960D01*
X10993499Y8239016D01*
X11006158Y8251674D01*
X11013008Y8268214D01*
Y8286116D01*
X11006158Y8302655D01*
X10993499Y8315314D01*
X10976960Y8322164D01*
D02*
G37*
G36*
X9877304Y8284441D02*
X9859402D01*
X9842862Y8277590D01*
X9830204Y8264932D01*
X9823353Y8248392D01*
Y8230490D01*
X9830204Y8213951D01*
X9842862Y8201292D01*
X9859402Y8194441D01*
X9877304D01*
X9893843Y8201292D01*
X9906502Y8213951D01*
X9913353Y8230490D01*
Y8248392D01*
X9906502Y8264932D01*
X9893843Y8277590D01*
X9877304Y8284441D01*
D02*
G37*
G36*
X9798951Y7775000D02*
X9781049D01*
X9764510Y7768149D01*
X9751851Y7755490D01*
X9745000Y7738951D01*
Y7721049D01*
X9751851Y7704510D01*
X9764510Y7691851D01*
X9781049Y7685000D01*
X9798951D01*
X9815490Y7691851D01*
X9828149Y7704510D01*
X9835000Y7721049D01*
Y7738951D01*
X9828149Y7755490D01*
X9815490Y7768149D01*
X9798951Y7775000D01*
D02*
G37*
G36*
X9718859Y7586985D02*
X9700957D01*
X9684417Y7580134D01*
X9671759Y7567475D01*
X9664908Y7550936D01*
Y7533034D01*
X9671759Y7516494D01*
X9684417Y7503836D01*
X9700957Y7496985D01*
X9718859D01*
X9735398Y7503836D01*
X9748057Y7516494D01*
X9754908Y7533034D01*
Y7550936D01*
X9748057Y7567475D01*
X9735398Y7580134D01*
X9718859Y7586985D01*
D02*
G37*
G36*
X10917103Y6984132D02*
X10899201D01*
X10882661Y6977281D01*
X10870003Y6964622D01*
X10863152Y6948083D01*
Y6930181D01*
X10870003Y6913641D01*
X10882661Y6900983D01*
X10899201Y6894132D01*
X10917103D01*
X10933642Y6900983D01*
X10946301Y6913641D01*
X10953152Y6930181D01*
Y6948083D01*
X10946301Y6964622D01*
X10933642Y6977281D01*
X10917103Y6984132D01*
D02*
G37*
G36*
X11119701Y6468305D02*
X11101799D01*
X11085260Y6461454D01*
X11072601Y6448795D01*
X11065751Y6432256D01*
Y6414354D01*
X11072601Y6397814D01*
X11085260Y6385156D01*
X11101799Y6378305D01*
X11119701D01*
X11136241Y6385156D01*
X11148899Y6397814D01*
X11155750Y6414354D01*
Y6432256D01*
X11148899Y6448795D01*
X11136241Y6461454D01*
X11119701Y6468305D01*
D02*
G37*
G36*
X12816251Y5365000D02*
X12783749D01*
X12751871Y5358659D01*
X12721843Y5346221D01*
X12694819Y5328164D01*
X12671836Y5305181D01*
X12653779Y5278157D01*
X12641341Y5248129D01*
X12635000Y5216251D01*
Y5183749D01*
X12641341Y5151871D01*
X12653779Y5121843D01*
X12671836Y5094819D01*
X12694819Y5071836D01*
X12721843Y5053779D01*
X12751871Y5041341D01*
X12783749Y5035000D01*
X12816251D01*
X12848129Y5041341D01*
X12878157Y5053779D01*
X12905180Y5071836D01*
X12928165Y5094819D01*
X12946220Y5121843D01*
X12958659Y5151871D01*
X12964999Y5183749D01*
Y5216251D01*
X12958659Y5248129D01*
X12946220Y5278157D01*
X12928165Y5305181D01*
X12905180Y5328164D01*
X12878157Y5346221D01*
X12848129Y5358659D01*
X12816251Y5365000D01*
D02*
G37*
G36*
X8416251D02*
X8383749D01*
X8351871Y5358659D01*
X8321843Y5346221D01*
X8294819Y5328164D01*
X8271836Y5305181D01*
X8253779Y5278157D01*
X8241341Y5248129D01*
X8235000Y5216251D01*
Y5183749D01*
X8241341Y5151871D01*
X8253779Y5121843D01*
X8271836Y5094819D01*
X8294819Y5071836D01*
X8321843Y5053779D01*
X8351871Y5041341D01*
X8383749Y5035000D01*
X8416251D01*
X8448129Y5041341D01*
X8478157Y5053779D01*
X8505181Y5071836D01*
X8528164Y5094819D01*
X8546221Y5121843D01*
X8558659Y5151871D01*
X8565000Y5183749D01*
Y5216251D01*
X8558659Y5248129D01*
X8546221Y5278157D01*
X8528164Y5305181D01*
X8505181Y5328164D01*
X8478157Y5346221D01*
X8448129Y5358659D01*
X8416251Y5365000D01*
D02*
G37*
%LPD*%
D53*
X12800000Y5550000D02*
D03*
X8400000Y9425000D02*
D03*
D54*
Y5200000D02*
D03*
Y9800000D02*
D03*
X12800000D02*
D03*
Y5200000D02*
D03*
D55*
X11884000Y9133500D02*
D03*
X11376000Y9031900D02*
D03*
Y9235100D02*
D03*
D56*
X11971730Y9281201D02*
D03*
X10770295Y8785651D02*
D03*
X10574552Y8602296D02*
D03*
X10849584Y8545307D02*
D03*
X10691006Y8404076D02*
D03*
X10965606Y9876418D02*
D03*
X11934005Y9906859D02*
D03*
X12134005D02*
D03*
X12334005D02*
D03*
X10850548Y9354921D02*
D03*
X10789084Y9874126D02*
D03*
X9791758Y9874650D02*
D03*
X9991758D02*
D03*
X10191758D02*
D03*
X10391758D02*
D03*
X10591758D02*
D03*
X11268446Y9307912D02*
D03*
X12797361Y9503186D02*
D03*
X12897362Y9303186D02*
D03*
X12797361Y9103186D02*
D03*
X12897362Y8903186D02*
D03*
X12797361Y8703186D02*
D03*
X12897362Y8503186D02*
D03*
X12797361Y7103185D02*
D03*
X12897362Y6903185D02*
D03*
X12797361Y6703185D02*
D03*
X12897362Y6503185D02*
D03*
X12797361Y6303185D02*
D03*
X12897362Y6103185D02*
D03*
X12797361Y5903185D02*
D03*
X12897362Y5703184D02*
D03*
X12597361Y9503186D02*
D03*
X12697361Y9303186D02*
D03*
X12597361Y9103186D02*
D03*
X12697361Y8903186D02*
D03*
X12597361Y8703186D02*
D03*
X12697361Y8503186D02*
D03*
Y6903185D02*
D03*
X12597361Y6703185D02*
D03*
X12697361Y6503185D02*
D03*
X12597361Y6303185D02*
D03*
X12697361Y6103185D02*
D03*
X12597361Y5903185D02*
D03*
X12697361Y5703184D02*
D03*
X12597361Y5503184D02*
D03*
Y5103184D02*
D03*
X12497361Y9703187D02*
D03*
X12397361Y9503186D02*
D03*
X12497361Y9303186D02*
D03*
X12397361Y9103186D02*
D03*
X12497361Y8903186D02*
D03*
X12397361Y8703186D02*
D03*
X12497361Y8503186D02*
D03*
X12397361Y8303186D02*
D03*
Y5903185D02*
D03*
X12497361Y5703184D02*
D03*
X12397361Y5503184D02*
D03*
X12497361Y5303184D02*
D03*
X12397361Y5103184D02*
D03*
X12297361Y9703187D02*
D03*
Y9303186D02*
D03*
Y8503186D02*
D03*
X12197361Y8303186D02*
D03*
X12297361Y8103186D02*
D03*
Y7703186D02*
D03*
Y5703184D02*
D03*
X12197361Y5503184D02*
D03*
X12297361Y5303184D02*
D03*
X12197361Y5103184D02*
D03*
X11997361Y9503186D02*
D03*
Y9103186D02*
D03*
X12097361Y8503186D02*
D03*
X11997361Y8303186D02*
D03*
X12097361Y8103186D02*
D03*
Y7703186D02*
D03*
X11997361Y7503185D02*
D03*
X12097361Y5703184D02*
D03*
X11997361Y5503184D02*
D03*
X12097361Y5303184D02*
D03*
X11997361Y5103184D02*
D03*
X11897361Y8903186D02*
D03*
Y8503186D02*
D03*
X11797360Y8303186D02*
D03*
X11897361Y8103186D02*
D03*
Y7703186D02*
D03*
X11797360Y7503185D02*
D03*
X11897361Y7303185D02*
D03*
Y6103185D02*
D03*
Y5703184D02*
D03*
X11797360Y5503184D02*
D03*
X11897361Y5303184D02*
D03*
X11797360Y5103184D02*
D03*
X11597360Y8303186D02*
D03*
X11697360Y8103186D02*
D03*
Y7703186D02*
D03*
Y7303185D02*
D03*
Y6103185D02*
D03*
X11597360Y5503184D02*
D03*
X11697360Y5303184D02*
D03*
X11597360Y5103184D02*
D03*
X11497360Y8503186D02*
D03*
X11397360Y7503185D02*
D03*
X11497360Y6503185D02*
D03*
Y5303184D02*
D03*
X11397360Y5103184D02*
D03*
X11197360Y9503186D02*
D03*
Y9103186D02*
D03*
X11297360Y8503186D02*
D03*
Y7703186D02*
D03*
Y7303185D02*
D03*
X11197360Y7103185D02*
D03*
X11297360Y5303184D02*
D03*
X11197360Y5103184D02*
D03*
X11097360Y9703187D02*
D03*
X10997360Y9503186D02*
D03*
X11097360Y9303186D02*
D03*
Y8503186D02*
D03*
Y8103186D02*
D03*
Y7703186D02*
D03*
X10797360Y9103186D02*
D03*
X10897360Y7703186D02*
D03*
X10797360Y6703185D02*
D03*
X10897360Y5303184D02*
D03*
X10697360Y9703187D02*
D03*
X10597360Y9503186D02*
D03*
Y6703185D02*
D03*
X10697360Y6503185D02*
D03*
X10597360Y6303185D02*
D03*
X10697360Y6103185D02*
D03*
X10597360Y5903185D02*
D03*
Y5503184D02*
D03*
X10697360Y5303184D02*
D03*
X10497360Y9703187D02*
D03*
X10397360Y9503186D02*
D03*
Y6703185D02*
D03*
X10497360Y6503185D02*
D03*
X10397360Y6303185D02*
D03*
X10497360Y6103185D02*
D03*
X10397360Y5903185D02*
D03*
X10497360Y5703184D02*
D03*
X10397360Y5503184D02*
D03*
X10497360Y5303184D02*
D03*
X10297360Y9703187D02*
D03*
X10197360Y9503186D02*
D03*
X10297360Y9303186D02*
D03*
X10197360Y6703185D02*
D03*
X10297360Y6503185D02*
D03*
X10197360Y6303185D02*
D03*
X10297360Y6103185D02*
D03*
X10197360Y5903185D02*
D03*
X10297360Y5703184D02*
D03*
X10197360Y5503184D02*
D03*
X10297360Y5303184D02*
D03*
X10097360Y9703187D02*
D03*
Y5303184D02*
D03*
X9897359Y9703187D02*
D03*
Y9303186D02*
D03*
Y8503186D02*
D03*
Y7303185D02*
D03*
Y6503185D02*
D03*
X9797359Y6303185D02*
D03*
X9897359Y6103185D02*
D03*
X9797359Y5903185D02*
D03*
X9597359Y9503186D02*
D03*
Y8303186D02*
D03*
Y7503185D02*
D03*
X9697359Y7303185D02*
D03*
X9597359Y7103185D02*
D03*
X9397359Y9503186D02*
D03*
Y8703186D02*
D03*
X9497359Y8503186D02*
D03*
X9397359Y8303186D02*
D03*
X9497359Y7303185D02*
D03*
Y6903185D02*
D03*
X9397359Y6703185D02*
D03*
Y6303185D02*
D03*
X9197359Y8703186D02*
D03*
Y8303186D02*
D03*
X9297359Y8103186D02*
D03*
X9197359Y7903186D02*
D03*
X9297359Y6503185D02*
D03*
X9197359Y6303185D02*
D03*
X9297359Y6103185D02*
D03*
X9197359Y5103184D02*
D03*
X8997359Y8303186D02*
D03*
X9097359Y8103186D02*
D03*
X8997359Y7903186D02*
D03*
X9097359Y6503185D02*
D03*
X8997359Y6303185D02*
D03*
X9097359Y6103185D02*
D03*
X8997359Y5903185D02*
D03*
Y5503184D02*
D03*
Y5103184D02*
D03*
X8797359Y9503186D02*
D03*
Y9103186D02*
D03*
Y8703186D02*
D03*
Y8303186D02*
D03*
X8897359Y8103186D02*
D03*
X8797359Y7903186D02*
D03*
X8897359Y7703186D02*
D03*
X8797359Y7503185D02*
D03*
Y7103185D02*
D03*
Y6703185D02*
D03*
X8897359Y6503185D02*
D03*
X8797359Y6303185D02*
D03*
X8897359Y6103185D02*
D03*
X8797359Y5903185D02*
D03*
X8897359Y5703184D02*
D03*
X8797359Y5503184D02*
D03*
X8897359Y5303184D02*
D03*
X8797359Y5103184D02*
D03*
X8697359Y9703187D02*
D03*
X8597359Y9503186D02*
D03*
X8697359Y9303186D02*
D03*
X8597359Y9103186D02*
D03*
Y8703186D02*
D03*
X8697359Y8503186D02*
D03*
X8597359Y8303186D02*
D03*
X8697359Y8103186D02*
D03*
X8597359Y7903186D02*
D03*
X8697359Y7703186D02*
D03*
X8597359Y7503185D02*
D03*
X8697359Y7303185D02*
D03*
X8597359Y7103185D02*
D03*
X8697359Y6903185D02*
D03*
X8597359Y6703185D02*
D03*
X8697359Y6503185D02*
D03*
X8597359Y6303185D02*
D03*
X8697359Y6103185D02*
D03*
X8597359Y5903185D02*
D03*
X8697359Y5703184D02*
D03*
X8597359Y5503184D02*
D03*
X8697359Y5303184D02*
D03*
X8597359Y5103184D02*
D03*
X8497359Y9303186D02*
D03*
X8397359Y9103186D02*
D03*
X8497359Y8903186D02*
D03*
X8397359Y8703186D02*
D03*
X8497359Y8503186D02*
D03*
X8397359Y8303186D02*
D03*
X8497359Y8103186D02*
D03*
X8397359Y7903186D02*
D03*
X8497359Y7703186D02*
D03*
X8397359Y7503185D02*
D03*
X8497359Y7303185D02*
D03*
X8397359Y7103185D02*
D03*
X8497359Y6903185D02*
D03*
X8397359Y6703185D02*
D03*
X8497359Y6503185D02*
D03*
X8397359Y6303185D02*
D03*
X8497359Y6103185D02*
D03*
X8397359Y5903185D02*
D03*
X8497359Y5703184D02*
D03*
X8397359Y5503184D02*
D03*
D57*
X12151915Y6217468D02*
D03*
X9776397Y8405532D02*
D03*
X9495615Y8848359D02*
D03*
X8937234Y8671151D02*
D03*
X11110750Y6423305D02*
D03*
X10908152Y6939132D02*
D03*
X9660111Y9019944D02*
D03*
X11337864Y6380616D02*
D03*
X9935167Y7978251D02*
D03*
X10968009Y8277165D02*
D03*
X9868353Y8239441D02*
D03*
X9709908Y7541985D02*
D03*
X9790000Y7730000D02*
D03*
X9214163Y6658316D02*
D03*
X9393198Y7141804D02*
D03*
X8668811Y8848881D02*
D03*
X9029700Y5600700D02*
D03*
X12192000Y6832600D02*
D03*
X12136892Y6373467D02*
D03*
X12512908Y8037044D02*
D03*
X11277600Y9715500D02*
D03*
X9512300Y9702800D02*
D03*
X9767528Y9368961D02*
D03*
X10955226Y7145888D02*
D03*
X10740699Y6899716D02*
D03*
X10101642Y8316621D02*
D03*
X10041529Y8643378D02*
D03*
X12389794Y6737657D02*
D03*
X12137757Y6588375D02*
D03*
D58*
X10142008Y9098908D02*
D03*
X11648800Y9923101D02*
D03*
X12214319Y9442271D02*
D03*
X10640060Y8963660D02*
D03*
X10030460Y8823960D02*
D03*
X8850000Y9890000D02*
D03*
D59*
X9050000Y9350000D02*
D03*
X9160000D02*
D03*
Y9240000D02*
D03*
X9050000D02*
D03*
X10603642Y7560005D02*
D03*
X10493642D02*
D03*
X10383642D02*
D03*
X10273642D02*
D03*
X10163642D02*
D03*
X10603642Y7670005D02*
D03*
X10493642D02*
D03*
X10383642D02*
D03*
X10273642D02*
D03*
X10163642D02*
D03*
X10603642Y7780005D02*
D03*
X10493642D02*
D03*
X10383642D02*
D03*
X10273642D02*
D03*
X10163642D02*
D03*
X10603642Y7890005D02*
D03*
X10493642D02*
D03*
X10383642D02*
D03*
X10273642D02*
D03*
X10163642D02*
D03*
X10603642Y8000005D02*
D03*
X10493642D02*
D03*
X10383642D02*
D03*
X10273642D02*
D03*
X10163642D02*
D03*
%TF.MD5,caa77bed1c47c3b7a0481b69dc6aef1d*%
M02*
