%TF.GenerationSoftware,Altium Limited,Altium Designer,23.5.1 (21)*%
G04 Layer_Color=128*
%FSLAX45Y45*%
%MOMM*%
%TF.SameCoordinates,25585159-6715-467B-9351-B71020FA716E*%
%TF.FilePolarity,Positive*%
%TF.FileFunction,Drillmap*%
%TF.Part,Single*%
G01*
G75*
%TA.AperFunction,NonConductor*%
%ADD63C,0.12700*%
D63*
X12742400Y5550000D02*
X12857600D01*
X12800000Y5492400D02*
Y5607600D01*
X8342400Y9425000D02*
X8457600D01*
X8400000Y9367400D02*
Y9482600D01*
X8275000Y5200000D02*
X8525000D01*
X8400000Y5075000D02*
Y5325000D01*
X8275000Y9800000D02*
X8525000D01*
X8400000Y9675000D02*
Y9925000D01*
X11834450Y9133500D02*
X11933550D01*
X11884000Y9083950D02*
Y9183050D01*
X11326450Y9031900D02*
X11425550D01*
X11376000Y8982350D02*
Y9081450D01*
X11326450Y9235100D02*
X11425550D01*
X11376000Y9185550D02*
Y9284650D01*
X12675000Y9800000D02*
X12925000D01*
X12800000Y9675000D02*
Y9925000D01*
X12675000Y5200000D02*
X12925000D01*
X12800000Y5075000D02*
Y5325000D01*
X11951730Y9281201D02*
X11991730D01*
X11971730Y9261201D02*
Y9301201D01*
X10750295Y8785651D02*
X10790295D01*
X10770295Y8765651D02*
Y8805651D01*
X10554552Y8602296D02*
X10594552D01*
X10574552Y8582296D02*
Y8622296D01*
X10829584Y8545307D02*
X10869584D01*
X10849584Y8525307D02*
Y8565307D01*
X10671006Y8404076D02*
X10711006D01*
X10691006Y8384076D02*
Y8424076D01*
X10945606Y9876418D02*
X10985606D01*
X10965606Y9856418D02*
Y9896418D01*
X11914005Y9906859D02*
X11954005D01*
X11934005Y9886859D02*
Y9926858D01*
X12114005Y9906859D02*
X12154005D01*
X12134005Y9886859D02*
Y9926858D01*
X12314005Y9906859D02*
X12354005D01*
X12334005Y9886859D02*
Y9926858D01*
X10830548Y9354921D02*
X10870548D01*
X10850548Y9334921D02*
Y9374921D01*
X10769084Y9874126D02*
X10809084D01*
X10789084Y9854126D02*
Y9894126D01*
X9771758Y9874650D02*
X9811758D01*
X9791758Y9854650D02*
Y9894650D01*
X9971758Y9874650D02*
X10011758D01*
X9991758Y9854650D02*
Y9894650D01*
X10171758Y9874650D02*
X10211758D01*
X10191758Y9854650D02*
Y9894650D01*
X10371758Y9874650D02*
X10411758D01*
X10391758Y9854650D02*
Y9894650D01*
X10571758Y9874650D02*
X10611758D01*
X10591758Y9854650D02*
Y9894650D01*
X11248446Y9307912D02*
X11288446D01*
X11268446Y9287912D02*
Y9327912D01*
X12777361Y9503186D02*
X12817361D01*
X12797361Y9483187D02*
Y9523186D01*
X12877361Y9303186D02*
X12917361D01*
X12897362Y9283186D02*
Y9323186D01*
X12777361Y9103186D02*
X12817361D01*
X12797361Y9083186D02*
Y9123186D01*
X12877361Y8903186D02*
X12917361D01*
X12897362Y8883186D02*
Y8923186D01*
X12777361Y8703186D02*
X12817361D01*
X12797361Y8683186D02*
Y8723186D01*
X12877361Y8503186D02*
X12917361D01*
X12897362Y8483186D02*
Y8523186D01*
X12777361Y7103185D02*
X12817361D01*
X12797361Y7083185D02*
Y7123185D01*
X12877361Y6903185D02*
X12917361D01*
X12897362Y6883185D02*
Y6923185D01*
X12777361Y6703185D02*
X12817361D01*
X12797361Y6683185D02*
Y6723185D01*
X12877361Y6503185D02*
X12917361D01*
X12897362Y6483185D02*
Y6523185D01*
X12777361Y6303185D02*
X12817361D01*
X12797361Y6283185D02*
Y6323185D01*
X12877361Y6103185D02*
X12917361D01*
X12897362Y6083185D02*
Y6123185D01*
X12777361Y5903185D02*
X12817361D01*
X12797361Y5883185D02*
Y5923184D01*
X12877361Y5703184D02*
X12917361D01*
X12897362Y5683184D02*
Y5723184D01*
X12577361Y9503186D02*
X12617361D01*
X12597361Y9483187D02*
Y9523186D01*
X12677361Y9303186D02*
X12717361D01*
X12697361Y9283186D02*
Y9323186D01*
X12577361Y9103186D02*
X12617361D01*
X12597361Y9083186D02*
Y9123186D01*
X12677361Y8903186D02*
X12717361D01*
X12697361Y8883186D02*
Y8923186D01*
X12577361Y8703186D02*
X12617361D01*
X12597361Y8683186D02*
Y8723186D01*
X12677361Y8503186D02*
X12717361D01*
X12697361Y8483186D02*
Y8523186D01*
X12677361Y6903185D02*
X12717361D01*
X12697361Y6883185D02*
Y6923185D01*
X12577361Y6703185D02*
X12617361D01*
X12597361Y6683185D02*
Y6723185D01*
X12677361Y6503185D02*
X12717361D01*
X12697361Y6483185D02*
Y6523185D01*
X12577361Y6303185D02*
X12617361D01*
X12597361Y6283185D02*
Y6323185D01*
X12677361Y6103185D02*
X12717361D01*
X12697361Y6083185D02*
Y6123185D01*
X12577361Y5903185D02*
X12617361D01*
X12597361Y5883185D02*
Y5923184D01*
X12677361Y5703184D02*
X12717361D01*
X12697361Y5683184D02*
Y5723184D01*
X12577361Y5503184D02*
X12617361D01*
X12597361Y5483184D02*
Y5523184D01*
X12577361Y5103184D02*
X12617361D01*
X12597361Y5083184D02*
Y5123184D01*
X12477361Y9703187D02*
X12517361D01*
X12497361Y9683187D02*
Y9723187D01*
X12377361Y9503186D02*
X12417361D01*
X12397361Y9483187D02*
Y9523186D01*
X12477361Y9303186D02*
X12517361D01*
X12497361Y9283186D02*
Y9323186D01*
X12377361Y9103186D02*
X12417361D01*
X12397361Y9083186D02*
Y9123186D01*
X12477361Y8903186D02*
X12517361D01*
X12497361Y8883186D02*
Y8923186D01*
X12377361Y8703186D02*
X12417361D01*
X12397361Y8683186D02*
Y8723186D01*
X12477361Y8503186D02*
X12517361D01*
X12497361Y8483186D02*
Y8523186D01*
X12377361Y8303186D02*
X12417361D01*
X12397361Y8283186D02*
Y8323186D01*
X12377361Y5903185D02*
X12417361D01*
X12397361Y5883185D02*
Y5923184D01*
X12477361Y5703184D02*
X12517361D01*
X12497361Y5683184D02*
Y5723184D01*
X12377361Y5503184D02*
X12417361D01*
X12397361Y5483184D02*
Y5523184D01*
X12477361Y5303184D02*
X12517361D01*
X12497361Y5283184D02*
Y5323184D01*
X12377361Y5103184D02*
X12417361D01*
X12397361Y5083184D02*
Y5123184D01*
X12277361Y9703187D02*
X12317361D01*
X12297361Y9683187D02*
Y9723187D01*
X12277361Y9303186D02*
X12317361D01*
X12297361Y9283186D02*
Y9323186D01*
X12277361Y8503186D02*
X12317361D01*
X12297361Y8483186D02*
Y8523186D01*
X12177361Y8303186D02*
X12217361D01*
X12197361Y8283186D02*
Y8323186D01*
X12277361Y8103186D02*
X12317361D01*
X12297361Y8083186D02*
Y8123186D01*
X12277361Y7703186D02*
X12317361D01*
X12297361Y7683186D02*
Y7723185D01*
X12277361Y5703184D02*
X12317361D01*
X12297361Y5683184D02*
Y5723184D01*
X12177361Y5503184D02*
X12217361D01*
X12197361Y5483184D02*
Y5523184D01*
X12277361Y5303184D02*
X12317361D01*
X12297361Y5283184D02*
Y5323184D01*
X12177361Y5103184D02*
X12217361D01*
X12197361Y5083184D02*
Y5123184D01*
X11977361Y9503186D02*
X12017361D01*
X11997361Y9483187D02*
Y9523186D01*
X11977361Y9103186D02*
X12017361D01*
X11997361Y9083186D02*
Y9123186D01*
X12077361Y8503186D02*
X12117361D01*
X12097361Y8483186D02*
Y8523186D01*
X11977361Y8303186D02*
X12017361D01*
X11997361Y8283186D02*
Y8323186D01*
X12077361Y8103186D02*
X12117361D01*
X12097361Y8083186D02*
Y8123186D01*
X12077361Y7703186D02*
X12117361D01*
X12097361Y7683186D02*
Y7723185D01*
X11977361Y7503185D02*
X12017361D01*
X11997361Y7483185D02*
Y7523185D01*
X12077361Y5703184D02*
X12117361D01*
X12097361Y5683184D02*
Y5723184D01*
X11977361Y5503184D02*
X12017361D01*
X11997361Y5483184D02*
Y5523184D01*
X12077361Y5303184D02*
X12117361D01*
X12097361Y5283184D02*
Y5323184D01*
X11977361Y5103184D02*
X12017361D01*
X11997361Y5083184D02*
Y5123184D01*
X11877361Y8903186D02*
X11917360D01*
X11897361Y8883186D02*
Y8923186D01*
X11877361Y8503186D02*
X11917360D01*
X11897361Y8483186D02*
Y8523186D01*
X11777360Y8303186D02*
X11817360D01*
X11797360Y8283186D02*
Y8323186D01*
X11877361Y8103186D02*
X11917360D01*
X11897361Y8083186D02*
Y8123186D01*
X11877361Y7703186D02*
X11917360D01*
X11897361Y7683186D02*
Y7723185D01*
X11777360Y7503185D02*
X11817360D01*
X11797360Y7483185D02*
Y7523185D01*
X11877361Y7303185D02*
X11917360D01*
X11897361Y7283185D02*
Y7323185D01*
X11877361Y6103185D02*
X11917360D01*
X11897361Y6083185D02*
Y6123185D01*
X11877361Y5703184D02*
X11917360D01*
X11897361Y5683184D02*
Y5723184D01*
X11777360Y5503184D02*
X11817360D01*
X11797360Y5483184D02*
Y5523184D01*
X11877361Y5303184D02*
X11917360D01*
X11897361Y5283184D02*
Y5323184D01*
X11777360Y5103184D02*
X11817360D01*
X11797360Y5083184D02*
Y5123184D01*
X11577360Y8303186D02*
X11617360D01*
X11597360Y8283186D02*
Y8323186D01*
X11677360Y8103186D02*
X11717360D01*
X11697360Y8083186D02*
Y8123186D01*
X11677360Y7703186D02*
X11717360D01*
X11697360Y7683186D02*
Y7723185D01*
X11677360Y7303185D02*
X11717360D01*
X11697360Y7283185D02*
Y7323185D01*
X11677360Y6103185D02*
X11717360D01*
X11697360Y6083185D02*
Y6123185D01*
X11577360Y5503184D02*
X11617360D01*
X11597360Y5483184D02*
Y5523184D01*
X11677360Y5303184D02*
X11717360D01*
X11697360Y5283184D02*
Y5323184D01*
X11577360Y5103184D02*
X11617360D01*
X11597360Y5083184D02*
Y5123184D01*
X11477360Y8503186D02*
X11517360D01*
X11497360Y8483186D02*
Y8523186D01*
X11377360Y7503185D02*
X11417360D01*
X11397360Y7483185D02*
Y7523185D01*
X11477360Y6503185D02*
X11517360D01*
X11497360Y6483185D02*
Y6523185D01*
X11477360Y5303184D02*
X11517360D01*
X11497360Y5283184D02*
Y5323184D01*
X11377360Y5103184D02*
X11417360D01*
X11397360Y5083184D02*
Y5123184D01*
X11177360Y9503186D02*
X11217360D01*
X11197360Y9483187D02*
Y9523186D01*
X11177360Y9103186D02*
X11217360D01*
X11197360Y9083186D02*
Y9123186D01*
X11277360Y8503186D02*
X11317360D01*
X11297360Y8483186D02*
Y8523186D01*
X11277360Y7703186D02*
X11317360D01*
X11297360Y7683186D02*
Y7723185D01*
X11277360Y7303185D02*
X11317360D01*
X11297360Y7283185D02*
Y7323185D01*
X11177360Y7103185D02*
X11217360D01*
X11197360Y7083185D02*
Y7123185D01*
X11277360Y5303184D02*
X11317360D01*
X11297360Y5283184D02*
Y5323184D01*
X11177360Y5103184D02*
X11217360D01*
X11197360Y5083184D02*
Y5123184D01*
X11077360Y9703187D02*
X11117360D01*
X11097360Y9683187D02*
Y9723187D01*
X10977360Y9503186D02*
X11017360D01*
X10997360Y9483187D02*
Y9523186D01*
X11077360Y9303186D02*
X11117360D01*
X11097360Y9283186D02*
Y9323186D01*
X11077360Y8503186D02*
X11117360D01*
X11097360Y8483186D02*
Y8523186D01*
X11077360Y8103186D02*
X11117360D01*
X11097360Y8083186D02*
Y8123186D01*
X11077360Y7703186D02*
X11117360D01*
X11097360Y7683186D02*
Y7723185D01*
X10777360Y9103186D02*
X10817360D01*
X10797360Y9083186D02*
Y9123186D01*
X10877360Y7703186D02*
X10917360D01*
X10897360Y7683186D02*
Y7723185D01*
X10777360Y6703185D02*
X10817360D01*
X10797360Y6683185D02*
Y6723185D01*
X10877360Y5303184D02*
X10917360D01*
X10897360Y5283184D02*
Y5323184D01*
X10677360Y9703187D02*
X10717360D01*
X10697360Y9683187D02*
Y9723187D01*
X10577360Y9503186D02*
X10617360D01*
X10597360Y9483187D02*
Y9523186D01*
X10577360Y6703185D02*
X10617360D01*
X10597360Y6683185D02*
Y6723185D01*
X10677360Y6503185D02*
X10717360D01*
X10697360Y6483185D02*
Y6523185D01*
X10577360Y6303185D02*
X10617360D01*
X10597360Y6283185D02*
Y6323185D01*
X10677360Y6103185D02*
X10717360D01*
X10697360Y6083185D02*
Y6123185D01*
X10577360Y5903185D02*
X10617360D01*
X10597360Y5883185D02*
Y5923184D01*
X10577360Y5503184D02*
X10617360D01*
X10597360Y5483184D02*
Y5523184D01*
X10677360Y5303184D02*
X10717360D01*
X10697360Y5283184D02*
Y5323184D01*
X10477360Y9703187D02*
X10517360D01*
X10497360Y9683187D02*
Y9723187D01*
X10377360Y9503186D02*
X10417360D01*
X10397360Y9483187D02*
Y9523186D01*
X10377360Y6703185D02*
X10417360D01*
X10397360Y6683185D02*
Y6723185D01*
X10477360Y6503185D02*
X10517360D01*
X10497360Y6483185D02*
Y6523185D01*
X10377360Y6303185D02*
X10417360D01*
X10397360Y6283185D02*
Y6323185D01*
X10477360Y6103185D02*
X10517360D01*
X10497360Y6083185D02*
Y6123185D01*
X10377360Y5903185D02*
X10417360D01*
X10397360Y5883185D02*
Y5923184D01*
X10477360Y5703184D02*
X10517360D01*
X10497360Y5683184D02*
Y5723184D01*
X10377360Y5503184D02*
X10417360D01*
X10397360Y5483184D02*
Y5523184D01*
X10477360Y5303184D02*
X10517360D01*
X10497360Y5283184D02*
Y5323184D01*
X10277360Y9703187D02*
X10317360D01*
X10297360Y9683187D02*
Y9723187D01*
X10177360Y9503186D02*
X10217360D01*
X10197360Y9483187D02*
Y9523186D01*
X10277360Y9303186D02*
X10317360D01*
X10297360Y9283186D02*
Y9323186D01*
X10177360Y6703185D02*
X10217360D01*
X10197360Y6683185D02*
Y6723185D01*
X10277360Y6503185D02*
X10317360D01*
X10297360Y6483185D02*
Y6523185D01*
X10177360Y6303185D02*
X10217360D01*
X10197360Y6283185D02*
Y6323185D01*
X10277360Y6103185D02*
X10317360D01*
X10297360Y6083185D02*
Y6123185D01*
X10177360Y5903185D02*
X10217360D01*
X10197360Y5883185D02*
Y5923184D01*
X10277360Y5703184D02*
X10317360D01*
X10297360Y5683184D02*
Y5723184D01*
X10177360Y5503184D02*
X10217360D01*
X10197360Y5483184D02*
Y5523184D01*
X10277360Y5303184D02*
X10317360D01*
X10297360Y5283184D02*
Y5323184D01*
X10077360Y9703187D02*
X10117359D01*
X10097360Y9683187D02*
Y9723187D01*
X10077360Y5303184D02*
X10117359D01*
X10097360Y5283184D02*
Y5323184D01*
X9877359Y9703187D02*
X9917359D01*
X9897359Y9683187D02*
Y9723187D01*
X9877359Y9303186D02*
X9917359D01*
X9897359Y9283186D02*
Y9323186D01*
X9877359Y8503186D02*
X9917359D01*
X9897359Y8483186D02*
Y8523186D01*
X9877359Y7303185D02*
X9917359D01*
X9897359Y7283185D02*
Y7323185D01*
X9877359Y6503185D02*
X9917359D01*
X9897359Y6483185D02*
Y6523185D01*
X9777359Y6303185D02*
X9817359D01*
X9797359Y6283185D02*
Y6323185D01*
X9877359Y6103185D02*
X9917359D01*
X9897359Y6083185D02*
Y6123185D01*
X9777359Y5903185D02*
X9817359D01*
X9797359Y5883185D02*
Y5923184D01*
X9577359Y9503186D02*
X9617359D01*
X9597359Y9483187D02*
Y9523186D01*
X9577359Y8303186D02*
X9617359D01*
X9597359Y8283186D02*
Y8323186D01*
X9577359Y7503185D02*
X9617359D01*
X9597359Y7483185D02*
Y7523185D01*
X9677359Y7303185D02*
X9717359D01*
X9697359Y7283185D02*
Y7323185D01*
X9577359Y7103185D02*
X9617359D01*
X9597359Y7083185D02*
Y7123185D01*
X9377359Y9503186D02*
X9417359D01*
X9397359Y9483187D02*
Y9523186D01*
X9377359Y8703186D02*
X9417359D01*
X9397359Y8683186D02*
Y8723186D01*
X9477359Y8503186D02*
X9517359D01*
X9497359Y8483186D02*
Y8523186D01*
X9377359Y8303186D02*
X9417359D01*
X9397359Y8283186D02*
Y8323186D01*
X9477359Y7303185D02*
X9517359D01*
X9497359Y7283185D02*
Y7323185D01*
X9477359Y6903185D02*
X9517359D01*
X9497359Y6883185D02*
Y6923185D01*
X9377359Y6703185D02*
X9417359D01*
X9397359Y6683185D02*
Y6723185D01*
X9377359Y6303185D02*
X9417359D01*
X9397359Y6283185D02*
Y6323185D01*
X9177359Y8703186D02*
X9217359D01*
X9197359Y8683186D02*
Y8723186D01*
X9177359Y8303186D02*
X9217359D01*
X9197359Y8283186D02*
Y8323186D01*
X9277359Y8103186D02*
X9317359D01*
X9297359Y8083186D02*
Y8123186D01*
X9177359Y7903186D02*
X9217359D01*
X9197359Y7883186D02*
Y7923186D01*
X9277359Y6503185D02*
X9317359D01*
X9297359Y6483185D02*
Y6523185D01*
X9177359Y6303185D02*
X9217359D01*
X9197359Y6283185D02*
Y6323185D01*
X9277359Y6103185D02*
X9317359D01*
X9297359Y6083185D02*
Y6123185D01*
X9177359Y5103184D02*
X9217359D01*
X9197359Y5083184D02*
Y5123184D01*
X8977359Y8303186D02*
X9017359D01*
X8997359Y8283186D02*
Y8323186D01*
X9077359Y8103186D02*
X9117359D01*
X9097359Y8083186D02*
Y8123186D01*
X8977359Y7903186D02*
X9017359D01*
X8997359Y7883186D02*
Y7923186D01*
X9077359Y6503185D02*
X9117359D01*
X9097359Y6483185D02*
Y6523185D01*
X8977359Y6303185D02*
X9017359D01*
X8997359Y6283185D02*
Y6323185D01*
X9077359Y6103185D02*
X9117359D01*
X9097359Y6083185D02*
Y6123185D01*
X8977359Y5903185D02*
X9017359D01*
X8997359Y5883185D02*
Y5923184D01*
X8977359Y5503184D02*
X9017359D01*
X8997359Y5483184D02*
Y5523184D01*
X8977359Y5103184D02*
X9017359D01*
X8997359Y5083184D02*
Y5123184D01*
X8777359Y9503186D02*
X8817359D01*
X8797359Y9483187D02*
Y9523186D01*
X8777359Y9103186D02*
X8817359D01*
X8797359Y9083186D02*
Y9123186D01*
X8777359Y8703186D02*
X8817359D01*
X8797359Y8683186D02*
Y8723186D01*
X8777359Y8303186D02*
X8817359D01*
X8797359Y8283186D02*
Y8323186D01*
X8877359Y8103186D02*
X8917359D01*
X8897359Y8083186D02*
Y8123186D01*
X8777359Y7903186D02*
X8817359D01*
X8797359Y7883186D02*
Y7923186D01*
X8877359Y7703186D02*
X8917359D01*
X8897359Y7683186D02*
Y7723185D01*
X8777359Y7503185D02*
X8817359D01*
X8797359Y7483185D02*
Y7523185D01*
X8777359Y7103185D02*
X8817359D01*
X8797359Y7083185D02*
Y7123185D01*
X8777359Y6703185D02*
X8817359D01*
X8797359Y6683185D02*
Y6723185D01*
X8877359Y6503185D02*
X8917359D01*
X8897359Y6483185D02*
Y6523185D01*
X8777359Y6303185D02*
X8817359D01*
X8797359Y6283185D02*
Y6323185D01*
X8877359Y6103185D02*
X8917359D01*
X8897359Y6083185D02*
Y6123185D01*
X8777359Y5903185D02*
X8817359D01*
X8797359Y5883185D02*
Y5923184D01*
X8877359Y5703184D02*
X8917359D01*
X8897359Y5683184D02*
Y5723184D01*
X8777359Y5503184D02*
X8817359D01*
X8797359Y5483184D02*
Y5523184D01*
X8877359Y5303184D02*
X8917359D01*
X8897359Y5283184D02*
Y5323184D01*
X8777359Y5103184D02*
X8817359D01*
X8797359Y5083184D02*
Y5123184D01*
X8677359Y9703187D02*
X8717359D01*
X8697359Y9683187D02*
Y9723187D01*
X8577359Y9503186D02*
X8617359D01*
X8597359Y9483187D02*
Y9523186D01*
X8677359Y9303186D02*
X8717359D01*
X8697359Y9283186D02*
Y9323186D01*
X8577359Y9103186D02*
X8617359D01*
X8597359Y9083186D02*
Y9123186D01*
X8577359Y8703186D02*
X8617359D01*
X8597359Y8683186D02*
Y8723186D01*
X8677359Y8503186D02*
X8717359D01*
X8697359Y8483186D02*
Y8523186D01*
X8577359Y8303186D02*
X8617359D01*
X8597359Y8283186D02*
Y8323186D01*
X8677359Y8103186D02*
X8717359D01*
X8697359Y8083186D02*
Y8123186D01*
X8577359Y7903186D02*
X8617359D01*
X8597359Y7883186D02*
Y7923186D01*
X8677359Y7703186D02*
X8717359D01*
X8697359Y7683186D02*
Y7723185D01*
X8577359Y7503185D02*
X8617359D01*
X8597359Y7483185D02*
Y7523185D01*
X8677359Y7303185D02*
X8717359D01*
X8697359Y7283185D02*
Y7323185D01*
X8577359Y7103185D02*
X8617359D01*
X8597359Y7083185D02*
Y7123185D01*
X8677359Y6903185D02*
X8717359D01*
X8697359Y6883185D02*
Y6923185D01*
X8577359Y6703185D02*
X8617359D01*
X8597359Y6683185D02*
Y6723185D01*
X8677359Y6503185D02*
X8717359D01*
X8697359Y6483185D02*
Y6523185D01*
X8577359Y6303185D02*
X8617359D01*
X8597359Y6283185D02*
Y6323185D01*
X8677359Y6103185D02*
X8717359D01*
X8697359Y6083185D02*
Y6123185D01*
X8577359Y5903185D02*
X8617359D01*
X8597359Y5883185D02*
Y5923184D01*
X8677359Y5703184D02*
X8717359D01*
X8697359Y5683184D02*
Y5723184D01*
X8577359Y5503184D02*
X8617359D01*
X8597359Y5483184D02*
Y5523184D01*
X8677359Y5303184D02*
X8717359D01*
X8697359Y5283184D02*
Y5323184D01*
X8577359Y5103184D02*
X8617359D01*
X8597359Y5083184D02*
Y5123184D01*
X8477359Y9303186D02*
X8517359D01*
X8497359Y9283186D02*
Y9323186D01*
X8377359Y9103186D02*
X8417359D01*
X8397359Y9083186D02*
Y9123186D01*
X8477359Y8903186D02*
X8517359D01*
X8497359Y8883186D02*
Y8923186D01*
X8377359Y8703186D02*
X8417359D01*
X8397359Y8683186D02*
Y8723186D01*
X8477359Y8503186D02*
X8517359D01*
X8497359Y8483186D02*
Y8523186D01*
X8377359Y8303186D02*
X8417359D01*
X8397359Y8283186D02*
Y8323186D01*
X8477359Y8103186D02*
X8517359D01*
X8497359Y8083186D02*
Y8123186D01*
X8377359Y7903186D02*
X8417359D01*
X8397359Y7883186D02*
Y7923186D01*
X8477359Y7703186D02*
X8517359D01*
X8497359Y7683186D02*
Y7723185D01*
X8377359Y7503185D02*
X8417359D01*
X8397359Y7483185D02*
Y7523185D01*
X8477359Y7303185D02*
X8517359D01*
X8497359Y7283185D02*
Y7323185D01*
X8377359Y7103185D02*
X8417359D01*
X8397359Y7083185D02*
Y7123185D01*
X8477359Y6903185D02*
X8517359D01*
X8497359Y6883185D02*
Y6923185D01*
X8377359Y6703185D02*
X8417359D01*
X8397359Y6683185D02*
Y6723185D01*
X8477359Y6503185D02*
X8517359D01*
X8497359Y6483185D02*
Y6523185D01*
X8377359Y6303185D02*
X8417359D01*
X8397359Y6283185D02*
Y6323185D01*
X8477359Y6103185D02*
X8517359D01*
X8497359Y6083185D02*
Y6123185D01*
X8377359Y5903185D02*
X8417359D01*
X8397359Y5883185D02*
Y5923184D01*
X8477359Y5703184D02*
X8517359D01*
X8497359Y5683184D02*
Y5723184D01*
X8377359Y5503184D02*
X8417359D01*
X8397359Y5483184D02*
Y5523184D01*
X12136915Y6217468D02*
X12166915D01*
X12151915Y6202468D02*
Y6232468D01*
X9761397Y8405532D02*
X9791397D01*
X9776397Y8390532D02*
Y8420532D01*
X9480615Y8848359D02*
X9510615D01*
X9495615Y8833359D02*
Y8863359D01*
X8922234Y8671151D02*
X8952234D01*
X8937234Y8656151D02*
Y8686151D01*
X11095750Y6423305D02*
X11125750D01*
X11110750Y6408305D02*
Y6438305D01*
X10893152Y6939132D02*
X10923152D01*
X10908152Y6924132D02*
Y6954132D01*
X9645111Y9019944D02*
X9675111D01*
X9660111Y9004944D02*
Y9034944D01*
X11322864Y6380616D02*
X11352864D01*
X11337864Y6365616D02*
Y6395616D01*
X9920167Y7978251D02*
X9950167D01*
X9935167Y7963251D02*
Y7993251D01*
X10953009Y8277165D02*
X10983009D01*
X10968009Y8262165D02*
Y8292165D01*
X9853353Y8239441D02*
X9883353D01*
X9868353Y8224441D02*
Y8254441D01*
X9694908Y7541985D02*
X9724908D01*
X9709908Y7526985D02*
Y7556985D01*
X9775000Y7730000D02*
X9805000D01*
X9790000Y7715000D02*
Y7745000D01*
X9199163Y6658316D02*
X9229163D01*
X9214163Y6643316D02*
Y6673316D01*
X9378198Y7141804D02*
X9408198D01*
X9393198Y7126804D02*
Y7156804D01*
X8653811Y8848881D02*
X8683811D01*
X8668811Y8833881D02*
Y8863881D01*
X9014700Y5600700D02*
X9044700D01*
X9029700Y5585700D02*
Y5615700D01*
X12177000Y6832600D02*
X12207000D01*
X12192000Y6817600D02*
Y6847600D01*
X12121892Y6373467D02*
X12151892D01*
X12136892Y6358467D02*
Y6388467D01*
X12497908Y8037044D02*
X12527908D01*
X12512908Y8022044D02*
Y8052044D01*
X11262600Y9715500D02*
X11292600D01*
X11277600Y9700500D02*
Y9730500D01*
X10127008Y9098908D02*
X10157008D01*
X10142008Y9083908D02*
Y9113908D01*
X9497300Y9702800D02*
X9527300D01*
X9512300Y9687800D02*
Y9717800D01*
X9752528Y9368961D02*
X9782528D01*
X9767528Y9353961D02*
Y9383961D01*
X10940226Y7145888D02*
X10970226D01*
X10955226Y7130888D02*
Y7160888D01*
X10725699Y6899716D02*
X10755699D01*
X10740699Y6884716D02*
Y6914716D01*
X10086642Y8316621D02*
X10116642D01*
X10101642Y8301621D02*
Y8331621D01*
X10026529Y8643378D02*
X10056529D01*
X10041529Y8628378D02*
Y8658378D01*
X12374794Y6737657D02*
X12404794D01*
X12389794Y6722657D02*
Y6752657D01*
X12122757Y6588375D02*
X12152757D01*
X12137757Y6573375D02*
Y6603375D01*
X11633800Y9923101D02*
X11663800D01*
X11648800Y9908101D02*
Y9938101D01*
X12199320Y9442271D02*
X12229319D01*
X12214319Y9427271D02*
Y9457271D01*
X10625060Y8963660D02*
X10655060D01*
X10640060Y8948660D02*
Y8978660D01*
X10015460Y8823960D02*
X10045460D01*
X10030460Y8808960D02*
Y8838960D01*
X8835000Y9890000D02*
X8865000D01*
X8850000Y9875000D02*
Y9905000D01*
X9040000Y9350000D02*
X9060000D01*
X9050000Y9340000D02*
Y9360000D01*
X9150000Y9350000D02*
X9170000D01*
X9160000Y9340000D02*
Y9360000D01*
X9150000Y9240000D02*
X9170000D01*
X9160000Y9230000D02*
Y9250000D01*
X9040000Y9240000D02*
X9060000D01*
X9050000Y9230000D02*
Y9250000D01*
X10593642Y7560005D02*
X10613642D01*
X10603642Y7550005D02*
Y7570005D01*
X10483642Y7560005D02*
X10503642D01*
X10493642Y7550005D02*
Y7570005D01*
X10373642Y7560005D02*
X10393642D01*
X10383642Y7550005D02*
Y7570005D01*
X10263642Y7560005D02*
X10283642D01*
X10273642Y7550005D02*
Y7570005D01*
X10153642Y7560005D02*
X10173642D01*
X10163642Y7550005D02*
Y7570005D01*
X10593642Y7670005D02*
X10613642D01*
X10603642Y7660005D02*
Y7680005D01*
X10483642Y7670005D02*
X10503642D01*
X10493642Y7660005D02*
Y7680005D01*
X10373642Y7670005D02*
X10393642D01*
X10383642Y7660005D02*
Y7680005D01*
X10263642Y7670005D02*
X10283642D01*
X10273642Y7660005D02*
Y7680005D01*
X10153642Y7670005D02*
X10173642D01*
X10163642Y7660005D02*
Y7680005D01*
X10593642Y7780005D02*
X10613642D01*
X10603642Y7770005D02*
Y7790005D01*
X10483642Y7780005D02*
X10503642D01*
X10493642Y7770005D02*
Y7790005D01*
X10373642Y7780005D02*
X10393642D01*
X10383642Y7770005D02*
Y7790005D01*
X10263642Y7780005D02*
X10283642D01*
X10273642Y7770005D02*
Y7790005D01*
X10153642Y7780005D02*
X10173642D01*
X10163642Y7770005D02*
Y7790005D01*
X10593642Y7890005D02*
X10613642D01*
X10603642Y7880005D02*
Y7900005D01*
X10483642Y7890005D02*
X10503642D01*
X10493642Y7880005D02*
Y7900005D01*
X10373642Y7890005D02*
X10393642D01*
X10383642Y7880005D02*
Y7900005D01*
X10263642Y7890005D02*
X10283642D01*
X10273642Y7880005D02*
Y7900005D01*
X10153642Y7890005D02*
X10173642D01*
X10163642Y7880005D02*
Y7900005D01*
X10593642Y8000005D02*
X10613642D01*
X10603642Y7990005D02*
Y8010005D01*
X10483642Y8000005D02*
X10503642D01*
X10493642Y7990005D02*
Y8010005D01*
X10373642Y8000005D02*
X10393642D01*
X10383642Y7990005D02*
Y8010005D01*
X10263642Y8000005D02*
X10283642D01*
X10273642Y7990005D02*
Y8010005D01*
X10153642Y8000005D02*
X10173642D01*
X10163642Y7990005D02*
Y8010005D01*
%TF.MD5,0256d45d792b979dd774f235489be9b9*%
M02*
