%TF.GenerationSoftware,Altium Limited,Altium Designer,23.5.1 (21)*%
G04 Layer_Physical_Order=1*
G04 Layer_Color=255*
%FSLAX45Y45*%
%MOMM*%
%TF.SameCoordinates,D1A1A69A-B0F0-4312-96CC-35C0D177272F*%
%TF.FilePolarity,Positive*%
%TF.FileFunction,Copper,L1,Top,Signal*%
%TF.Part,Single*%
G01*
G75*
%TA.AperFunction,SMDPad,CuDef*%
%ADD10R,1.25000X1.25000*%
%ADD11R,3.18213X1.25000*%
%ADD12R,1.00000X2.80000*%
%ADD13R,0.60000X1.70000*%
%ADD14R,2.60000X0.75000*%
%ADD15R,0.86213X0.66370*%
%TA.AperFunction,ConnectorPad*%
%ADD16R,1.38000X0.45000*%
%ADD17R,1.55000X1.42500*%
%ADD18R,1.90000X1.00000*%
%ADD19R,1.90000X1.80000*%
%ADD20R,1.30000X1.65000*%
%TA.AperFunction,BGAPad,CuDef*%
%ADD21C,0.78700*%
%TA.AperFunction,SMDPad,CuDef*%
%ADD22R,0.75000X2.60000*%
%ADD23R,0.45000X0.45000*%
%ADD24R,0.52000X0.52000*%
%ADD25R,1.40000X1.20000*%
%ADD26R,0.93108X0.81213*%
%ADD27R,0.90000X1.35000*%
%ADD28R,2.70000X2.60000*%
%ADD29R,0.80000X0.35000*%
%ADD30R,0.35000X0.85000*%
%ADD31R,1.45620X1.30464*%
%ADD32R,5.60000X5.60000*%
%ADD33O,0.25000X0.80000*%
%ADD34O,0.80000X0.25000*%
%ADD35R,0.52000X0.52000*%
%ADD36R,1.75395X1.80620*%
%ADD37R,0.84000X0.93000*%
%ADD38R,1.80620X1.75395*%
%ADD39R,0.80000X0.80000*%
%ADD40R,1.35000X1.55000*%
%ADD41R,0.66370X0.86213*%
%ADD42R,0.60000X0.80000*%
%ADD43R,1.30464X1.45620*%
%ADD44R,0.95000X1.05000*%
%ADD45R,1.15000X1.35000*%
%TA.AperFunction,Conductor*%
%ADD46C,0.40000*%
%ADD47C,0.25000*%
%ADD48C,0.50000*%
%ADD49C,0.75000*%
%ADD50C,0.30000*%
%ADD51C,1.00000*%
%ADD52C,0.26017*%
%TA.AperFunction,ViaPad*%
%ADD53C,1.15200*%
%ADD54C,3.00000*%
%TA.AperFunction,ComponentPad*%
%ADD55C,0.99100*%
%TA.AperFunction,ViaPad*%
%ADD56C,0.80000*%
%ADD57C,0.60000*%
%ADD58C,0.70000*%
%ADD59C,0.50000*%
G36*
X12636000Y7807959D02*
Y7802500D01*
X12797056D01*
Y7744980D01*
X12794577Y7742500D01*
X12636000D01*
Y7731229D01*
X12565380Y7660609D01*
Y7134860D01*
X12486640Y7056120D01*
X12201362D01*
X12193718Y7048475D01*
X12102888D01*
X12094048Y7057314D01*
Y7057394D01*
X12091667Y7059776D01*
Y7060370D01*
X12091336Y7074544D01*
Y7161162D01*
X12090443Y7162055D01*
Y7166520D01*
X12105623Y7181700D01*
Y7399002D01*
X12514585Y7807965D01*
X12636000Y7807959D01*
D02*
G37*
G36*
X12048245Y7169226D02*
Y7065396D01*
X12015798Y7032949D01*
X11980106D01*
X11907100Y6959943D01*
X11905478D01*
X11882120Y6936585D01*
Y6725920D01*
X11788140Y6631940D01*
Y6347460D01*
X11762740Y6322060D01*
X11678920D01*
X11658600Y6342380D01*
Y6537960D01*
X11623040Y6573520D01*
X11059160D01*
Y6570980D01*
X10967367Y6479187D01*
Y6188298D01*
X10944642Y6165572D01*
X10819654D01*
X10800080Y6185146D01*
Y6616700D01*
X11056620Y6873240D01*
X11521440D01*
X11812560Y7164360D01*
X11916835D01*
X11936302Y7183827D01*
X12033644D01*
X12048245Y7169226D01*
D02*
G37*
G36*
X12082512Y7045970D02*
X12082568Y7045834D01*
X12091407Y7036995D01*
X12102888Y7032239D01*
X12193718D01*
X12205198Y7036995D01*
X12208088Y7039884D01*
X12478982D01*
Y6862353D01*
X12478073Y6860199D01*
Y6750376D01*
X12422084Y6694388D01*
X12320325D01*
X12315784Y6689847D01*
Y6391833D01*
X12240697Y6316746D01*
Y6142179D01*
X12043912D01*
X12018952Y6167139D01*
X11528177D01*
X11476142Y6219173D01*
X11205715D01*
Y6313948D01*
X11200960Y6325428D01*
X11195504Y6330884D01*
Y6471720D01*
X11194416Y6474346D01*
X11202961Y6482891D01*
X11320039D01*
X11321221Y6484074D01*
X11373256Y6432039D01*
X11419376D01*
X11526992Y6324424D01*
X11647341Y6323157D01*
X11648438Y6322060D01*
X11655959D01*
X11667439Y6310579D01*
X11678920Y6305824D01*
X11762740D01*
X11774221Y6310579D01*
X11785701Y6322060D01*
X11877042D01*
X11899510Y6344529D01*
Y6674989D01*
X11883155Y6691281D01*
X11883142Y6703981D01*
X11893601Y6714439D01*
X11898356Y6725920D01*
Y6929859D01*
X11915812Y6947315D01*
X11918581Y6948462D01*
X11986831Y7016713D01*
X12015798D01*
X12027279Y7021468D01*
X12052800Y7046990D01*
X12081492D01*
X12082512Y7045970D01*
D02*
G37*
G36*
X11179268Y6471720D02*
Y6324159D01*
X11189479Y6313948D01*
Y6183353D01*
X11264270Y6108563D01*
X11487273D01*
X11634456Y5961380D01*
X12029440D01*
X12042140Y5948680D01*
Y5932178D01*
X12009927D01*
X11998221Y5929850D01*
X11988298Y5923219D01*
X11981667Y5913296D01*
X11979339Y5901590D01*
X11981667Y5889885D01*
X11988298Y5879962D01*
X11998221Y5873331D01*
X12009927Y5871003D01*
X12042140D01*
Y5857240D01*
X12026900Y5842000D01*
Y5839460D01*
X11839460D01*
X11500511Y5500511D01*
X11175561D01*
Y5590500D01*
X11173327Y5607469D01*
X11166777Y5623281D01*
X11156358Y5636858D01*
X11142780Y5647277D01*
X11126968Y5653827D01*
X11110000Y5656061D01*
X11093031Y5653827D01*
X11077219Y5647277D01*
X11063642Y5636858D01*
X11053223Y5623281D01*
X11046673Y5607469D01*
X11044439Y5590500D01*
Y5500511D01*
X10869240D01*
X10868163Y5501587D01*
X10773025Y5500341D01*
X10726079Y5547287D01*
Y5641422D01*
Y5858441D01*
X11043920Y6176283D01*
X11035775Y6184428D01*
X11036312Y6184966D01*
Y6311798D01*
X11048673Y6324159D01*
X11047804Y6325028D01*
Y6470358D01*
X11062387Y6484941D01*
X11166047D01*
X11179268Y6471720D01*
D02*
G37*
D10*
X11339000Y6249500D02*
D03*
X11110000D02*
D03*
X10881000D02*
D03*
D11*
X11110000Y5590500D02*
D03*
D12*
X9168118Y5604252D02*
D03*
X9913118D02*
D03*
D13*
X9728118Y5269252D02*
D03*
X9603118D02*
D03*
X9478118D02*
D03*
X9353118D02*
D03*
D14*
X11890000Y5897500D02*
D03*
Y6202500D02*
D03*
D15*
X10180000Y8520000D02*
D03*
Y8645877D02*
D03*
D16*
X12720000Y8035000D02*
D03*
Y7970000D02*
D03*
Y7905000D02*
D03*
Y7840000D02*
D03*
Y7775000D02*
D03*
D17*
X12728500Y8153750D02*
D03*
Y7656250D02*
D03*
D18*
X12986000Y8060000D02*
D03*
D19*
Y7790000D02*
D03*
D20*
Y8242500D02*
D03*
Y7567500D02*
D03*
D21*
X11757000Y9197000D02*
D03*
Y9070000D02*
D03*
X11630000Y9197000D02*
D03*
Y9070000D02*
D03*
X11503000Y9197000D02*
D03*
Y9070000D02*
D03*
D22*
X11725969Y6479999D02*
D03*
X12030969D02*
D03*
D23*
X10231355Y8829606D02*
D03*
X10311356D02*
D03*
X10527125Y8831057D02*
D03*
X10447125D02*
D03*
D24*
X9850000Y7630000D02*
D03*
Y7550000D02*
D03*
X9818019Y7975680D02*
D03*
Y8055680D02*
D03*
X10660000Y7230000D02*
D03*
X10970000Y8120000D02*
D03*
Y8040000D02*
D03*
D25*
X8990000Y7000000D02*
D03*
Y6830000D02*
D03*
X9210000D02*
D03*
Y7000000D02*
D03*
D26*
X9180000Y7250000D02*
D03*
X9288105D02*
D03*
X9020000D02*
D03*
X8911895D02*
D03*
D27*
X9165000Y7450000D02*
D03*
X9320000D02*
D03*
D28*
X9105000Y9295000D02*
D03*
D29*
X9305000Y9170000D02*
D03*
Y9220000D02*
D03*
Y9270000D02*
D03*
Y9320000D02*
D03*
Y9370000D02*
D03*
Y9420000D02*
D03*
X8905000Y9170000D02*
D03*
Y9220000D02*
D03*
Y9270000D02*
D03*
Y9320000D02*
D03*
Y9370000D02*
D03*
Y9420000D02*
D03*
D30*
X9230000Y9492500D02*
D03*
X9180000D02*
D03*
X9130000D02*
D03*
X9080000D02*
D03*
X9030000D02*
D03*
X8980000D02*
D03*
X9230000Y9097500D02*
D03*
X9180000D02*
D03*
X9130000D02*
D03*
X9080000D02*
D03*
X9030000D02*
D03*
X8980000D02*
D03*
D31*
X9580000Y9370000D02*
D03*
Y9208844D02*
D03*
D32*
X10383642Y7780005D02*
D03*
D33*
X10108642Y8120005D02*
D03*
X10158642D02*
D03*
X10208642D02*
D03*
X10258642D02*
D03*
X10308642D02*
D03*
X10358642D02*
D03*
X10408642D02*
D03*
X10458642D02*
D03*
X10508642D02*
D03*
X10558642D02*
D03*
X10608642D02*
D03*
X10658642D02*
D03*
Y7440005D02*
D03*
X10608642D02*
D03*
X10558642D02*
D03*
X10508642D02*
D03*
X10458642D02*
D03*
X10408642D02*
D03*
X10358642D02*
D03*
X10308642D02*
D03*
X10258642D02*
D03*
X10208642D02*
D03*
X10158642D02*
D03*
X10108642D02*
D03*
D34*
X10723642Y8055005D02*
D03*
Y8005005D02*
D03*
Y7955005D02*
D03*
Y7905005D02*
D03*
Y7855005D02*
D03*
Y7805005D02*
D03*
Y7755005D02*
D03*
Y7705005D02*
D03*
Y7655005D02*
D03*
Y7605005D02*
D03*
Y7555005D02*
D03*
Y7505005D02*
D03*
X10043642D02*
D03*
Y7555005D02*
D03*
Y7605005D02*
D03*
Y7655005D02*
D03*
Y7705005D02*
D03*
Y7755005D02*
D03*
Y7805005D02*
D03*
Y7855005D02*
D03*
Y7905005D02*
D03*
Y7955005D02*
D03*
Y8005005D02*
D03*
Y8055005D02*
D03*
D35*
X10004935Y8353065D02*
D03*
X9924935D02*
D03*
X10580000Y7230000D02*
D03*
D36*
X12008469Y6840000D02*
D03*
X11773244D02*
D03*
X10342387Y6900000D02*
D03*
X10577612D02*
D03*
D37*
X12143877Y7108433D02*
D03*
X11984877D02*
D03*
D38*
X12390000Y6922387D02*
D03*
Y7157612D02*
D03*
X9536632Y8088571D02*
D03*
Y7853346D02*
D03*
D39*
X12318469Y6170000D02*
D03*
X12468469D02*
D03*
D40*
X12488469Y6500000D02*
D03*
X12293469D02*
D03*
X11150000Y7300000D02*
D03*
X10955000D02*
D03*
D41*
X11823700Y9728200D02*
D03*
X11949577D02*
D03*
D42*
X10955907Y7557661D02*
D03*
X11100907D02*
D03*
D43*
X11610734Y9718200D02*
D03*
X11449577D02*
D03*
X9170000Y8850000D02*
D03*
X9331156D02*
D03*
D44*
X8940800Y8851900D02*
D03*
X8795800D02*
D03*
D45*
X9375000Y9700000D02*
D03*
X9230000D02*
D03*
D46*
X9776397Y8405532D02*
X9781809D01*
X9834276Y8353065D01*
X9922265D01*
X9455972Y9206279D02*
X9581724D01*
X9590143D01*
X9581724D02*
Y9207119D01*
Y9103743D02*
Y9206279D01*
X8939017Y8672934D02*
Y8850117D01*
X8940800Y8851900D01*
X8937234Y8671151D02*
X8939017Y8672934D01*
X8939347Y8853353D02*
X8940800Y8851900D01*
X9581724Y9103743D02*
X9660111Y9025356D01*
X9580000Y9208844D02*
X9587578D01*
X9660111Y9019944D02*
Y9025356D01*
X10969004Y8120996D02*
Y8276169D01*
X9846939Y7546938D02*
X9850000Y7550000D01*
X9720273Y7546938D02*
X9846939D01*
X9715320Y7541985D02*
X9720273Y7546938D01*
X9709908Y7541985D02*
X9715320D01*
X9818019Y8055680D02*
Y8183696D01*
X9868353Y8234029D01*
Y8239441D01*
X9314659Y7223446D02*
X9385674Y7152431D01*
X9294052Y7250000D02*
X9314659Y7229393D01*
Y7223446D02*
Y7229393D01*
X9288105Y7250000D02*
X9294052D01*
X10904325Y6942958D02*
X10908152Y6939132D01*
X10036106Y8829606D02*
X10146394D01*
X12718978Y8036022D02*
X12720000Y8035000D01*
X12513930Y8036022D02*
X12718978D01*
X12512908Y8037044D02*
X12513930Y8036022D01*
X11440000Y9715500D02*
Y9760000D01*
Y9480000D02*
Y9715500D01*
X11446877D01*
X11449577Y9718200D01*
X10004935Y8353065D02*
X10010935Y8347065D01*
X10065786D01*
X10096230Y8316621D02*
X10101642D01*
X10065786Y8347065D02*
X10096230Y8316621D01*
X8939347Y8926630D02*
X9030535Y9017818D01*
X8939347Y8853353D02*
Y8926630D01*
X9030535Y9017818D02*
Y9028443D01*
X9416791Y9167098D02*
X9455972Y9206279D01*
X11949577Y9619577D02*
Y9728200D01*
X11875141Y9545141D02*
X11949577Y9619577D01*
X11949872Y9727905D02*
X12109712D01*
X12217540Y9620077D01*
X12214319Y9442271D02*
X12217540Y9445491D01*
Y9620077D01*
X10146394Y8829862D02*
X10231099D01*
X11501834Y9232079D02*
Y9418166D01*
X11440000Y9480000D02*
X11501834Y9418166D01*
X8911895Y7170594D02*
X8998602Y7083888D01*
X8911895Y7170594D02*
Y7250000D01*
X8998602Y7008602D02*
Y7083888D01*
X11875141Y9307414D02*
Y9545141D01*
X11785730Y9218004D02*
X11875141Y9307414D01*
X9953718Y7573431D02*
Y7630484D01*
X9974701Y7651467D01*
X9850000Y7630000D02*
X9926467Y7706467D01*
X9975569D01*
X9930287Y7550000D02*
X9953718Y7573431D01*
X9850000Y7550000D02*
X9930287D01*
X12470000Y6171531D02*
Y6320000D01*
X12488469Y6338469D01*
Y6500000D01*
X9818294Y8055405D02*
X9972623D01*
X9785128Y8088571D02*
X9818019Y8055680D01*
X9536632Y8088571D02*
X9785128D01*
D47*
X10097252Y8092505D02*
X10108642D01*
X10071142Y8055005D02*
Y8066396D01*
X9790000Y7730000D02*
X9799471D01*
X9824476Y7755005D02*
X10043642D01*
X9799471Y7730000D02*
X9824476Y7755005D01*
X9477500Y6694150D02*
X10158642Y7375292D01*
X9477500Y5265394D02*
Y6694150D01*
X9599299Y5269252D02*
Y6678368D01*
X10208642Y7287711D01*
X9727500Y6679930D02*
X10258642Y7211073D01*
X9727500Y5269252D02*
Y6679930D01*
X10034990Y5512500D02*
X10049635Y5527145D01*
Y6903497D02*
X10308642Y7162504D01*
X10158642Y7375292D02*
Y7440005D01*
X10049635Y5527145D02*
Y6903497D01*
X10208642Y7287711D02*
Y7440005D01*
X9163552Y7646541D02*
X9563127D01*
X9581985Y7606541D02*
X9780176Y7804732D01*
X9563127Y7646541D02*
X9771591Y7855005D01*
X9498263Y7606541D02*
X9581985D01*
X10108519Y8147629D02*
Y8195152D01*
X10108642Y8120129D02*
Y8147505D01*
X10108519Y8147629D02*
X10108642Y8147505D01*
Y8092505D02*
Y8120005D01*
X10016142Y8055005D02*
X10043242D01*
X10043642D02*
X10071142D01*
Y8066396D02*
X10097252Y8092505D01*
X10608642Y8005005D02*
X10723642D01*
X10603642Y8000005D02*
X10608642Y8005005D01*
X10723642Y7955005D02*
X11028741D01*
X11028933Y7954814D02*
X11100026D01*
X11756984Y8611772D01*
Y9038195D01*
X11028741Y7955005D02*
X11028933Y7954814D01*
X10142008Y9098908D02*
X10311356Y8929560D01*
X10308642Y7162504D02*
Y7440005D01*
X9912500Y5512500D02*
X10034990D01*
X9405474Y9097500D02*
X10258642Y8244331D01*
Y8120005D02*
Y8244331D01*
X9230000Y9097500D02*
X9405474D01*
X10180000Y8387732D02*
X10308642Y8259089D01*
Y8120005D02*
Y8259089D01*
X10180000Y8387732D02*
Y8520000D01*
X9306483Y9168517D02*
X9373629D01*
X10158642Y8005005D02*
Y8120005D01*
Y8005005D02*
X10163642Y8000005D01*
X10158296Y8147852D02*
X10158642Y8147505D01*
Y8120352D02*
Y8147505D01*
X10043642Y7705005D02*
X10128642D01*
X10163642Y7670005D01*
X10608642Y7440005D02*
Y7555005D01*
X10603642Y7560005D02*
X10608642Y7555005D01*
X10723642D02*
X10953251D01*
X10955907Y7557661D01*
X9160000Y9240000D02*
X9180000Y9220000D01*
Y9097500D02*
Y9220000D01*
X11198764Y8753862D02*
X11477869D01*
X11060000Y8910000D02*
X11410000D01*
X10558642Y8408642D02*
X11060000Y8910000D01*
X10658642Y8213740D02*
X11198764Y8753862D01*
X11477869D02*
X11630637Y8906630D01*
X11410000Y8910000D02*
X11470000Y8970000D01*
X10558642Y8120005D02*
Y8408642D01*
X10311356Y8829606D02*
Y8929560D01*
X9020000Y7502989D02*
X9163552Y7646541D01*
X8990000Y7000000D02*
X8998602Y7008602D01*
X9020000Y7138891D02*
Y7250000D01*
Y7138891D02*
X9087500Y7071391D01*
Y6917500D02*
Y7071391D01*
X9000000Y6830000D02*
X9087500Y6917500D01*
X8990000Y6830000D02*
X9000000D01*
X9020000Y7250000D02*
Y7502989D01*
X11630637Y8906630D02*
Y9030922D01*
X8850000Y9730000D02*
Y9890000D01*
X8980000Y9492500D02*
Y9600000D01*
X8850000Y9730000D02*
X8980000Y9600000D01*
X10446559Y8237327D02*
Y8830491D01*
X10311356Y8365192D02*
Y8829606D01*
Y8365192D02*
X10357758Y8318790D01*
Y8148389D02*
Y8318790D01*
X10408642Y8199411D02*
X10446559Y8237327D01*
X10408642Y8120005D02*
Y8199411D01*
X10357758Y8148389D02*
X10358642Y8147505D01*
Y8120005D02*
Y8147505D01*
X11505359Y9005359D02*
Y9041090D01*
X11470000Y8970000D02*
X11505359Y9005359D01*
X11470000Y8970000D02*
Y8970000D01*
X10658642Y8120005D02*
Y8213740D01*
X10258642Y7211073D02*
Y7440005D01*
X9977030Y7705005D02*
X10043342D01*
X9975569Y7706467D02*
X9977030Y7705005D01*
X9978240Y7655005D02*
X10043141D01*
X9974701Y7651467D02*
X9978240Y7655005D01*
X9780176Y7804732D02*
X9896454D01*
X9896727Y7805005D01*
X9464327Y7572605D02*
X9498263Y7606541D01*
X9324870Y7540355D02*
X9357120Y7572605D01*
X9320000Y7450000D02*
X9324870Y7454870D01*
Y7540355D01*
X9357120Y7572605D02*
X9464327D01*
X9771591Y7855005D02*
X10043642D01*
X9896727Y7805005D02*
X10043642D01*
X10723682Y8005005D02*
X10751142D01*
X10751182Y8005045D01*
X10787676D01*
X10723642Y8055005D02*
X10786209D01*
X10558273Y7412136D02*
X10558642Y7412505D01*
Y7439636D01*
X10558273Y7373596D02*
Y7412136D01*
X10608642Y7412505D02*
Y7439782D01*
X10658642Y7412505D02*
X10658778Y7412370D01*
X10608642Y7412505D02*
X10608866Y7412282D01*
Y7378062D02*
Y7412282D01*
X10658778Y7379197D02*
Y7412370D01*
X10658642Y7412505D02*
Y7439870D01*
X10015742Y8055405D02*
X10016142Y8055005D01*
X9972623Y8055405D02*
X10015742D01*
D48*
X9331977Y8849179D02*
X9494795D01*
X9495615Y8848359D01*
X9331156Y8850000D02*
X9331977Y8849179D01*
X9818118Y7975778D02*
X9819019Y7976680D01*
X9933596D02*
X9935167Y7978251D01*
X9818118Y7975581D02*
Y7975778D01*
X9819019Y7976680D02*
X9933596D01*
X9212250Y6660230D02*
X9214163Y6658316D01*
X9212250Y6660230D02*
Y6826318D01*
X9212966Y6827034D01*
X9221843Y7862364D02*
X9527614D01*
X8911895Y7552416D02*
X9221843Y7862364D01*
X8794291Y8850390D02*
X8795800Y8851900D01*
X8668811Y8848881D02*
X8670320Y8850390D01*
X8794291D01*
X9035958Y5604252D02*
X9168118D01*
X9032406Y5600700D02*
X9035958Y5604252D01*
X9029700Y5600700D02*
X9032406D01*
X9354263Y5149332D02*
X9407870Y5095725D01*
X9551735D01*
X9353118Y5269252D02*
X9354263Y5268107D01*
Y5149332D02*
Y5268107D01*
X10660000Y7230000D02*
X10718390D01*
X10904325Y7044065D01*
Y6945665D02*
Y7044065D01*
X11277600Y9715500D02*
X11440000D01*
X9580000Y9370000D02*
X9580519Y9369481D01*
X9767009D01*
X9767528Y9368961D01*
X9375000Y9700000D02*
X9376400Y9701400D01*
X9510900D01*
X9512300Y9702800D01*
X10955000Y7300000D02*
X10955113Y7299887D01*
Y7146001D02*
Y7299887D01*
Y7146001D02*
X10955226Y7145888D01*
X10576827Y6898639D02*
X10577904Y6899716D01*
X10740699D01*
X10178750Y8644628D02*
X10180000Y8645877D01*
X10042779Y8644628D02*
X10178750D01*
X10041529Y8643378D02*
X10042779Y8644628D01*
X10576540Y6898927D02*
X10576827Y6898639D01*
X10580000Y6902388D02*
Y7230000D01*
X9527614Y7862364D02*
X9536632Y7853346D01*
X8911895Y7250000D02*
Y7552416D01*
X9536632Y7853346D02*
X9695686D01*
X9818019Y7975680D01*
X11150000Y7300000D02*
Y7498568D01*
X11100907Y7547661D02*
X11150000Y7498568D01*
X11100907Y7547661D02*
Y7557661D01*
X12468469Y6170000D02*
X12470000Y6171531D01*
D49*
X9583960Y9212804D02*
X9789130D01*
X9553335Y5097325D02*
X9759556D01*
X9789130Y9212804D02*
X10028958Y8972975D01*
Y8825462D02*
Y8972975D01*
D50*
X10969004Y8120996D02*
X10970000Y8120000D01*
X10968009Y8277165D02*
X10969004Y8276169D01*
X9984122Y8229231D02*
X10074440D01*
X10108519Y8195152D01*
X10342387Y7136145D02*
X10558273Y7352031D01*
X10342387Y6900000D02*
Y7136145D01*
X9030535Y9028443D02*
Y9096965D01*
X9375049Y9167098D02*
X9416791D01*
X9924935Y8288418D02*
X9984122Y8229231D01*
X9924935Y8288418D02*
Y8353065D01*
X9050000Y9240000D02*
X9080000Y9210000D01*
X9302500Y9417500D02*
X9305000Y9420000D01*
X9232500Y9417500D02*
X9302500D01*
X9165000Y9350000D02*
X9232500Y9417500D01*
X9160000Y9350000D02*
X9165000D01*
X8905000Y9420000D02*
X8907500Y9417500D01*
X8957426D01*
X8964926Y9410000D01*
X8990000D01*
X9050000Y9350000D01*
X9080000Y9097500D02*
Y9210000D01*
X11600000Y9560000D02*
Y9758844D01*
X11608635Y9883889D02*
X11647411Y9922665D01*
X11608635Y9720299D02*
Y9883889D01*
Y9720299D02*
X11610734Y9718200D01*
X11620734Y9728200D02*
X11823700D01*
X11612649Y9720115D02*
X11620734Y9728200D01*
X11609577Y9717044D02*
X11610734Y9718200D01*
X10527125Y8831057D02*
X10580810Y8884742D01*
Y8904410D01*
X10640060Y8963660D01*
X12254130Y5901590D02*
X12318469Y5965929D01*
X12009927Y5901590D02*
X12254130D01*
X12318469Y5965929D02*
Y6170000D01*
X11630000Y9228478D02*
Y9530000D01*
X9522661Y9930000D02*
X10447125Y9005536D01*
Y8831057D02*
Y9005536D01*
X9121224Y9930000D02*
X9522661D01*
X9182552Y7162117D02*
Y7250000D01*
Y7162117D02*
X9216388Y7128281D01*
Y7006388D02*
Y7128281D01*
X9210000Y7000000D02*
X9216388Y7006388D01*
X9180000Y7250000D02*
Y7337488D01*
X9162414Y7355074D02*
X9180000Y7337488D01*
X9162414Y7355074D02*
Y7447414D01*
X9165000Y7450000D01*
X11600000Y9560000D02*
X11630000Y9530000D01*
X9576949Y9366949D02*
X9580000Y9370000D01*
X9132500Y9028934D02*
X9170000Y8991434D01*
X9132500Y9028934D02*
Y9095000D01*
X9170000Y8850000D02*
Y8991434D01*
X9130000Y9097500D02*
X9132500Y9095000D01*
X9180000Y9097500D02*
X9182500Y9095000D01*
X9030000Y9838776D02*
X9121224Y9930000D01*
X9030000Y9492500D02*
Y9838776D01*
X9179784Y9492716D02*
X9180000Y9492500D01*
X9179784Y9556356D02*
X9228502Y9605074D01*
X9179784Y9492716D02*
Y9556356D01*
X9228502Y9605074D02*
Y9698502D01*
X9230000Y9700000D01*
X10875045Y8005045D02*
X10908719Y8038719D01*
X10787676Y8005045D02*
X10875045D01*
X10786538Y8054676D02*
X10847296D01*
X10912620Y8120000D01*
X10970000D01*
X10908719Y8038719D02*
X10968719D01*
X10558273Y7352031D02*
Y7373596D01*
X10608866Y7329865D02*
Y7378062D01*
X10580000Y7230000D02*
Y7301000D01*
X10658778Y7231222D02*
Y7376395D01*
X10580000Y7301000D02*
X10608866Y7329865D01*
D51*
X11025317Y5100317D02*
X11110000Y5185000D01*
X9762548Y5100317D02*
X11025317D01*
X11110000Y5185000D02*
Y5590500D01*
D52*
X11749451Y7895669D02*
X12710669D01*
X12720000Y7905000D01*
X12710668Y7849332D02*
X12720000Y7840000D01*
X11740040Y7905079D02*
X11749451Y7895669D01*
X11724788Y7854802D02*
X11730258Y7849332D01*
X12710668D01*
X10723846Y7854802D02*
X11724788D01*
X10723642Y7905005D02*
X10723716Y7905079D01*
X11740040D01*
X10723642Y7855005D02*
X10723846Y7854802D01*
D53*
X12800000Y5550000D02*
D03*
X8400000Y9425000D02*
D03*
D54*
Y5200000D02*
D03*
Y9800000D02*
D03*
X12800000D02*
D03*
Y5200000D02*
D03*
D55*
X11884000Y9133500D02*
D03*
X11376000Y9031900D02*
D03*
Y9235100D02*
D03*
D56*
X11971730Y9281201D02*
D03*
X10770295Y8785651D02*
D03*
X10574552Y8602296D02*
D03*
X10849584Y8545307D02*
D03*
X10691006Y8404076D02*
D03*
X10965606Y9876418D02*
D03*
X11934005Y9906859D02*
D03*
X12134005D02*
D03*
X12334005D02*
D03*
X10850548Y9354921D02*
D03*
X10789084Y9874126D02*
D03*
X9791758Y9874650D02*
D03*
X9991758D02*
D03*
X10191758D02*
D03*
X10391758D02*
D03*
X10591758D02*
D03*
X11268446Y9307912D02*
D03*
X12797361Y9503186D02*
D03*
X12897362Y9303186D02*
D03*
X12797361Y9103186D02*
D03*
X12897362Y8903186D02*
D03*
X12797361Y8703186D02*
D03*
X12897362Y8503186D02*
D03*
X12797361Y7103185D02*
D03*
X12897362Y6903185D02*
D03*
X12797361Y6703185D02*
D03*
X12897362Y6503185D02*
D03*
X12797361Y6303185D02*
D03*
X12897362Y6103185D02*
D03*
X12797361Y5903185D02*
D03*
X12897362Y5703184D02*
D03*
X12597361Y9503186D02*
D03*
X12697361Y9303186D02*
D03*
X12597361Y9103186D02*
D03*
X12697361Y8903186D02*
D03*
X12597361Y8703186D02*
D03*
X12697361Y8503186D02*
D03*
Y6903185D02*
D03*
X12597361Y6703185D02*
D03*
X12697361Y6503185D02*
D03*
X12597361Y6303185D02*
D03*
X12697361Y6103185D02*
D03*
X12597361Y5903185D02*
D03*
X12697361Y5703184D02*
D03*
X12597361Y5503184D02*
D03*
Y5103184D02*
D03*
X12497361Y9703187D02*
D03*
X12397361Y9503186D02*
D03*
X12497361Y9303186D02*
D03*
X12397361Y9103186D02*
D03*
X12497361Y8903186D02*
D03*
X12397361Y8703186D02*
D03*
X12497361Y8503186D02*
D03*
X12397361Y8303186D02*
D03*
Y5903185D02*
D03*
X12497361Y5703184D02*
D03*
X12397361Y5503184D02*
D03*
X12497361Y5303184D02*
D03*
X12397361Y5103184D02*
D03*
X12297361Y9703187D02*
D03*
Y9303186D02*
D03*
Y8503186D02*
D03*
X12197361Y8303186D02*
D03*
X12297361Y8103186D02*
D03*
Y7703186D02*
D03*
Y5703184D02*
D03*
X12197361Y5503184D02*
D03*
X12297361Y5303184D02*
D03*
X12197361Y5103184D02*
D03*
X11997361Y9503186D02*
D03*
Y9103186D02*
D03*
X12097361Y8503186D02*
D03*
X11997361Y8303186D02*
D03*
X12097361Y8103186D02*
D03*
Y7703186D02*
D03*
X11997361Y7503185D02*
D03*
X12097361Y5703184D02*
D03*
X11997361Y5503184D02*
D03*
X12097361Y5303184D02*
D03*
X11997361Y5103184D02*
D03*
X11897361Y8903186D02*
D03*
Y8503186D02*
D03*
X11797360Y8303186D02*
D03*
X11897361Y8103186D02*
D03*
Y7703186D02*
D03*
X11797360Y7503185D02*
D03*
X11897361Y7303185D02*
D03*
Y6103185D02*
D03*
Y5703184D02*
D03*
X11797360Y5503184D02*
D03*
X11897361Y5303184D02*
D03*
X11797360Y5103184D02*
D03*
X11597360Y8303186D02*
D03*
X11697360Y8103186D02*
D03*
Y7703186D02*
D03*
Y7303185D02*
D03*
Y6103185D02*
D03*
X11597360Y5503184D02*
D03*
X11697360Y5303184D02*
D03*
X11597360Y5103184D02*
D03*
X11497360Y8503186D02*
D03*
X11397360Y7503185D02*
D03*
X11497360Y6503185D02*
D03*
Y5303184D02*
D03*
X11397360Y5103184D02*
D03*
X11197360Y9503186D02*
D03*
Y9103186D02*
D03*
X11297360Y8503186D02*
D03*
Y7703186D02*
D03*
Y7303185D02*
D03*
X11197360Y7103185D02*
D03*
X11297360Y5303184D02*
D03*
X11197360Y5103184D02*
D03*
X11097360Y9703187D02*
D03*
X10997360Y9503186D02*
D03*
X11097360Y9303186D02*
D03*
Y8503186D02*
D03*
Y8103186D02*
D03*
Y7703186D02*
D03*
X10797360Y9103186D02*
D03*
X10897360Y7703186D02*
D03*
X10797360Y6703185D02*
D03*
X10897360Y5303184D02*
D03*
X10697360Y9703187D02*
D03*
X10597360Y9503186D02*
D03*
Y6703185D02*
D03*
X10697360Y6503185D02*
D03*
X10597360Y6303185D02*
D03*
X10697360Y6103185D02*
D03*
X10597360Y5903185D02*
D03*
Y5503184D02*
D03*
X10697360Y5303184D02*
D03*
X10497360Y9703187D02*
D03*
X10397360Y9503186D02*
D03*
Y6703185D02*
D03*
X10497360Y6503185D02*
D03*
X10397360Y6303185D02*
D03*
X10497360Y6103185D02*
D03*
X10397360Y5903185D02*
D03*
X10497360Y5703184D02*
D03*
X10397360Y5503184D02*
D03*
X10497360Y5303184D02*
D03*
X10297360Y9703187D02*
D03*
X10197360Y9503186D02*
D03*
X10297360Y9303186D02*
D03*
X10197360Y6703185D02*
D03*
X10297360Y6503185D02*
D03*
X10197360Y6303185D02*
D03*
X10297360Y6103185D02*
D03*
X10197360Y5903185D02*
D03*
X10297360Y5703184D02*
D03*
X10197360Y5503184D02*
D03*
X10297360Y5303184D02*
D03*
X10097360Y9703187D02*
D03*
Y5303184D02*
D03*
X9897359Y9703187D02*
D03*
Y9303186D02*
D03*
Y8503186D02*
D03*
Y7303185D02*
D03*
Y6503185D02*
D03*
X9797359Y6303185D02*
D03*
X9897359Y6103185D02*
D03*
X9797359Y5903185D02*
D03*
X9597359Y9503186D02*
D03*
Y8303186D02*
D03*
Y7503185D02*
D03*
X9697359Y7303185D02*
D03*
X9597359Y7103185D02*
D03*
X9397359Y9503186D02*
D03*
Y8703186D02*
D03*
X9497359Y8503186D02*
D03*
X9397359Y8303186D02*
D03*
X9497359Y7303185D02*
D03*
Y6903185D02*
D03*
X9397359Y6703185D02*
D03*
Y6303185D02*
D03*
X9197359Y8703186D02*
D03*
Y8303186D02*
D03*
X9297359Y8103186D02*
D03*
X9197359Y7903186D02*
D03*
X9297359Y6503185D02*
D03*
X9197359Y6303185D02*
D03*
X9297359Y6103185D02*
D03*
X9197359Y5103184D02*
D03*
X8997359Y8303186D02*
D03*
X9097359Y8103186D02*
D03*
X8997359Y7903186D02*
D03*
X9097359Y6503185D02*
D03*
X8997359Y6303185D02*
D03*
X9097359Y6103185D02*
D03*
X8997359Y5903185D02*
D03*
Y5503184D02*
D03*
Y5103184D02*
D03*
X8797359Y9503186D02*
D03*
Y9103186D02*
D03*
Y8703186D02*
D03*
Y8303186D02*
D03*
X8897359Y8103186D02*
D03*
X8797359Y7903186D02*
D03*
X8897359Y7703186D02*
D03*
X8797359Y7503185D02*
D03*
Y7103185D02*
D03*
Y6703185D02*
D03*
X8897359Y6503185D02*
D03*
X8797359Y6303185D02*
D03*
X8897359Y6103185D02*
D03*
X8797359Y5903185D02*
D03*
X8897359Y5703184D02*
D03*
X8797359Y5503184D02*
D03*
X8897359Y5303184D02*
D03*
X8797359Y5103184D02*
D03*
X8697359Y9703187D02*
D03*
X8597359Y9503186D02*
D03*
X8697359Y9303186D02*
D03*
X8597359Y9103186D02*
D03*
Y8703186D02*
D03*
X8697359Y8503186D02*
D03*
X8597359Y8303186D02*
D03*
X8697359Y8103186D02*
D03*
X8597359Y7903186D02*
D03*
X8697359Y7703186D02*
D03*
X8597359Y7503185D02*
D03*
X8697359Y7303185D02*
D03*
X8597359Y7103185D02*
D03*
X8697359Y6903185D02*
D03*
X8597359Y6703185D02*
D03*
X8697359Y6503185D02*
D03*
X8597359Y6303185D02*
D03*
X8697359Y6103185D02*
D03*
X8597359Y5903185D02*
D03*
X8697359Y5703184D02*
D03*
X8597359Y5503184D02*
D03*
X8697359Y5303184D02*
D03*
X8597359Y5103184D02*
D03*
X8497359Y9303186D02*
D03*
X8397359Y9103186D02*
D03*
X8497359Y8903186D02*
D03*
X8397359Y8703186D02*
D03*
X8497359Y8503186D02*
D03*
X8397359Y8303186D02*
D03*
X8497359Y8103186D02*
D03*
X8397359Y7903186D02*
D03*
X8497359Y7703186D02*
D03*
X8397359Y7503185D02*
D03*
X8497359Y7303185D02*
D03*
X8397359Y7103185D02*
D03*
X8497359Y6903185D02*
D03*
X8397359Y6703185D02*
D03*
X8497359Y6503185D02*
D03*
X8397359Y6303185D02*
D03*
X8497359Y6103185D02*
D03*
X8397359Y5903185D02*
D03*
X8497359Y5703184D02*
D03*
X8397359Y5503184D02*
D03*
D57*
X12151915Y6217468D02*
D03*
X9776397Y8405532D02*
D03*
X9495615Y8848359D02*
D03*
X8937234Y8671151D02*
D03*
X11110750Y6423305D02*
D03*
X10908152Y6939132D02*
D03*
X9660111Y9019944D02*
D03*
X11337864Y6380616D02*
D03*
X9935167Y7978251D02*
D03*
X10968009Y8277165D02*
D03*
X9868353Y8239441D02*
D03*
X9709908Y7541985D02*
D03*
X9790000Y7730000D02*
D03*
X9214163Y6658316D02*
D03*
X9393198Y7141804D02*
D03*
X8668811Y8848881D02*
D03*
X9029700Y5600700D02*
D03*
X12192000Y6832600D02*
D03*
X12136892Y6373467D02*
D03*
X12512908Y8037044D02*
D03*
X11277600Y9715500D02*
D03*
X9512300Y9702800D02*
D03*
X9767528Y9368961D02*
D03*
X10955226Y7145888D02*
D03*
X10740699Y6899716D02*
D03*
X10101642Y8316621D02*
D03*
X10041529Y8643378D02*
D03*
X12389794Y6737657D02*
D03*
X12137757Y6588375D02*
D03*
D58*
X10142008Y9098908D02*
D03*
X11648800Y9923101D02*
D03*
X12214319Y9442271D02*
D03*
X10640060Y8963660D02*
D03*
X10030460Y8823960D02*
D03*
X8850000Y9890000D02*
D03*
D59*
X9050000Y9350000D02*
D03*
X9160000D02*
D03*
Y9240000D02*
D03*
X9050000D02*
D03*
X10603642Y7560005D02*
D03*
X10493642D02*
D03*
X10383642D02*
D03*
X10273642D02*
D03*
X10163642D02*
D03*
X10603642Y7670005D02*
D03*
X10493642D02*
D03*
X10383642D02*
D03*
X10273642D02*
D03*
X10163642D02*
D03*
X10603642Y7780005D02*
D03*
X10493642D02*
D03*
X10383642D02*
D03*
X10273642D02*
D03*
X10163642D02*
D03*
X10603642Y7890005D02*
D03*
X10493642D02*
D03*
X10383642D02*
D03*
X10273642D02*
D03*
X10163642D02*
D03*
X10603642Y8000005D02*
D03*
X10493642D02*
D03*
X10383642D02*
D03*
X10273642D02*
D03*
X10163642D02*
D03*
%TF.MD5,22732c6c0f29073b37609e80b6b6ab60*%
M02*
