%TF.GenerationSoftware,Altium Limited,Altium Designer,23.5.1 (21)*%
G04 Layer_Color=16711935*
%FSLAX45Y45*%
%MOMM*%
%TF.SameCoordinates,D1A1A69A-B0F0-4312-96CC-35C0D177272F*%
%TF.FilePolarity,Negative*%
%TF.FileFunction,Soldermask,Bot*%
%TF.Part,Single*%
G01*
G75*
%TA.AperFunction,ViaPad*%
%ADD82C,1.23200*%
%ADD83C,3.08000*%
%TA.AperFunction,ComponentPad*%
%ADD84C,1.07100*%
%TA.AperFunction,ViaPad*%
%ADD85C,0.68000*%
%ADD86C,0.78000*%
%ADD87C,0.58000*%
D82*
X12800000Y5550000D02*
D03*
X8400000Y9425000D02*
D03*
D83*
Y5200000D02*
D03*
Y9800000D02*
D03*
X12800000D02*
D03*
Y5200000D02*
D03*
D84*
X11884000Y9133500D02*
D03*
X11376000Y9031900D02*
D03*
Y9235100D02*
D03*
D85*
X12151915Y6217468D02*
D03*
X9776397Y8405532D02*
D03*
X9495615Y8848359D02*
D03*
X8937234Y8671151D02*
D03*
X11110750Y6423305D02*
D03*
X10908152Y6939132D02*
D03*
X9660111Y9019944D02*
D03*
X11337864Y6380616D02*
D03*
X9935167Y7978251D02*
D03*
X10968009Y8277165D02*
D03*
X9868353Y8239441D02*
D03*
X9709908Y7541985D02*
D03*
X9790000Y7730000D02*
D03*
X9214163Y6658316D02*
D03*
X9393198Y7141804D02*
D03*
X8668811Y8848881D02*
D03*
X9029700Y5600700D02*
D03*
X12192000Y6832600D02*
D03*
X12136892Y6373467D02*
D03*
X12512908Y8037044D02*
D03*
X11277600Y9715500D02*
D03*
X9512300Y9702800D02*
D03*
X9767528Y9368961D02*
D03*
X10955226Y7145888D02*
D03*
X10740699Y6899716D02*
D03*
X10101642Y8316621D02*
D03*
X10041529Y8643378D02*
D03*
X12389794Y6737657D02*
D03*
X12137757Y6588375D02*
D03*
D86*
X10142008Y9098908D02*
D03*
X11648800Y9923101D02*
D03*
X12214319Y9442271D02*
D03*
X10640060Y8963660D02*
D03*
X10030460Y8823960D02*
D03*
X8850000Y9890000D02*
D03*
D87*
X9050000Y9350000D02*
D03*
X9160000D02*
D03*
Y9240000D02*
D03*
X9050000D02*
D03*
X10603642Y7560005D02*
D03*
X10493642D02*
D03*
X10383642D02*
D03*
X10273642D02*
D03*
X10163642D02*
D03*
X10603642Y7670005D02*
D03*
X10493642D02*
D03*
X10383642D02*
D03*
X10273642D02*
D03*
X10163642D02*
D03*
X10603642Y7780005D02*
D03*
X10493642D02*
D03*
X10383642D02*
D03*
X10273642D02*
D03*
X10163642D02*
D03*
X10603642Y7890005D02*
D03*
X10493642D02*
D03*
X10383642D02*
D03*
X10273642D02*
D03*
X10163642D02*
D03*
X10603642Y8000005D02*
D03*
X10493642D02*
D03*
X10383642D02*
D03*
X10273642D02*
D03*
X10163642D02*
D03*
%TF.MD5,de8a91e3126ef1e2bc4593b045de5f8b*%
M02*
