%TF.GenerationSoftware,Altium Limited,Altium Designer,23.5.1 (21)*%
G04 Layer_Color=8388736*
%FSLAX45Y45*%
%MOMM*%
%TF.SameCoordinates,D1A1A69A-B0F0-4312-96CC-35C0D177272F*%
%TF.FilePolarity,Negative*%
%TF.FileFunction,Soldermask,Top*%
%TF.Part,Single*%
G01*
G75*
%TA.AperFunction,SMDPad,CuDef*%
%ADD10R,1.25000X1.25000*%
%ADD11R,3.18213X1.25000*%
%ADD12R,1.00000X2.80000*%
%ADD13R,0.60000X1.70000*%
%ADD15R,0.86213X0.66370*%
%TA.AperFunction,ConnectorPad*%
%ADD16R,1.38000X0.45000*%
%ADD17R,1.55000X1.42500*%
%ADD18R,1.90000X1.00000*%
%ADD19R,1.90000X1.80000*%
%ADD20R,1.30000X1.65000*%
%TA.AperFunction,SMDPad,CuDef*%
%ADD24R,0.52000X0.52000*%
%ADD25R,1.40000X1.20000*%
%ADD26R,0.93108X0.81213*%
%ADD31R,1.45620X1.30464*%
%ADD35R,0.52000X0.52000*%
%ADD36R,1.75395X1.80620*%
%ADD38R,1.80620X1.75395*%
%ADD39R,0.80000X0.80000*%
%ADD41R,0.66370X0.86213*%
%ADD43R,1.30464X1.45620*%
%ADD66R,2.68000X0.83000*%
%TA.AperFunction,BGAPad,CuDef*%
%ADD67C,0.86700*%
%TA.AperFunction,SMDPad,CuDef*%
%ADD68R,0.83000X2.68000*%
%ADD69R,0.53000X0.53000*%
%ADD70R,0.98000X1.43000*%
%ADD71R,2.78000X2.68000*%
%ADD72R,0.88000X0.43000*%
%ADD73R,0.55320X1.05320*%
%ADD74R,5.68000X5.68000*%
%ADD75O,0.33000X0.88000*%
%ADD76O,0.88000X0.33000*%
%ADD77R,0.92000X1.01000*%
%ADD78R,1.43000X1.63000*%
%ADD79R,0.68000X0.88000*%
%ADD80R,1.03000X1.13000*%
%ADD81R,1.23000X1.43000*%
%TA.AperFunction,ViaPad*%
%ADD82C,1.23200*%
%ADD83C,3.08000*%
%TA.AperFunction,ComponentPad*%
%ADD84C,1.07100*%
%TA.AperFunction,ViaPad*%
%ADD85C,0.68000*%
%ADD86C,0.78000*%
%ADD87C,0.58000*%
D10*
X11339000Y6249500D02*
D03*
X11110000D02*
D03*
X10881000D02*
D03*
D11*
X11110000Y5590500D02*
D03*
D12*
X9168118Y5604252D02*
D03*
X9913118D02*
D03*
D13*
X9728118Y5269252D02*
D03*
X9603118D02*
D03*
X9478118D02*
D03*
X9353118D02*
D03*
D15*
X10180000Y8520000D02*
D03*
Y8645877D02*
D03*
D16*
X12720000Y8035000D02*
D03*
Y7970000D02*
D03*
Y7905000D02*
D03*
Y7840000D02*
D03*
Y7775000D02*
D03*
D17*
X12728500Y8153750D02*
D03*
Y7656250D02*
D03*
D18*
X12986000Y8060000D02*
D03*
D19*
Y7790000D02*
D03*
D20*
Y8242500D02*
D03*
Y7567500D02*
D03*
D24*
X9850000Y7630000D02*
D03*
Y7550000D02*
D03*
X9818019Y7975680D02*
D03*
Y8055680D02*
D03*
X10660000Y7230000D02*
D03*
X10970000Y8120000D02*
D03*
Y8040000D02*
D03*
D25*
X8990000Y7000000D02*
D03*
Y6830000D02*
D03*
X9210000D02*
D03*
Y7000000D02*
D03*
D26*
X9180000Y7250000D02*
D03*
X9288105D02*
D03*
X9020000D02*
D03*
X8911895D02*
D03*
D31*
X9580000Y9370000D02*
D03*
Y9208844D02*
D03*
D35*
X10004935Y8353065D02*
D03*
X9924935D02*
D03*
X10580000Y7230000D02*
D03*
D36*
X12008469Y6840000D02*
D03*
X11773244D02*
D03*
X10342387Y6900000D02*
D03*
X10577612D02*
D03*
D38*
X12390000Y6922387D02*
D03*
Y7157612D02*
D03*
X9536632Y8088571D02*
D03*
Y7853346D02*
D03*
D39*
X12318469Y6170000D02*
D03*
X12468469D02*
D03*
D41*
X11823700Y9728200D02*
D03*
X11949577D02*
D03*
D43*
X11610734Y9718200D02*
D03*
X11449577D02*
D03*
X9170000Y8850000D02*
D03*
X9331156D02*
D03*
D66*
X11890000Y5897500D02*
D03*
Y6202500D02*
D03*
D67*
X11757000Y9197000D02*
D03*
Y9070000D02*
D03*
X11630000Y9197000D02*
D03*
Y9070000D02*
D03*
X11503000Y9197000D02*
D03*
Y9070000D02*
D03*
D68*
X11725969Y6479999D02*
D03*
X12030969D02*
D03*
D69*
X10231355Y8829606D02*
D03*
X10311356D02*
D03*
X10527125Y8831057D02*
D03*
X10447125D02*
D03*
D70*
X9165000Y7450000D02*
D03*
X9320000D02*
D03*
D71*
X9105000Y9295000D02*
D03*
D72*
X9305000Y9170000D02*
D03*
Y9220000D02*
D03*
Y9270000D02*
D03*
Y9320000D02*
D03*
Y9370000D02*
D03*
Y9420000D02*
D03*
X8905000Y9170000D02*
D03*
Y9220000D02*
D03*
Y9270000D02*
D03*
Y9320000D02*
D03*
Y9370000D02*
D03*
Y9420000D02*
D03*
D73*
X9230000Y9492500D02*
D03*
X9180000D02*
D03*
X9130000D02*
D03*
X9080000D02*
D03*
X9030000D02*
D03*
X8980000D02*
D03*
X9230000Y9097500D02*
D03*
X9180000D02*
D03*
X9130000D02*
D03*
X9080000D02*
D03*
X9030000D02*
D03*
X8980000D02*
D03*
D74*
X10383642Y7780005D02*
D03*
D75*
X10108642Y8120005D02*
D03*
X10158642D02*
D03*
X10208642D02*
D03*
X10258642D02*
D03*
X10308642D02*
D03*
X10358642D02*
D03*
X10408642D02*
D03*
X10458642D02*
D03*
X10508642D02*
D03*
X10558642D02*
D03*
X10608642D02*
D03*
X10658642D02*
D03*
Y7440005D02*
D03*
X10608642D02*
D03*
X10558642D02*
D03*
X10508642D02*
D03*
X10458642D02*
D03*
X10408642D02*
D03*
X10358642D02*
D03*
X10308642D02*
D03*
X10258642D02*
D03*
X10208642D02*
D03*
X10158642D02*
D03*
X10108642D02*
D03*
D76*
X10723642Y8055005D02*
D03*
Y8005005D02*
D03*
Y7955005D02*
D03*
Y7905005D02*
D03*
Y7855005D02*
D03*
Y7805005D02*
D03*
Y7755005D02*
D03*
Y7705005D02*
D03*
Y7655005D02*
D03*
Y7605005D02*
D03*
Y7555005D02*
D03*
Y7505005D02*
D03*
X10043642D02*
D03*
Y7555005D02*
D03*
Y7605005D02*
D03*
Y7655005D02*
D03*
Y7705005D02*
D03*
Y7755005D02*
D03*
Y7805005D02*
D03*
Y7855005D02*
D03*
Y7905005D02*
D03*
Y7955005D02*
D03*
Y8005005D02*
D03*
Y8055005D02*
D03*
D77*
X12143877Y7108433D02*
D03*
X11984877D02*
D03*
D78*
X12488469Y6500000D02*
D03*
X12293469D02*
D03*
X11150000Y7300000D02*
D03*
X10955000D02*
D03*
D79*
X10955907Y7557661D02*
D03*
X11100907D02*
D03*
D80*
X8940800Y8851900D02*
D03*
X8795800D02*
D03*
D81*
X9375000Y9700000D02*
D03*
X9230000D02*
D03*
D82*
X12800000Y5550000D02*
D03*
X8400000Y9425000D02*
D03*
D83*
Y5200000D02*
D03*
Y9800000D02*
D03*
X12800000D02*
D03*
Y5200000D02*
D03*
D84*
X11884000Y9133500D02*
D03*
X11376000Y9031900D02*
D03*
Y9235100D02*
D03*
D85*
X12151915Y6217468D02*
D03*
X9776397Y8405532D02*
D03*
X9495615Y8848359D02*
D03*
X8937234Y8671151D02*
D03*
X11110750Y6423305D02*
D03*
X10908152Y6939132D02*
D03*
X9660111Y9019944D02*
D03*
X11337864Y6380616D02*
D03*
X9935167Y7978251D02*
D03*
X10968009Y8277165D02*
D03*
X9868353Y8239441D02*
D03*
X9709908Y7541985D02*
D03*
X9790000Y7730000D02*
D03*
X9214163Y6658316D02*
D03*
X9393198Y7141804D02*
D03*
X8668811Y8848881D02*
D03*
X9029700Y5600700D02*
D03*
X12192000Y6832600D02*
D03*
X12136892Y6373467D02*
D03*
X12512908Y8037044D02*
D03*
X11277600Y9715500D02*
D03*
X9512300Y9702800D02*
D03*
X9767528Y9368961D02*
D03*
X10955226Y7145888D02*
D03*
X10740699Y6899716D02*
D03*
X10101642Y8316621D02*
D03*
X10041529Y8643378D02*
D03*
X12389794Y6737657D02*
D03*
X12137757Y6588375D02*
D03*
D86*
X10142008Y9098908D02*
D03*
X11648800Y9923101D02*
D03*
X12214319Y9442271D02*
D03*
X10640060Y8963660D02*
D03*
X10030460Y8823960D02*
D03*
X8850000Y9890000D02*
D03*
D87*
X9050000Y9350000D02*
D03*
X9160000D02*
D03*
Y9240000D02*
D03*
X9050000D02*
D03*
X10603642Y7560005D02*
D03*
X10493642D02*
D03*
X10383642D02*
D03*
X10273642D02*
D03*
X10163642D02*
D03*
X10603642Y7670005D02*
D03*
X10493642D02*
D03*
X10383642D02*
D03*
X10273642D02*
D03*
X10163642D02*
D03*
X10603642Y7780005D02*
D03*
X10493642D02*
D03*
X10383642D02*
D03*
X10273642D02*
D03*
X10163642D02*
D03*
X10603642Y7890005D02*
D03*
X10493642D02*
D03*
X10383642D02*
D03*
X10273642D02*
D03*
X10163642D02*
D03*
X10603642Y8000005D02*
D03*
X10493642D02*
D03*
X10383642D02*
D03*
X10273642D02*
D03*
X10163642D02*
D03*
%TF.MD5,77e6a1251e9ee7de407d1f720ef4ab69*%
M02*
