%TF.GenerationSoftware,Altium Limited,Altium Designer,23.5.1 (21)*%
G04 Layer_Color=2752767*
%FSLAX45Y45*%
%MOMM*%
%TF.SameCoordinates,25585159-6715-467B-9351-B71020FA716E*%
%TF.FilePolarity,Positive*%
%TF.FileFunction,Drawing*%
%TF.Part,Single*%
G01*
G75*
%TA.AperFunction,NonConductor*%
%ADD63C,0.12700*%
%ADD100C,0.16933*%
D63*
X12800000Y5499200D02*
X12825400Y5524600D01*
X12850800D01*
X12825400Y5550000D01*
X12850800Y5575400D01*
X12825400D01*
X12800000Y5600800D01*
X12774600Y5575400D01*
X12749200D01*
X12774600Y5550000D01*
X12749200Y5524600D01*
X12774600D01*
X12800000Y5499200D01*
X8400000Y9374200D02*
X8425400Y9399600D01*
X8450800D01*
X8425400Y9425000D01*
X8450800Y9450400D01*
X8425400D01*
X8400000Y9475800D01*
X8374600Y9450400D01*
X8349200D01*
X8374600Y9425000D01*
X8349200Y9399600D01*
X8374600D01*
X8400000Y9374200D01*
X8349200Y5200000D02*
X8400000Y5250800D01*
X8450800Y5200000D01*
X8400000Y5149200D01*
X8349200Y5200000D01*
Y9800000D02*
X8400000Y9850800D01*
X8450800Y9800000D01*
X8400000Y9749200D01*
X8349200Y9800000D01*
X12749200D02*
X12800000Y9850800D01*
X12850800Y9800000D01*
X12800000Y9749200D01*
X12749200Y9800000D01*
Y5200000D02*
X12800000Y5250800D01*
X12850800Y5200000D01*
X12800000Y5149200D01*
X12749200Y5200000D01*
X11920930Y9230401D02*
X11946330Y9281201D01*
X11920930Y9332001D01*
X11971730Y9306601D01*
X12022530Y9332001D01*
X11997130Y9281201D01*
X12022530Y9230401D01*
X11971730Y9255801D01*
X11920930Y9230401D01*
X10719495Y8734851D02*
X10744895Y8785651D01*
X10719495Y8836451D01*
X10770295Y8811051D01*
X10821095Y8836451D01*
X10795695Y8785651D01*
X10821095Y8734851D01*
X10770295Y8760251D01*
X10719495Y8734851D01*
X10523752Y8551496D02*
X10549152Y8602296D01*
X10523752Y8653096D01*
X10574552Y8627696D01*
X10625352Y8653096D01*
X10599952Y8602296D01*
X10625352Y8551496D01*
X10574552Y8576896D01*
X10523752Y8551496D01*
X10798784Y8494507D02*
X10824184Y8545307D01*
X10798784Y8596107D01*
X10849584Y8570707D01*
X10900384Y8596107D01*
X10874984Y8545307D01*
X10900384Y8494507D01*
X10849584Y8519907D01*
X10798784Y8494507D01*
X10640206Y8353276D02*
X10665606Y8404076D01*
X10640206Y8454876D01*
X10691006Y8429476D01*
X10741806Y8454876D01*
X10716406Y8404076D01*
X10741806Y8353276D01*
X10691006Y8378676D01*
X10640206Y8353276D01*
X10914806Y9825618D02*
X10940206Y9876418D01*
X10914806Y9927218D01*
X10965606Y9901818D01*
X11016406Y9927218D01*
X10991006Y9876418D01*
X11016406Y9825618D01*
X10965606Y9851018D01*
X10914806Y9825618D01*
X11883205Y9856059D02*
X11908605Y9906859D01*
X11883205Y9957659D01*
X11934005Y9932259D01*
X11984805Y9957659D01*
X11959405Y9906859D01*
X11984805Y9856059D01*
X11934005Y9881459D01*
X11883205Y9856059D01*
X12083205D02*
X12108605Y9906859D01*
X12083205Y9957659D01*
X12134005Y9932259D01*
X12184805Y9957659D01*
X12159405Y9906859D01*
X12184805Y9856059D01*
X12134005Y9881459D01*
X12083205Y9856059D01*
X12283205D02*
X12308605Y9906859D01*
X12283205Y9957659D01*
X12334005Y9932259D01*
X12384805Y9957659D01*
X12359405Y9906859D01*
X12384805Y9856059D01*
X12334005Y9881459D01*
X12283205Y9856059D01*
X10799748Y9304121D02*
X10825148Y9354921D01*
X10799748Y9405721D01*
X10850548Y9380321D01*
X10901348Y9405721D01*
X10875948Y9354921D01*
X10901348Y9304121D01*
X10850548Y9329521D01*
X10799748Y9304121D01*
X10738284Y9823326D02*
X10763684Y9874126D01*
X10738284Y9924926D01*
X10789084Y9899526D01*
X10839884Y9924926D01*
X10814484Y9874126D01*
X10839884Y9823326D01*
X10789084Y9848726D01*
X10738284Y9823326D01*
X9740958Y9823850D02*
X9766358Y9874650D01*
X9740958Y9925450D01*
X9791758Y9900050D01*
X9842558Y9925450D01*
X9817158Y9874650D01*
X9842558Y9823850D01*
X9791758Y9849250D01*
X9740958Y9823850D01*
X9940958D02*
X9966358Y9874650D01*
X9940958Y9925450D01*
X9991758Y9900050D01*
X10042558Y9925450D01*
X10017158Y9874650D01*
X10042558Y9823850D01*
X9991758Y9849250D01*
X9940958Y9823850D01*
X10140958D02*
X10166358Y9874650D01*
X10140958Y9925450D01*
X10191758Y9900050D01*
X10242558Y9925450D01*
X10217158Y9874650D01*
X10242558Y9823850D01*
X10191758Y9849250D01*
X10140958Y9823850D01*
X10340958D02*
X10366358Y9874650D01*
X10340958Y9925450D01*
X10391758Y9900050D01*
X10442558Y9925450D01*
X10417158Y9874650D01*
X10442558Y9823850D01*
X10391758Y9849250D01*
X10340958Y9823850D01*
X10540958D02*
X10566358Y9874650D01*
X10540958Y9925450D01*
X10591758Y9900050D01*
X10642558Y9925450D01*
X10617158Y9874650D01*
X10642558Y9823850D01*
X10591758Y9849250D01*
X10540958Y9823850D01*
X11217646Y9257112D02*
X11243046Y9307912D01*
X11217646Y9358712D01*
X11268446Y9333312D01*
X11319246Y9358712D01*
X11293846Y9307912D01*
X11319246Y9257112D01*
X11268446Y9282512D01*
X11217646Y9257112D01*
X12746561Y9452386D02*
X12771961Y9503186D01*
X12746561Y9553986D01*
X12797361Y9528586D01*
X12848161Y9553986D01*
X12822762Y9503186D01*
X12848161Y9452386D01*
X12797361Y9477786D01*
X12746561Y9452386D01*
X12846561Y9252386D02*
X12871960Y9303186D01*
X12846561Y9353986D01*
X12897362Y9328586D01*
X12948161Y9353986D01*
X12922762Y9303186D01*
X12948161Y9252386D01*
X12897362Y9277786D01*
X12846561Y9252386D01*
X12746561Y9052386D02*
X12771961Y9103186D01*
X12746561Y9153986D01*
X12797361Y9128586D01*
X12848161Y9153986D01*
X12822762Y9103186D01*
X12848161Y9052386D01*
X12797361Y9077786D01*
X12746561Y9052386D01*
X12846561Y8852386D02*
X12871960Y8903186D01*
X12846561Y8953986D01*
X12897362Y8928586D01*
X12948161Y8953986D01*
X12922762Y8903186D01*
X12948161Y8852386D01*
X12897362Y8877786D01*
X12846561Y8852386D01*
X12746561Y8652386D02*
X12771961Y8703186D01*
X12746561Y8753986D01*
X12797361Y8728586D01*
X12848161Y8753986D01*
X12822762Y8703186D01*
X12848161Y8652386D01*
X12797361Y8677786D01*
X12746561Y8652386D01*
X12846561Y8452386D02*
X12871960Y8503186D01*
X12846561Y8553986D01*
X12897362Y8528586D01*
X12948161Y8553986D01*
X12922762Y8503186D01*
X12948161Y8452386D01*
X12897362Y8477786D01*
X12846561Y8452386D01*
X12746561Y7052385D02*
X12771961Y7103185D01*
X12746561Y7153985D01*
X12797361Y7128585D01*
X12848161Y7153985D01*
X12822762Y7103185D01*
X12848161Y7052385D01*
X12797361Y7077785D01*
X12746561Y7052385D01*
X12846561Y6852385D02*
X12871960Y6903185D01*
X12846561Y6953985D01*
X12897362Y6928585D01*
X12948161Y6953985D01*
X12922762Y6903185D01*
X12948161Y6852385D01*
X12897362Y6877785D01*
X12846561Y6852385D01*
X12746561Y6652385D02*
X12771961Y6703185D01*
X12746561Y6753985D01*
X12797361Y6728585D01*
X12848161Y6753985D01*
X12822762Y6703185D01*
X12848161Y6652385D01*
X12797361Y6677785D01*
X12746561Y6652385D01*
X12846561Y6452385D02*
X12871960Y6503185D01*
X12846561Y6553985D01*
X12897362Y6528585D01*
X12948161Y6553985D01*
X12922762Y6503185D01*
X12948161Y6452385D01*
X12897362Y6477785D01*
X12846561Y6452385D01*
X12746561Y6252385D02*
X12771961Y6303185D01*
X12746561Y6353985D01*
X12797361Y6328585D01*
X12848161Y6353985D01*
X12822762Y6303185D01*
X12848161Y6252385D01*
X12797361Y6277785D01*
X12746561Y6252385D01*
X12846561Y6052385D02*
X12871960Y6103185D01*
X12846561Y6153985D01*
X12897362Y6128585D01*
X12948161Y6153985D01*
X12922762Y6103185D01*
X12948161Y6052385D01*
X12897362Y6077785D01*
X12846561Y6052385D01*
X12746561Y5852385D02*
X12771961Y5903185D01*
X12746561Y5953985D01*
X12797361Y5928585D01*
X12848161Y5953985D01*
X12822762Y5903185D01*
X12848161Y5852385D01*
X12797361Y5877785D01*
X12746561Y5852385D01*
X12846561Y5652384D02*
X12871960Y5703184D01*
X12846561Y5753984D01*
X12897362Y5728584D01*
X12948161Y5753984D01*
X12922762Y5703184D01*
X12948161Y5652384D01*
X12897362Y5677784D01*
X12846561Y5652384D01*
X12546561Y9452386D02*
X12571961Y9503186D01*
X12546561Y9553986D01*
X12597361Y9528586D01*
X12648161Y9553986D01*
X12622761Y9503186D01*
X12648161Y9452386D01*
X12597361Y9477786D01*
X12546561Y9452386D01*
X12646561Y9252386D02*
X12671961Y9303186D01*
X12646561Y9353986D01*
X12697361Y9328586D01*
X12748161Y9353986D01*
X12722761Y9303186D01*
X12748161Y9252386D01*
X12697361Y9277786D01*
X12646561Y9252386D01*
X12546561Y9052386D02*
X12571961Y9103186D01*
X12546561Y9153986D01*
X12597361Y9128586D01*
X12648161Y9153986D01*
X12622761Y9103186D01*
X12648161Y9052386D01*
X12597361Y9077786D01*
X12546561Y9052386D01*
X12646561Y8852386D02*
X12671961Y8903186D01*
X12646561Y8953986D01*
X12697361Y8928586D01*
X12748161Y8953986D01*
X12722761Y8903186D01*
X12748161Y8852386D01*
X12697361Y8877786D01*
X12646561Y8852386D01*
X12546561Y8652386D02*
X12571961Y8703186D01*
X12546561Y8753986D01*
X12597361Y8728586D01*
X12648161Y8753986D01*
X12622761Y8703186D01*
X12648161Y8652386D01*
X12597361Y8677786D01*
X12546561Y8652386D01*
X12646561Y8452386D02*
X12671961Y8503186D01*
X12646561Y8553986D01*
X12697361Y8528586D01*
X12748161Y8553986D01*
X12722761Y8503186D01*
X12748161Y8452386D01*
X12697361Y8477786D01*
X12646561Y8452386D01*
Y6852385D02*
X12671961Y6903185D01*
X12646561Y6953985D01*
X12697361Y6928585D01*
X12748161Y6953985D01*
X12722761Y6903185D01*
X12748161Y6852385D01*
X12697361Y6877785D01*
X12646561Y6852385D01*
X12546561Y6652385D02*
X12571961Y6703185D01*
X12546561Y6753985D01*
X12597361Y6728585D01*
X12648161Y6753985D01*
X12622761Y6703185D01*
X12648161Y6652385D01*
X12597361Y6677785D01*
X12546561Y6652385D01*
X12646561Y6452385D02*
X12671961Y6503185D01*
X12646561Y6553985D01*
X12697361Y6528585D01*
X12748161Y6553985D01*
X12722761Y6503185D01*
X12748161Y6452385D01*
X12697361Y6477785D01*
X12646561Y6452385D01*
X12546561Y6252385D02*
X12571961Y6303185D01*
X12546561Y6353985D01*
X12597361Y6328585D01*
X12648161Y6353985D01*
X12622761Y6303185D01*
X12648161Y6252385D01*
X12597361Y6277785D01*
X12546561Y6252385D01*
X12646561Y6052385D02*
X12671961Y6103185D01*
X12646561Y6153985D01*
X12697361Y6128585D01*
X12748161Y6153985D01*
X12722761Y6103185D01*
X12748161Y6052385D01*
X12697361Y6077785D01*
X12646561Y6052385D01*
X12546561Y5852385D02*
X12571961Y5903185D01*
X12546561Y5953985D01*
X12597361Y5928585D01*
X12648161Y5953985D01*
X12622761Y5903185D01*
X12648161Y5852385D01*
X12597361Y5877785D01*
X12546561Y5852385D01*
X12646561Y5652384D02*
X12671961Y5703184D01*
X12646561Y5753984D01*
X12697361Y5728584D01*
X12748161Y5753984D01*
X12722761Y5703184D01*
X12748161Y5652384D01*
X12697361Y5677784D01*
X12646561Y5652384D01*
X12546561Y5452384D02*
X12571961Y5503184D01*
X12546561Y5553984D01*
X12597361Y5528584D01*
X12648161Y5553984D01*
X12622761Y5503184D01*
X12648161Y5452384D01*
X12597361Y5477784D01*
X12546561Y5452384D01*
Y5052384D02*
X12571961Y5103184D01*
X12546561Y5153984D01*
X12597361Y5128584D01*
X12648161Y5153984D01*
X12622761Y5103184D01*
X12648161Y5052384D01*
X12597361Y5077784D01*
X12546561Y5052384D01*
X12446561Y9652387D02*
X12471961Y9703187D01*
X12446561Y9753987D01*
X12497361Y9728587D01*
X12548161Y9753987D01*
X12522761Y9703187D01*
X12548161Y9652387D01*
X12497361Y9677787D01*
X12446561Y9652387D01*
X12346561Y9452386D02*
X12371961Y9503186D01*
X12346561Y9553986D01*
X12397361Y9528586D01*
X12448161Y9553986D01*
X12422761Y9503186D01*
X12448161Y9452386D01*
X12397361Y9477786D01*
X12346561Y9452386D01*
X12446561Y9252386D02*
X12471961Y9303186D01*
X12446561Y9353986D01*
X12497361Y9328586D01*
X12548161Y9353986D01*
X12522761Y9303186D01*
X12548161Y9252386D01*
X12497361Y9277786D01*
X12446561Y9252386D01*
X12346561Y9052386D02*
X12371961Y9103186D01*
X12346561Y9153986D01*
X12397361Y9128586D01*
X12448161Y9153986D01*
X12422761Y9103186D01*
X12448161Y9052386D01*
X12397361Y9077786D01*
X12346561Y9052386D01*
X12446561Y8852386D02*
X12471961Y8903186D01*
X12446561Y8953986D01*
X12497361Y8928586D01*
X12548161Y8953986D01*
X12522761Y8903186D01*
X12548161Y8852386D01*
X12497361Y8877786D01*
X12446561Y8852386D01*
X12346561Y8652386D02*
X12371961Y8703186D01*
X12346561Y8753986D01*
X12397361Y8728586D01*
X12448161Y8753986D01*
X12422761Y8703186D01*
X12448161Y8652386D01*
X12397361Y8677786D01*
X12346561Y8652386D01*
X12446561Y8452386D02*
X12471961Y8503186D01*
X12446561Y8553986D01*
X12497361Y8528586D01*
X12548161Y8553986D01*
X12522761Y8503186D01*
X12548161Y8452386D01*
X12497361Y8477786D01*
X12446561Y8452386D01*
X12346561Y8252386D02*
X12371961Y8303186D01*
X12346561Y8353986D01*
X12397361Y8328586D01*
X12448161Y8353986D01*
X12422761Y8303186D01*
X12448161Y8252386D01*
X12397361Y8277786D01*
X12346561Y8252386D01*
Y5852385D02*
X12371961Y5903185D01*
X12346561Y5953985D01*
X12397361Y5928585D01*
X12448161Y5953985D01*
X12422761Y5903185D01*
X12448161Y5852385D01*
X12397361Y5877785D01*
X12346561Y5852385D01*
X12446561Y5652384D02*
X12471961Y5703184D01*
X12446561Y5753984D01*
X12497361Y5728584D01*
X12548161Y5753984D01*
X12522761Y5703184D01*
X12548161Y5652384D01*
X12497361Y5677784D01*
X12446561Y5652384D01*
X12346561Y5452384D02*
X12371961Y5503184D01*
X12346561Y5553984D01*
X12397361Y5528584D01*
X12448161Y5553984D01*
X12422761Y5503184D01*
X12448161Y5452384D01*
X12397361Y5477784D01*
X12346561Y5452384D01*
X12446561Y5252384D02*
X12471961Y5303184D01*
X12446561Y5353984D01*
X12497361Y5328584D01*
X12548161Y5353984D01*
X12522761Y5303184D01*
X12548161Y5252384D01*
X12497361Y5277784D01*
X12446561Y5252384D01*
X12346561Y5052384D02*
X12371961Y5103184D01*
X12346561Y5153984D01*
X12397361Y5128584D01*
X12448161Y5153984D01*
X12422761Y5103184D01*
X12448161Y5052384D01*
X12397361Y5077784D01*
X12346561Y5052384D01*
X12246561Y9652387D02*
X12271961Y9703187D01*
X12246561Y9753987D01*
X12297361Y9728587D01*
X12348161Y9753987D01*
X12322761Y9703187D01*
X12348161Y9652387D01*
X12297361Y9677787D01*
X12246561Y9652387D01*
Y9252386D02*
X12271961Y9303186D01*
X12246561Y9353986D01*
X12297361Y9328586D01*
X12348161Y9353986D01*
X12322761Y9303186D01*
X12348161Y9252386D01*
X12297361Y9277786D01*
X12246561Y9252386D01*
Y8452386D02*
X12271961Y8503186D01*
X12246561Y8553986D01*
X12297361Y8528586D01*
X12348161Y8553986D01*
X12322761Y8503186D01*
X12348161Y8452386D01*
X12297361Y8477786D01*
X12246561Y8452386D01*
X12146561Y8252386D02*
X12171961Y8303186D01*
X12146561Y8353986D01*
X12197361Y8328586D01*
X12248161Y8353986D01*
X12222761Y8303186D01*
X12248161Y8252386D01*
X12197361Y8277786D01*
X12146561Y8252386D01*
X12246561Y8052386D02*
X12271961Y8103186D01*
X12246561Y8153986D01*
X12297361Y8128586D01*
X12348161Y8153986D01*
X12322761Y8103186D01*
X12348161Y8052386D01*
X12297361Y8077786D01*
X12246561Y8052386D01*
Y7652386D02*
X12271961Y7703186D01*
X12246561Y7753986D01*
X12297361Y7728586D01*
X12348161Y7753986D01*
X12322761Y7703186D01*
X12348161Y7652386D01*
X12297361Y7677786D01*
X12246561Y7652386D01*
Y5652384D02*
X12271961Y5703184D01*
X12246561Y5753984D01*
X12297361Y5728584D01*
X12348161Y5753984D01*
X12322761Y5703184D01*
X12348161Y5652384D01*
X12297361Y5677784D01*
X12246561Y5652384D01*
X12146561Y5452384D02*
X12171961Y5503184D01*
X12146561Y5553984D01*
X12197361Y5528584D01*
X12248161Y5553984D01*
X12222761Y5503184D01*
X12248161Y5452384D01*
X12197361Y5477784D01*
X12146561Y5452384D01*
X12246561Y5252384D02*
X12271961Y5303184D01*
X12246561Y5353984D01*
X12297361Y5328584D01*
X12348161Y5353984D01*
X12322761Y5303184D01*
X12348161Y5252384D01*
X12297361Y5277784D01*
X12246561Y5252384D01*
X12146561Y5052384D02*
X12171961Y5103184D01*
X12146561Y5153984D01*
X12197361Y5128584D01*
X12248161Y5153984D01*
X12222761Y5103184D01*
X12248161Y5052384D01*
X12197361Y5077784D01*
X12146561Y5052384D01*
X11946561Y9452386D02*
X11971961Y9503186D01*
X11946561Y9553986D01*
X11997361Y9528586D01*
X12048161Y9553986D01*
X12022761Y9503186D01*
X12048161Y9452386D01*
X11997361Y9477786D01*
X11946561Y9452386D01*
Y9052386D02*
X11971961Y9103186D01*
X11946561Y9153986D01*
X11997361Y9128586D01*
X12048161Y9153986D01*
X12022761Y9103186D01*
X12048161Y9052386D01*
X11997361Y9077786D01*
X11946561Y9052386D01*
X12046561Y8452386D02*
X12071961Y8503186D01*
X12046561Y8553986D01*
X12097361Y8528586D01*
X12148161Y8553986D01*
X12122761Y8503186D01*
X12148161Y8452386D01*
X12097361Y8477786D01*
X12046561Y8452386D01*
X11946561Y8252386D02*
X11971961Y8303186D01*
X11946561Y8353986D01*
X11997361Y8328586D01*
X12048161Y8353986D01*
X12022761Y8303186D01*
X12048161Y8252386D01*
X11997361Y8277786D01*
X11946561Y8252386D01*
X12046561Y8052386D02*
X12071961Y8103186D01*
X12046561Y8153986D01*
X12097361Y8128586D01*
X12148161Y8153986D01*
X12122761Y8103186D01*
X12148161Y8052386D01*
X12097361Y8077786D01*
X12046561Y8052386D01*
Y7652386D02*
X12071961Y7703186D01*
X12046561Y7753986D01*
X12097361Y7728586D01*
X12148161Y7753986D01*
X12122761Y7703186D01*
X12148161Y7652386D01*
X12097361Y7677786D01*
X12046561Y7652386D01*
X11946561Y7452385D02*
X11971961Y7503185D01*
X11946561Y7553985D01*
X11997361Y7528585D01*
X12048161Y7553985D01*
X12022761Y7503185D01*
X12048161Y7452385D01*
X11997361Y7477785D01*
X11946561Y7452385D01*
X12046561Y5652384D02*
X12071961Y5703184D01*
X12046561Y5753984D01*
X12097361Y5728584D01*
X12148161Y5753984D01*
X12122761Y5703184D01*
X12148161Y5652384D01*
X12097361Y5677784D01*
X12046561Y5652384D01*
X11946561Y5452384D02*
X11971961Y5503184D01*
X11946561Y5553984D01*
X11997361Y5528584D01*
X12048161Y5553984D01*
X12022761Y5503184D01*
X12048161Y5452384D01*
X11997361Y5477784D01*
X11946561Y5452384D01*
X12046561Y5252384D02*
X12071961Y5303184D01*
X12046561Y5353984D01*
X12097361Y5328584D01*
X12148161Y5353984D01*
X12122761Y5303184D01*
X12148161Y5252384D01*
X12097361Y5277784D01*
X12046561Y5252384D01*
X11946561Y5052384D02*
X11971961Y5103184D01*
X11946561Y5153984D01*
X11997361Y5128584D01*
X12048161Y5153984D01*
X12022761Y5103184D01*
X12048161Y5052384D01*
X11997361Y5077784D01*
X11946561Y5052384D01*
X11846561Y8852386D02*
X11871961Y8903186D01*
X11846561Y8953986D01*
X11897361Y8928586D01*
X11948161Y8953986D01*
X11922761Y8903186D01*
X11948161Y8852386D01*
X11897361Y8877786D01*
X11846561Y8852386D01*
Y8452386D02*
X11871961Y8503186D01*
X11846561Y8553986D01*
X11897361Y8528586D01*
X11948161Y8553986D01*
X11922761Y8503186D01*
X11948161Y8452386D01*
X11897361Y8477786D01*
X11846561Y8452386D01*
X11746560Y8252386D02*
X11771960Y8303186D01*
X11746560Y8353986D01*
X11797360Y8328586D01*
X11848160Y8353986D01*
X11822760Y8303186D01*
X11848160Y8252386D01*
X11797360Y8277786D01*
X11746560Y8252386D01*
X11846561Y8052386D02*
X11871961Y8103186D01*
X11846561Y8153986D01*
X11897361Y8128586D01*
X11948161Y8153986D01*
X11922761Y8103186D01*
X11948161Y8052386D01*
X11897361Y8077786D01*
X11846561Y8052386D01*
Y7652386D02*
X11871961Y7703186D01*
X11846561Y7753986D01*
X11897361Y7728586D01*
X11948161Y7753986D01*
X11922761Y7703186D01*
X11948161Y7652386D01*
X11897361Y7677786D01*
X11846561Y7652386D01*
X11746560Y7452385D02*
X11771960Y7503185D01*
X11746560Y7553985D01*
X11797360Y7528585D01*
X11848160Y7553985D01*
X11822760Y7503185D01*
X11848160Y7452385D01*
X11797360Y7477785D01*
X11746560Y7452385D01*
X11846561Y7252385D02*
X11871961Y7303185D01*
X11846561Y7353985D01*
X11897361Y7328585D01*
X11948161Y7353985D01*
X11922761Y7303185D01*
X11948161Y7252385D01*
X11897361Y7277785D01*
X11846561Y7252385D01*
Y6052385D02*
X11871961Y6103185D01*
X11846561Y6153985D01*
X11897361Y6128585D01*
X11948161Y6153985D01*
X11922761Y6103185D01*
X11948161Y6052385D01*
X11897361Y6077785D01*
X11846561Y6052385D01*
Y5652384D02*
X11871961Y5703184D01*
X11846561Y5753984D01*
X11897361Y5728584D01*
X11948161Y5753984D01*
X11922761Y5703184D01*
X11948161Y5652384D01*
X11897361Y5677784D01*
X11846561Y5652384D01*
X11746560Y5452384D02*
X11771960Y5503184D01*
X11746560Y5553984D01*
X11797360Y5528584D01*
X11848160Y5553984D01*
X11822760Y5503184D01*
X11848160Y5452384D01*
X11797360Y5477784D01*
X11746560Y5452384D01*
X11846561Y5252384D02*
X11871961Y5303184D01*
X11846561Y5353984D01*
X11897361Y5328584D01*
X11948161Y5353984D01*
X11922761Y5303184D01*
X11948161Y5252384D01*
X11897361Y5277784D01*
X11846561Y5252384D01*
X11746560Y5052384D02*
X11771960Y5103184D01*
X11746560Y5153984D01*
X11797360Y5128584D01*
X11848160Y5153984D01*
X11822760Y5103184D01*
X11848160Y5052384D01*
X11797360Y5077784D01*
X11746560Y5052384D01*
X11546560Y8252386D02*
X11571960Y8303186D01*
X11546560Y8353986D01*
X11597360Y8328586D01*
X11648160Y8353986D01*
X11622760Y8303186D01*
X11648160Y8252386D01*
X11597360Y8277786D01*
X11546560Y8252386D01*
X11646560Y8052386D02*
X11671960Y8103186D01*
X11646560Y8153986D01*
X11697360Y8128586D01*
X11748160Y8153986D01*
X11722760Y8103186D01*
X11748160Y8052386D01*
X11697360Y8077786D01*
X11646560Y8052386D01*
Y7652386D02*
X11671960Y7703186D01*
X11646560Y7753986D01*
X11697360Y7728586D01*
X11748160Y7753986D01*
X11722760Y7703186D01*
X11748160Y7652386D01*
X11697360Y7677786D01*
X11646560Y7652386D01*
Y7252385D02*
X11671960Y7303185D01*
X11646560Y7353985D01*
X11697360Y7328585D01*
X11748160Y7353985D01*
X11722760Y7303185D01*
X11748160Y7252385D01*
X11697360Y7277785D01*
X11646560Y7252385D01*
Y6052385D02*
X11671960Y6103185D01*
X11646560Y6153985D01*
X11697360Y6128585D01*
X11748160Y6153985D01*
X11722760Y6103185D01*
X11748160Y6052385D01*
X11697360Y6077785D01*
X11646560Y6052385D01*
X11546560Y5452384D02*
X11571960Y5503184D01*
X11546560Y5553984D01*
X11597360Y5528584D01*
X11648160Y5553984D01*
X11622760Y5503184D01*
X11648160Y5452384D01*
X11597360Y5477784D01*
X11546560Y5452384D01*
X11646560Y5252384D02*
X11671960Y5303184D01*
X11646560Y5353984D01*
X11697360Y5328584D01*
X11748160Y5353984D01*
X11722760Y5303184D01*
X11748160Y5252384D01*
X11697360Y5277784D01*
X11646560Y5252384D01*
X11546560Y5052384D02*
X11571960Y5103184D01*
X11546560Y5153984D01*
X11597360Y5128584D01*
X11648160Y5153984D01*
X11622760Y5103184D01*
X11648160Y5052384D01*
X11597360Y5077784D01*
X11546560Y5052384D01*
X11446560Y8452386D02*
X11471960Y8503186D01*
X11446560Y8553986D01*
X11497360Y8528586D01*
X11548160Y8553986D01*
X11522760Y8503186D01*
X11548160Y8452386D01*
X11497360Y8477786D01*
X11446560Y8452386D01*
X11346560Y7452385D02*
X11371960Y7503185D01*
X11346560Y7553985D01*
X11397360Y7528585D01*
X11448160Y7553985D01*
X11422760Y7503185D01*
X11448160Y7452385D01*
X11397360Y7477785D01*
X11346560Y7452385D01*
X11446560Y6452385D02*
X11471960Y6503185D01*
X11446560Y6553985D01*
X11497360Y6528585D01*
X11548160Y6553985D01*
X11522760Y6503185D01*
X11548160Y6452385D01*
X11497360Y6477785D01*
X11446560Y6452385D01*
Y5252384D02*
X11471960Y5303184D01*
X11446560Y5353984D01*
X11497360Y5328584D01*
X11548160Y5353984D01*
X11522760Y5303184D01*
X11548160Y5252384D01*
X11497360Y5277784D01*
X11446560Y5252384D01*
X11346560Y5052384D02*
X11371960Y5103184D01*
X11346560Y5153984D01*
X11397360Y5128584D01*
X11448160Y5153984D01*
X11422760Y5103184D01*
X11448160Y5052384D01*
X11397360Y5077784D01*
X11346560Y5052384D01*
X11146560Y9452386D02*
X11171960Y9503186D01*
X11146560Y9553986D01*
X11197360Y9528586D01*
X11248160Y9553986D01*
X11222760Y9503186D01*
X11248160Y9452386D01*
X11197360Y9477786D01*
X11146560Y9452386D01*
Y9052386D02*
X11171960Y9103186D01*
X11146560Y9153986D01*
X11197360Y9128586D01*
X11248160Y9153986D01*
X11222760Y9103186D01*
X11248160Y9052386D01*
X11197360Y9077786D01*
X11146560Y9052386D01*
X11246560Y8452386D02*
X11271960Y8503186D01*
X11246560Y8553986D01*
X11297360Y8528586D01*
X11348160Y8553986D01*
X11322760Y8503186D01*
X11348160Y8452386D01*
X11297360Y8477786D01*
X11246560Y8452386D01*
Y7652386D02*
X11271960Y7703186D01*
X11246560Y7753986D01*
X11297360Y7728586D01*
X11348160Y7753986D01*
X11322760Y7703186D01*
X11348160Y7652386D01*
X11297360Y7677786D01*
X11246560Y7652386D01*
Y7252385D02*
X11271960Y7303185D01*
X11246560Y7353985D01*
X11297360Y7328585D01*
X11348160Y7353985D01*
X11322760Y7303185D01*
X11348160Y7252385D01*
X11297360Y7277785D01*
X11246560Y7252385D01*
X11146560Y7052385D02*
X11171960Y7103185D01*
X11146560Y7153985D01*
X11197360Y7128585D01*
X11248160Y7153985D01*
X11222760Y7103185D01*
X11248160Y7052385D01*
X11197360Y7077785D01*
X11146560Y7052385D01*
X11246560Y5252384D02*
X11271960Y5303184D01*
X11246560Y5353984D01*
X11297360Y5328584D01*
X11348160Y5353984D01*
X11322760Y5303184D01*
X11348160Y5252384D01*
X11297360Y5277784D01*
X11246560Y5252384D01*
X11146560Y5052384D02*
X11171960Y5103184D01*
X11146560Y5153984D01*
X11197360Y5128584D01*
X11248160Y5153984D01*
X11222760Y5103184D01*
X11248160Y5052384D01*
X11197360Y5077784D01*
X11146560Y5052384D01*
X11046560Y9652387D02*
X11071960Y9703187D01*
X11046560Y9753987D01*
X11097360Y9728587D01*
X11148160Y9753987D01*
X11122760Y9703187D01*
X11148160Y9652387D01*
X11097360Y9677787D01*
X11046560Y9652387D01*
X10946560Y9452386D02*
X10971960Y9503186D01*
X10946560Y9553986D01*
X10997360Y9528586D01*
X11048160Y9553986D01*
X11022760Y9503186D01*
X11048160Y9452386D01*
X10997360Y9477786D01*
X10946560Y9452386D01*
X11046560Y9252386D02*
X11071960Y9303186D01*
X11046560Y9353986D01*
X11097360Y9328586D01*
X11148160Y9353986D01*
X11122760Y9303186D01*
X11148160Y9252386D01*
X11097360Y9277786D01*
X11046560Y9252386D01*
Y8452386D02*
X11071960Y8503186D01*
X11046560Y8553986D01*
X11097360Y8528586D01*
X11148160Y8553986D01*
X11122760Y8503186D01*
X11148160Y8452386D01*
X11097360Y8477786D01*
X11046560Y8452386D01*
Y8052386D02*
X11071960Y8103186D01*
X11046560Y8153986D01*
X11097360Y8128586D01*
X11148160Y8153986D01*
X11122760Y8103186D01*
X11148160Y8052386D01*
X11097360Y8077786D01*
X11046560Y8052386D01*
Y7652386D02*
X11071960Y7703186D01*
X11046560Y7753986D01*
X11097360Y7728586D01*
X11148160Y7753986D01*
X11122760Y7703186D01*
X11148160Y7652386D01*
X11097360Y7677786D01*
X11046560Y7652386D01*
X10746560Y9052386D02*
X10771960Y9103186D01*
X10746560Y9153986D01*
X10797360Y9128586D01*
X10848160Y9153986D01*
X10822760Y9103186D01*
X10848160Y9052386D01*
X10797360Y9077786D01*
X10746560Y9052386D01*
X10846560Y7652386D02*
X10871960Y7703186D01*
X10846560Y7753986D01*
X10897360Y7728586D01*
X10948160Y7753986D01*
X10922760Y7703186D01*
X10948160Y7652386D01*
X10897360Y7677786D01*
X10846560Y7652386D01*
X10746560Y6652385D02*
X10771960Y6703185D01*
X10746560Y6753985D01*
X10797360Y6728585D01*
X10848160Y6753985D01*
X10822760Y6703185D01*
X10848160Y6652385D01*
X10797360Y6677785D01*
X10746560Y6652385D01*
X10846560Y5252384D02*
X10871960Y5303184D01*
X10846560Y5353984D01*
X10897360Y5328584D01*
X10948160Y5353984D01*
X10922760Y5303184D01*
X10948160Y5252384D01*
X10897360Y5277784D01*
X10846560Y5252384D01*
X10646560Y9652387D02*
X10671960Y9703187D01*
X10646560Y9753987D01*
X10697360Y9728587D01*
X10748160Y9753987D01*
X10722760Y9703187D01*
X10748160Y9652387D01*
X10697360Y9677787D01*
X10646560Y9652387D01*
X10546560Y9452386D02*
X10571960Y9503186D01*
X10546560Y9553986D01*
X10597360Y9528586D01*
X10648160Y9553986D01*
X10622760Y9503186D01*
X10648160Y9452386D01*
X10597360Y9477786D01*
X10546560Y9452386D01*
Y6652385D02*
X10571960Y6703185D01*
X10546560Y6753985D01*
X10597360Y6728585D01*
X10648160Y6753985D01*
X10622760Y6703185D01*
X10648160Y6652385D01*
X10597360Y6677785D01*
X10546560Y6652385D01*
X10646560Y6452385D02*
X10671960Y6503185D01*
X10646560Y6553985D01*
X10697360Y6528585D01*
X10748160Y6553985D01*
X10722760Y6503185D01*
X10748160Y6452385D01*
X10697360Y6477785D01*
X10646560Y6452385D01*
X10546560Y6252385D02*
X10571960Y6303185D01*
X10546560Y6353985D01*
X10597360Y6328585D01*
X10648160Y6353985D01*
X10622760Y6303185D01*
X10648160Y6252385D01*
X10597360Y6277785D01*
X10546560Y6252385D01*
X10646560Y6052385D02*
X10671960Y6103185D01*
X10646560Y6153985D01*
X10697360Y6128585D01*
X10748160Y6153985D01*
X10722760Y6103185D01*
X10748160Y6052385D01*
X10697360Y6077785D01*
X10646560Y6052385D01*
X10546560Y5852385D02*
X10571960Y5903185D01*
X10546560Y5953985D01*
X10597360Y5928585D01*
X10648160Y5953985D01*
X10622760Y5903185D01*
X10648160Y5852385D01*
X10597360Y5877785D01*
X10546560Y5852385D01*
Y5452384D02*
X10571960Y5503184D01*
X10546560Y5553984D01*
X10597360Y5528584D01*
X10648160Y5553984D01*
X10622760Y5503184D01*
X10648160Y5452384D01*
X10597360Y5477784D01*
X10546560Y5452384D01*
X10646560Y5252384D02*
X10671960Y5303184D01*
X10646560Y5353984D01*
X10697360Y5328584D01*
X10748160Y5353984D01*
X10722760Y5303184D01*
X10748160Y5252384D01*
X10697360Y5277784D01*
X10646560Y5252384D01*
X10446560Y9652387D02*
X10471960Y9703187D01*
X10446560Y9753987D01*
X10497360Y9728587D01*
X10548160Y9753987D01*
X10522760Y9703187D01*
X10548160Y9652387D01*
X10497360Y9677787D01*
X10446560Y9652387D01*
X10346560Y9452386D02*
X10371960Y9503186D01*
X10346560Y9553986D01*
X10397360Y9528586D01*
X10448160Y9553986D01*
X10422760Y9503186D01*
X10448160Y9452386D01*
X10397360Y9477786D01*
X10346560Y9452386D01*
Y6652385D02*
X10371960Y6703185D01*
X10346560Y6753985D01*
X10397360Y6728585D01*
X10448160Y6753985D01*
X10422760Y6703185D01*
X10448160Y6652385D01*
X10397360Y6677785D01*
X10346560Y6652385D01*
X10446560Y6452385D02*
X10471960Y6503185D01*
X10446560Y6553985D01*
X10497360Y6528585D01*
X10548160Y6553985D01*
X10522760Y6503185D01*
X10548160Y6452385D01*
X10497360Y6477785D01*
X10446560Y6452385D01*
X10346560Y6252385D02*
X10371960Y6303185D01*
X10346560Y6353985D01*
X10397360Y6328585D01*
X10448160Y6353985D01*
X10422760Y6303185D01*
X10448160Y6252385D01*
X10397360Y6277785D01*
X10346560Y6252385D01*
X10446560Y6052385D02*
X10471960Y6103185D01*
X10446560Y6153985D01*
X10497360Y6128585D01*
X10548160Y6153985D01*
X10522760Y6103185D01*
X10548160Y6052385D01*
X10497360Y6077785D01*
X10446560Y6052385D01*
X10346560Y5852385D02*
X10371960Y5903185D01*
X10346560Y5953985D01*
X10397360Y5928585D01*
X10448160Y5953985D01*
X10422760Y5903185D01*
X10448160Y5852385D01*
X10397360Y5877785D01*
X10346560Y5852385D01*
X10446560Y5652384D02*
X10471960Y5703184D01*
X10446560Y5753984D01*
X10497360Y5728584D01*
X10548160Y5753984D01*
X10522760Y5703184D01*
X10548160Y5652384D01*
X10497360Y5677784D01*
X10446560Y5652384D01*
X10346560Y5452384D02*
X10371960Y5503184D01*
X10346560Y5553984D01*
X10397360Y5528584D01*
X10448160Y5553984D01*
X10422760Y5503184D01*
X10448160Y5452384D01*
X10397360Y5477784D01*
X10346560Y5452384D01*
X10446560Y5252384D02*
X10471960Y5303184D01*
X10446560Y5353984D01*
X10497360Y5328584D01*
X10548160Y5353984D01*
X10522760Y5303184D01*
X10548160Y5252384D01*
X10497360Y5277784D01*
X10446560Y5252384D01*
X10246560Y9652387D02*
X10271960Y9703187D01*
X10246560Y9753987D01*
X10297360Y9728587D01*
X10348160Y9753987D01*
X10322760Y9703187D01*
X10348160Y9652387D01*
X10297360Y9677787D01*
X10246560Y9652387D01*
X10146560Y9452386D02*
X10171960Y9503186D01*
X10146560Y9553986D01*
X10197360Y9528586D01*
X10248160Y9553986D01*
X10222760Y9503186D01*
X10248160Y9452386D01*
X10197360Y9477786D01*
X10146560Y9452386D01*
X10246560Y9252386D02*
X10271960Y9303186D01*
X10246560Y9353986D01*
X10297360Y9328586D01*
X10348160Y9353986D01*
X10322760Y9303186D01*
X10348160Y9252386D01*
X10297360Y9277786D01*
X10246560Y9252386D01*
X10146560Y6652385D02*
X10171960Y6703185D01*
X10146560Y6753985D01*
X10197360Y6728585D01*
X10248160Y6753985D01*
X10222760Y6703185D01*
X10248160Y6652385D01*
X10197360Y6677785D01*
X10146560Y6652385D01*
X10246560Y6452385D02*
X10271960Y6503185D01*
X10246560Y6553985D01*
X10297360Y6528585D01*
X10348160Y6553985D01*
X10322760Y6503185D01*
X10348160Y6452385D01*
X10297360Y6477785D01*
X10246560Y6452385D01*
X10146560Y6252385D02*
X10171960Y6303185D01*
X10146560Y6353985D01*
X10197360Y6328585D01*
X10248160Y6353985D01*
X10222760Y6303185D01*
X10248160Y6252385D01*
X10197360Y6277785D01*
X10146560Y6252385D01*
X10246560Y6052385D02*
X10271960Y6103185D01*
X10246560Y6153985D01*
X10297360Y6128585D01*
X10348160Y6153985D01*
X10322760Y6103185D01*
X10348160Y6052385D01*
X10297360Y6077785D01*
X10246560Y6052385D01*
X10146560Y5852385D02*
X10171960Y5903185D01*
X10146560Y5953985D01*
X10197360Y5928585D01*
X10248160Y5953985D01*
X10222760Y5903185D01*
X10248160Y5852385D01*
X10197360Y5877785D01*
X10146560Y5852385D01*
X10246560Y5652384D02*
X10271960Y5703184D01*
X10246560Y5753984D01*
X10297360Y5728584D01*
X10348160Y5753984D01*
X10322760Y5703184D01*
X10348160Y5652384D01*
X10297360Y5677784D01*
X10246560Y5652384D01*
X10146560Y5452384D02*
X10171960Y5503184D01*
X10146560Y5553984D01*
X10197360Y5528584D01*
X10248160Y5553984D01*
X10222760Y5503184D01*
X10248160Y5452384D01*
X10197360Y5477784D01*
X10146560Y5452384D01*
X10246560Y5252384D02*
X10271960Y5303184D01*
X10246560Y5353984D01*
X10297360Y5328584D01*
X10348160Y5353984D01*
X10322760Y5303184D01*
X10348160Y5252384D01*
X10297360Y5277784D01*
X10246560Y5252384D01*
X10046560Y9652387D02*
X10071960Y9703187D01*
X10046560Y9753987D01*
X10097360Y9728587D01*
X10148160Y9753987D01*
X10122760Y9703187D01*
X10148160Y9652387D01*
X10097360Y9677787D01*
X10046560Y9652387D01*
Y5252384D02*
X10071960Y5303184D01*
X10046560Y5353984D01*
X10097360Y5328584D01*
X10148160Y5353984D01*
X10122760Y5303184D01*
X10148160Y5252384D01*
X10097360Y5277784D01*
X10046560Y5252384D01*
X9846559Y9652387D02*
X9871959Y9703187D01*
X9846559Y9753987D01*
X9897359Y9728587D01*
X9948159Y9753987D01*
X9922759Y9703187D01*
X9948159Y9652387D01*
X9897359Y9677787D01*
X9846559Y9652387D01*
Y9252386D02*
X9871959Y9303186D01*
X9846559Y9353986D01*
X9897359Y9328586D01*
X9948159Y9353986D01*
X9922759Y9303186D01*
X9948159Y9252386D01*
X9897359Y9277786D01*
X9846559Y9252386D01*
Y8452386D02*
X9871959Y8503186D01*
X9846559Y8553986D01*
X9897359Y8528586D01*
X9948159Y8553986D01*
X9922759Y8503186D01*
X9948159Y8452386D01*
X9897359Y8477786D01*
X9846559Y8452386D01*
Y7252385D02*
X9871959Y7303185D01*
X9846559Y7353985D01*
X9897359Y7328585D01*
X9948159Y7353985D01*
X9922759Y7303185D01*
X9948159Y7252385D01*
X9897359Y7277785D01*
X9846559Y7252385D01*
Y6452385D02*
X9871959Y6503185D01*
X9846559Y6553985D01*
X9897359Y6528585D01*
X9948159Y6553985D01*
X9922759Y6503185D01*
X9948159Y6452385D01*
X9897359Y6477785D01*
X9846559Y6452385D01*
X9746559Y6252385D02*
X9771959Y6303185D01*
X9746559Y6353985D01*
X9797359Y6328585D01*
X9848159Y6353985D01*
X9822759Y6303185D01*
X9848159Y6252385D01*
X9797359Y6277785D01*
X9746559Y6252385D01*
X9846559Y6052385D02*
X9871959Y6103185D01*
X9846559Y6153985D01*
X9897359Y6128585D01*
X9948159Y6153985D01*
X9922759Y6103185D01*
X9948159Y6052385D01*
X9897359Y6077785D01*
X9846559Y6052385D01*
X9746559Y5852385D02*
X9771959Y5903185D01*
X9746559Y5953985D01*
X9797359Y5928585D01*
X9848159Y5953985D01*
X9822759Y5903185D01*
X9848159Y5852385D01*
X9797359Y5877785D01*
X9746559Y5852385D01*
X9546559Y9452386D02*
X9571959Y9503186D01*
X9546559Y9553986D01*
X9597359Y9528586D01*
X9648159Y9553986D01*
X9622759Y9503186D01*
X9648159Y9452386D01*
X9597359Y9477786D01*
X9546559Y9452386D01*
Y8252386D02*
X9571959Y8303186D01*
X9546559Y8353986D01*
X9597359Y8328586D01*
X9648159Y8353986D01*
X9622759Y8303186D01*
X9648159Y8252386D01*
X9597359Y8277786D01*
X9546559Y8252386D01*
Y7452385D02*
X9571959Y7503185D01*
X9546559Y7553985D01*
X9597359Y7528585D01*
X9648159Y7553985D01*
X9622759Y7503185D01*
X9648159Y7452385D01*
X9597359Y7477785D01*
X9546559Y7452385D01*
X9646559Y7252385D02*
X9671959Y7303185D01*
X9646559Y7353985D01*
X9697359Y7328585D01*
X9748159Y7353985D01*
X9722759Y7303185D01*
X9748159Y7252385D01*
X9697359Y7277785D01*
X9646559Y7252385D01*
X9546559Y7052385D02*
X9571959Y7103185D01*
X9546559Y7153985D01*
X9597359Y7128585D01*
X9648159Y7153985D01*
X9622759Y7103185D01*
X9648159Y7052385D01*
X9597359Y7077785D01*
X9546559Y7052385D01*
X9346559Y9452386D02*
X9371959Y9503186D01*
X9346559Y9553986D01*
X9397359Y9528586D01*
X9448159Y9553986D01*
X9422759Y9503186D01*
X9448159Y9452386D01*
X9397359Y9477786D01*
X9346559Y9452386D01*
Y8652386D02*
X9371959Y8703186D01*
X9346559Y8753986D01*
X9397359Y8728586D01*
X9448159Y8753986D01*
X9422759Y8703186D01*
X9448159Y8652386D01*
X9397359Y8677786D01*
X9346559Y8652386D01*
X9446559Y8452386D02*
X9471959Y8503186D01*
X9446559Y8553986D01*
X9497359Y8528586D01*
X9548159Y8553986D01*
X9522759Y8503186D01*
X9548159Y8452386D01*
X9497359Y8477786D01*
X9446559Y8452386D01*
X9346559Y8252386D02*
X9371959Y8303186D01*
X9346559Y8353986D01*
X9397359Y8328586D01*
X9448159Y8353986D01*
X9422759Y8303186D01*
X9448159Y8252386D01*
X9397359Y8277786D01*
X9346559Y8252386D01*
X9446559Y7252385D02*
X9471959Y7303185D01*
X9446559Y7353985D01*
X9497359Y7328585D01*
X9548159Y7353985D01*
X9522759Y7303185D01*
X9548159Y7252385D01*
X9497359Y7277785D01*
X9446559Y7252385D01*
Y6852385D02*
X9471959Y6903185D01*
X9446559Y6953985D01*
X9497359Y6928585D01*
X9548159Y6953985D01*
X9522759Y6903185D01*
X9548159Y6852385D01*
X9497359Y6877785D01*
X9446559Y6852385D01*
X9346559Y6652385D02*
X9371959Y6703185D01*
X9346559Y6753985D01*
X9397359Y6728585D01*
X9448159Y6753985D01*
X9422759Y6703185D01*
X9448159Y6652385D01*
X9397359Y6677785D01*
X9346559Y6652385D01*
Y6252385D02*
X9371959Y6303185D01*
X9346559Y6353985D01*
X9397359Y6328585D01*
X9448159Y6353985D01*
X9422759Y6303185D01*
X9448159Y6252385D01*
X9397359Y6277785D01*
X9346559Y6252385D01*
X9146559Y8652386D02*
X9171959Y8703186D01*
X9146559Y8753986D01*
X9197359Y8728586D01*
X9248159Y8753986D01*
X9222759Y8703186D01*
X9248159Y8652386D01*
X9197359Y8677786D01*
X9146559Y8652386D01*
Y8252386D02*
X9171959Y8303186D01*
X9146559Y8353986D01*
X9197359Y8328586D01*
X9248159Y8353986D01*
X9222759Y8303186D01*
X9248159Y8252386D01*
X9197359Y8277786D01*
X9146559Y8252386D01*
X9246559Y8052386D02*
X9271959Y8103186D01*
X9246559Y8153986D01*
X9297359Y8128586D01*
X9348159Y8153986D01*
X9322759Y8103186D01*
X9348159Y8052386D01*
X9297359Y8077786D01*
X9246559Y8052386D01*
X9146559Y7852386D02*
X9171959Y7903186D01*
X9146559Y7953986D01*
X9197359Y7928586D01*
X9248159Y7953986D01*
X9222759Y7903186D01*
X9248159Y7852386D01*
X9197359Y7877786D01*
X9146559Y7852386D01*
X9246559Y6452385D02*
X9271959Y6503185D01*
X9246559Y6553985D01*
X9297359Y6528585D01*
X9348159Y6553985D01*
X9322759Y6503185D01*
X9348159Y6452385D01*
X9297359Y6477785D01*
X9246559Y6452385D01*
X9146559Y6252385D02*
X9171959Y6303185D01*
X9146559Y6353985D01*
X9197359Y6328585D01*
X9248159Y6353985D01*
X9222759Y6303185D01*
X9248159Y6252385D01*
X9197359Y6277785D01*
X9146559Y6252385D01*
X9246559Y6052385D02*
X9271959Y6103185D01*
X9246559Y6153985D01*
X9297359Y6128585D01*
X9348159Y6153985D01*
X9322759Y6103185D01*
X9348159Y6052385D01*
X9297359Y6077785D01*
X9246559Y6052385D01*
X9146559Y5052384D02*
X9171959Y5103184D01*
X9146559Y5153984D01*
X9197359Y5128584D01*
X9248159Y5153984D01*
X9222759Y5103184D01*
X9248159Y5052384D01*
X9197359Y5077784D01*
X9146559Y5052384D01*
X8946559Y8252386D02*
X8971959Y8303186D01*
X8946559Y8353986D01*
X8997359Y8328586D01*
X9048159Y8353986D01*
X9022759Y8303186D01*
X9048159Y8252386D01*
X8997359Y8277786D01*
X8946559Y8252386D01*
X9046559Y8052386D02*
X9071959Y8103186D01*
X9046559Y8153986D01*
X9097359Y8128586D01*
X9148159Y8153986D01*
X9122759Y8103186D01*
X9148159Y8052386D01*
X9097359Y8077786D01*
X9046559Y8052386D01*
X8946559Y7852386D02*
X8971959Y7903186D01*
X8946559Y7953986D01*
X8997359Y7928586D01*
X9048159Y7953986D01*
X9022759Y7903186D01*
X9048159Y7852386D01*
X8997359Y7877786D01*
X8946559Y7852386D01*
X9046559Y6452385D02*
X9071959Y6503185D01*
X9046559Y6553985D01*
X9097359Y6528585D01*
X9148159Y6553985D01*
X9122759Y6503185D01*
X9148159Y6452385D01*
X9097359Y6477785D01*
X9046559Y6452385D01*
X8946559Y6252385D02*
X8971959Y6303185D01*
X8946559Y6353985D01*
X8997359Y6328585D01*
X9048159Y6353985D01*
X9022759Y6303185D01*
X9048159Y6252385D01*
X8997359Y6277785D01*
X8946559Y6252385D01*
X9046559Y6052385D02*
X9071959Y6103185D01*
X9046559Y6153985D01*
X9097359Y6128585D01*
X9148159Y6153985D01*
X9122759Y6103185D01*
X9148159Y6052385D01*
X9097359Y6077785D01*
X9046559Y6052385D01*
X8946559Y5852385D02*
X8971959Y5903185D01*
X8946559Y5953985D01*
X8997359Y5928585D01*
X9048159Y5953985D01*
X9022759Y5903185D01*
X9048159Y5852385D01*
X8997359Y5877785D01*
X8946559Y5852385D01*
Y5452384D02*
X8971959Y5503184D01*
X8946559Y5553984D01*
X8997359Y5528584D01*
X9048159Y5553984D01*
X9022759Y5503184D01*
X9048159Y5452384D01*
X8997359Y5477784D01*
X8946559Y5452384D01*
Y5052384D02*
X8971959Y5103184D01*
X8946559Y5153984D01*
X8997359Y5128584D01*
X9048159Y5153984D01*
X9022759Y5103184D01*
X9048159Y5052384D01*
X8997359Y5077784D01*
X8946559Y5052384D01*
X8746559Y9452386D02*
X8771959Y9503186D01*
X8746559Y9553986D01*
X8797359Y9528586D01*
X8848159Y9553986D01*
X8822759Y9503186D01*
X8848159Y9452386D01*
X8797359Y9477786D01*
X8746559Y9452386D01*
Y9052386D02*
X8771959Y9103186D01*
X8746559Y9153986D01*
X8797359Y9128586D01*
X8848159Y9153986D01*
X8822759Y9103186D01*
X8848159Y9052386D01*
X8797359Y9077786D01*
X8746559Y9052386D01*
Y8652386D02*
X8771959Y8703186D01*
X8746559Y8753986D01*
X8797359Y8728586D01*
X8848159Y8753986D01*
X8822759Y8703186D01*
X8848159Y8652386D01*
X8797359Y8677786D01*
X8746559Y8652386D01*
Y8252386D02*
X8771959Y8303186D01*
X8746559Y8353986D01*
X8797359Y8328586D01*
X8848159Y8353986D01*
X8822759Y8303186D01*
X8848159Y8252386D01*
X8797359Y8277786D01*
X8746559Y8252386D01*
X8846559Y8052386D02*
X8871959Y8103186D01*
X8846559Y8153986D01*
X8897359Y8128586D01*
X8948159Y8153986D01*
X8922759Y8103186D01*
X8948159Y8052386D01*
X8897359Y8077786D01*
X8846559Y8052386D01*
X8746559Y7852386D02*
X8771959Y7903186D01*
X8746559Y7953986D01*
X8797359Y7928586D01*
X8848159Y7953986D01*
X8822759Y7903186D01*
X8848159Y7852386D01*
X8797359Y7877786D01*
X8746559Y7852386D01*
X8846559Y7652386D02*
X8871959Y7703186D01*
X8846559Y7753986D01*
X8897359Y7728586D01*
X8948159Y7753986D01*
X8922759Y7703186D01*
X8948159Y7652386D01*
X8897359Y7677786D01*
X8846559Y7652386D01*
X8746559Y7452385D02*
X8771959Y7503185D01*
X8746559Y7553985D01*
X8797359Y7528585D01*
X8848159Y7553985D01*
X8822759Y7503185D01*
X8848159Y7452385D01*
X8797359Y7477785D01*
X8746559Y7452385D01*
Y7052385D02*
X8771959Y7103185D01*
X8746559Y7153985D01*
X8797359Y7128585D01*
X8848159Y7153985D01*
X8822759Y7103185D01*
X8848159Y7052385D01*
X8797359Y7077785D01*
X8746559Y7052385D01*
Y6652385D02*
X8771959Y6703185D01*
X8746559Y6753985D01*
X8797359Y6728585D01*
X8848159Y6753985D01*
X8822759Y6703185D01*
X8848159Y6652385D01*
X8797359Y6677785D01*
X8746559Y6652385D01*
X8846559Y6452385D02*
X8871959Y6503185D01*
X8846559Y6553985D01*
X8897359Y6528585D01*
X8948159Y6553985D01*
X8922759Y6503185D01*
X8948159Y6452385D01*
X8897359Y6477785D01*
X8846559Y6452385D01*
X8746559Y6252385D02*
X8771959Y6303185D01*
X8746559Y6353985D01*
X8797359Y6328585D01*
X8848159Y6353985D01*
X8822759Y6303185D01*
X8848159Y6252385D01*
X8797359Y6277785D01*
X8746559Y6252385D01*
X8846559Y6052385D02*
X8871959Y6103185D01*
X8846559Y6153985D01*
X8897359Y6128585D01*
X8948159Y6153985D01*
X8922759Y6103185D01*
X8948159Y6052385D01*
X8897359Y6077785D01*
X8846559Y6052385D01*
X8746559Y5852385D02*
X8771959Y5903185D01*
X8746559Y5953985D01*
X8797359Y5928585D01*
X8848159Y5953985D01*
X8822759Y5903185D01*
X8848159Y5852385D01*
X8797359Y5877785D01*
X8746559Y5852385D01*
X8846559Y5652384D02*
X8871959Y5703184D01*
X8846559Y5753984D01*
X8897359Y5728584D01*
X8948159Y5753984D01*
X8922759Y5703184D01*
X8948159Y5652384D01*
X8897359Y5677784D01*
X8846559Y5652384D01*
X8746559Y5452384D02*
X8771959Y5503184D01*
X8746559Y5553984D01*
X8797359Y5528584D01*
X8848159Y5553984D01*
X8822759Y5503184D01*
X8848159Y5452384D01*
X8797359Y5477784D01*
X8746559Y5452384D01*
X8846559Y5252384D02*
X8871959Y5303184D01*
X8846559Y5353984D01*
X8897359Y5328584D01*
X8948159Y5353984D01*
X8922759Y5303184D01*
X8948159Y5252384D01*
X8897359Y5277784D01*
X8846559Y5252384D01*
X8746559Y5052384D02*
X8771959Y5103184D01*
X8746559Y5153984D01*
X8797359Y5128584D01*
X8848159Y5153984D01*
X8822759Y5103184D01*
X8848159Y5052384D01*
X8797359Y5077784D01*
X8746559Y5052384D01*
X8646559Y9652387D02*
X8671959Y9703187D01*
X8646559Y9753987D01*
X8697359Y9728587D01*
X8748159Y9753987D01*
X8722759Y9703187D01*
X8748159Y9652387D01*
X8697359Y9677787D01*
X8646559Y9652387D01*
X8546559Y9452386D02*
X8571959Y9503186D01*
X8546559Y9553986D01*
X8597359Y9528586D01*
X8648159Y9553986D01*
X8622759Y9503186D01*
X8648159Y9452386D01*
X8597359Y9477786D01*
X8546559Y9452386D01*
X8646559Y9252386D02*
X8671959Y9303186D01*
X8646559Y9353986D01*
X8697359Y9328586D01*
X8748159Y9353986D01*
X8722759Y9303186D01*
X8748159Y9252386D01*
X8697359Y9277786D01*
X8646559Y9252386D01*
X8546559Y9052386D02*
X8571959Y9103186D01*
X8546559Y9153986D01*
X8597359Y9128586D01*
X8648159Y9153986D01*
X8622759Y9103186D01*
X8648159Y9052386D01*
X8597359Y9077786D01*
X8546559Y9052386D01*
Y8652386D02*
X8571959Y8703186D01*
X8546559Y8753986D01*
X8597359Y8728586D01*
X8648159Y8753986D01*
X8622759Y8703186D01*
X8648159Y8652386D01*
X8597359Y8677786D01*
X8546559Y8652386D01*
X8646559Y8452386D02*
X8671959Y8503186D01*
X8646559Y8553986D01*
X8697359Y8528586D01*
X8748159Y8553986D01*
X8722759Y8503186D01*
X8748159Y8452386D01*
X8697359Y8477786D01*
X8646559Y8452386D01*
X8546559Y8252386D02*
X8571959Y8303186D01*
X8546559Y8353986D01*
X8597359Y8328586D01*
X8648159Y8353986D01*
X8622759Y8303186D01*
X8648159Y8252386D01*
X8597359Y8277786D01*
X8546559Y8252386D01*
X8646559Y8052386D02*
X8671959Y8103186D01*
X8646559Y8153986D01*
X8697359Y8128586D01*
X8748159Y8153986D01*
X8722759Y8103186D01*
X8748159Y8052386D01*
X8697359Y8077786D01*
X8646559Y8052386D01*
X8546559Y7852386D02*
X8571959Y7903186D01*
X8546559Y7953986D01*
X8597359Y7928586D01*
X8648159Y7953986D01*
X8622759Y7903186D01*
X8648159Y7852386D01*
X8597359Y7877786D01*
X8546559Y7852386D01*
X8646559Y7652386D02*
X8671959Y7703186D01*
X8646559Y7753986D01*
X8697359Y7728586D01*
X8748159Y7753986D01*
X8722759Y7703186D01*
X8748159Y7652386D01*
X8697359Y7677786D01*
X8646559Y7652386D01*
X8546559Y7452385D02*
X8571959Y7503185D01*
X8546559Y7553985D01*
X8597359Y7528585D01*
X8648159Y7553985D01*
X8622759Y7503185D01*
X8648159Y7452385D01*
X8597359Y7477785D01*
X8546559Y7452385D01*
X8646559Y7252385D02*
X8671959Y7303185D01*
X8646559Y7353985D01*
X8697359Y7328585D01*
X8748159Y7353985D01*
X8722759Y7303185D01*
X8748159Y7252385D01*
X8697359Y7277785D01*
X8646559Y7252385D01*
X8546559Y7052385D02*
X8571959Y7103185D01*
X8546559Y7153985D01*
X8597359Y7128585D01*
X8648159Y7153985D01*
X8622759Y7103185D01*
X8648159Y7052385D01*
X8597359Y7077785D01*
X8546559Y7052385D01*
X8646559Y6852385D02*
X8671959Y6903185D01*
X8646559Y6953985D01*
X8697359Y6928585D01*
X8748159Y6953985D01*
X8722759Y6903185D01*
X8748159Y6852385D01*
X8697359Y6877785D01*
X8646559Y6852385D01*
X8546559Y6652385D02*
X8571959Y6703185D01*
X8546559Y6753985D01*
X8597359Y6728585D01*
X8648159Y6753985D01*
X8622759Y6703185D01*
X8648159Y6652385D01*
X8597359Y6677785D01*
X8546559Y6652385D01*
X8646559Y6452385D02*
X8671959Y6503185D01*
X8646559Y6553985D01*
X8697359Y6528585D01*
X8748159Y6553985D01*
X8722759Y6503185D01*
X8748159Y6452385D01*
X8697359Y6477785D01*
X8646559Y6452385D01*
X8546559Y6252385D02*
X8571959Y6303185D01*
X8546559Y6353985D01*
X8597359Y6328585D01*
X8648159Y6353985D01*
X8622759Y6303185D01*
X8648159Y6252385D01*
X8597359Y6277785D01*
X8546559Y6252385D01*
X8646559Y6052385D02*
X8671959Y6103185D01*
X8646559Y6153985D01*
X8697359Y6128585D01*
X8748159Y6153985D01*
X8722759Y6103185D01*
X8748159Y6052385D01*
X8697359Y6077785D01*
X8646559Y6052385D01*
X8546559Y5852385D02*
X8571959Y5903185D01*
X8546559Y5953985D01*
X8597359Y5928585D01*
X8648159Y5953985D01*
X8622759Y5903185D01*
X8648159Y5852385D01*
X8597359Y5877785D01*
X8546559Y5852385D01*
X8646559Y5652384D02*
X8671959Y5703184D01*
X8646559Y5753984D01*
X8697359Y5728584D01*
X8748159Y5753984D01*
X8722759Y5703184D01*
X8748159Y5652384D01*
X8697359Y5677784D01*
X8646559Y5652384D01*
X8546559Y5452384D02*
X8571959Y5503184D01*
X8546559Y5553984D01*
X8597359Y5528584D01*
X8648159Y5553984D01*
X8622759Y5503184D01*
X8648159Y5452384D01*
X8597359Y5477784D01*
X8546559Y5452384D01*
X8646559Y5252384D02*
X8671959Y5303184D01*
X8646559Y5353984D01*
X8697359Y5328584D01*
X8748159Y5353984D01*
X8722759Y5303184D01*
X8748159Y5252384D01*
X8697359Y5277784D01*
X8646559Y5252384D01*
X8546559Y5052384D02*
X8571959Y5103184D01*
X8546559Y5153984D01*
X8597359Y5128584D01*
X8648159Y5153984D01*
X8622759Y5103184D01*
X8648159Y5052384D01*
X8597359Y5077784D01*
X8546559Y5052384D01*
X8446559Y9252386D02*
X8471959Y9303186D01*
X8446559Y9353986D01*
X8497359Y9328586D01*
X8548159Y9353986D01*
X8522759Y9303186D01*
X8548159Y9252386D01*
X8497359Y9277786D01*
X8446559Y9252386D01*
X8346559Y9052386D02*
X8371959Y9103186D01*
X8346559Y9153986D01*
X8397359Y9128586D01*
X8448159Y9153986D01*
X8422759Y9103186D01*
X8448159Y9052386D01*
X8397359Y9077786D01*
X8346559Y9052386D01*
X8446559Y8852386D02*
X8471959Y8903186D01*
X8446559Y8953986D01*
X8497359Y8928586D01*
X8548159Y8953986D01*
X8522759Y8903186D01*
X8548159Y8852386D01*
X8497359Y8877786D01*
X8446559Y8852386D01*
X8346559Y8652386D02*
X8371959Y8703186D01*
X8346559Y8753986D01*
X8397359Y8728586D01*
X8448159Y8753986D01*
X8422759Y8703186D01*
X8448159Y8652386D01*
X8397359Y8677786D01*
X8346559Y8652386D01*
X8446559Y8452386D02*
X8471959Y8503186D01*
X8446559Y8553986D01*
X8497359Y8528586D01*
X8548159Y8553986D01*
X8522759Y8503186D01*
X8548159Y8452386D01*
X8497359Y8477786D01*
X8446559Y8452386D01*
X8346559Y8252386D02*
X8371959Y8303186D01*
X8346559Y8353986D01*
X8397359Y8328586D01*
X8448159Y8353986D01*
X8422759Y8303186D01*
X8448159Y8252386D01*
X8397359Y8277786D01*
X8346559Y8252386D01*
X8446559Y8052386D02*
X8471959Y8103186D01*
X8446559Y8153986D01*
X8497359Y8128586D01*
X8548159Y8153986D01*
X8522759Y8103186D01*
X8548159Y8052386D01*
X8497359Y8077786D01*
X8446559Y8052386D01*
X8346559Y7852386D02*
X8371959Y7903186D01*
X8346559Y7953986D01*
X8397359Y7928586D01*
X8448159Y7953986D01*
X8422759Y7903186D01*
X8448159Y7852386D01*
X8397359Y7877786D01*
X8346559Y7852386D01*
X8446559Y7652386D02*
X8471959Y7703186D01*
X8446559Y7753986D01*
X8497359Y7728586D01*
X8548159Y7753986D01*
X8522759Y7703186D01*
X8548159Y7652386D01*
X8497359Y7677786D01*
X8446559Y7652386D01*
X8346559Y7452385D02*
X8371959Y7503185D01*
X8346559Y7553985D01*
X8397359Y7528585D01*
X8448159Y7553985D01*
X8422759Y7503185D01*
X8448159Y7452385D01*
X8397359Y7477785D01*
X8346559Y7452385D01*
X8446559Y7252385D02*
X8471959Y7303185D01*
X8446559Y7353985D01*
X8497359Y7328585D01*
X8548159Y7353985D01*
X8522759Y7303185D01*
X8548159Y7252385D01*
X8497359Y7277785D01*
X8446559Y7252385D01*
X8346559Y7052385D02*
X8371959Y7103185D01*
X8346559Y7153985D01*
X8397359Y7128585D01*
X8448159Y7153985D01*
X8422759Y7103185D01*
X8448159Y7052385D01*
X8397359Y7077785D01*
X8346559Y7052385D01*
X8446559Y6852385D02*
X8471959Y6903185D01*
X8446559Y6953985D01*
X8497359Y6928585D01*
X8548159Y6953985D01*
X8522759Y6903185D01*
X8548159Y6852385D01*
X8497359Y6877785D01*
X8446559Y6852385D01*
X8346559Y6652385D02*
X8371959Y6703185D01*
X8346559Y6753985D01*
X8397359Y6728585D01*
X8448159Y6753985D01*
X8422759Y6703185D01*
X8448159Y6652385D01*
X8397359Y6677785D01*
X8346559Y6652385D01*
X8446559Y6452385D02*
X8471959Y6503185D01*
X8446559Y6553985D01*
X8497359Y6528585D01*
X8548159Y6553985D01*
X8522759Y6503185D01*
X8548159Y6452385D01*
X8497359Y6477785D01*
X8446559Y6452385D01*
X8346559Y6252385D02*
X8371959Y6303185D01*
X8346559Y6353985D01*
X8397359Y6328585D01*
X8448159Y6353985D01*
X8422759Y6303185D01*
X8448159Y6252385D01*
X8397359Y6277785D01*
X8346559Y6252385D01*
X8446559Y6052385D02*
X8471959Y6103185D01*
X8446559Y6153985D01*
X8497359Y6128585D01*
X8548159Y6153985D01*
X8522759Y6103185D01*
X8548159Y6052385D01*
X8497359Y6077785D01*
X8446559Y6052385D01*
X8346559Y5852385D02*
X8371959Y5903185D01*
X8346559Y5953985D01*
X8397359Y5928585D01*
X8448159Y5953985D01*
X8422759Y5903185D01*
X8448159Y5852385D01*
X8397359Y5877785D01*
X8346559Y5852385D01*
X8446559Y5652384D02*
X8471959Y5703184D01*
X8446559Y5753984D01*
X8497359Y5728584D01*
X8548159Y5753984D01*
X8522759Y5703184D01*
X8548159Y5652384D01*
X8497359Y5677784D01*
X8446559Y5652384D01*
X8346559Y5452384D02*
X8371959Y5503184D01*
X8346559Y5553984D01*
X8397359Y5528584D01*
X8448159Y5553984D01*
X8422759Y5503184D01*
X8448159Y5452384D01*
X8397359Y5477784D01*
X8346559Y5452384D01*
X12101115Y6166668D02*
Y6268268D01*
X12202715D01*
Y6166668D01*
X12101115D01*
X9725597Y8354732D02*
Y8456332D01*
X9827197D01*
Y8354732D01*
X9725597D01*
X9444815Y8797559D02*
Y8899159D01*
X9546415D01*
Y8797559D01*
X9444815D01*
X8886434Y8620351D02*
Y8721951D01*
X8988034D01*
Y8620351D01*
X8886434D01*
X11059950Y6372505D02*
Y6474105D01*
X11161550D01*
Y6372505D01*
X11059950D01*
X10857352Y6888332D02*
Y6989932D01*
X10958952D01*
Y6888332D01*
X10857352D01*
X9609311Y8969144D02*
Y9070744D01*
X9710911D01*
Y8969144D01*
X9609311D01*
X11287064Y6329816D02*
Y6431416D01*
X11388664D01*
Y6329816D01*
X11287064D01*
X9884367Y7927451D02*
Y8029051D01*
X9985967D01*
Y7927451D01*
X9884367D01*
X10917209Y8226365D02*
Y8327965D01*
X11018809D01*
Y8226365D01*
X10917209D01*
X9817553Y8188641D02*
Y8290241D01*
X9919153D01*
Y8188641D01*
X9817553D01*
X9659108Y7491185D02*
Y7592785D01*
X9760708D01*
Y7491185D01*
X9659108D01*
X9739200Y7679200D02*
Y7780800D01*
X9840800D01*
Y7679200D01*
X9739200D01*
X9163363Y6607516D02*
Y6709116D01*
X9264963D01*
Y6607516D01*
X9163363D01*
X9342398Y7091004D02*
Y7192604D01*
X9443998D01*
Y7091004D01*
X9342398D01*
X8618011Y8798081D02*
Y8899681D01*
X8719611D01*
Y8798081D01*
X8618011D01*
X8978900Y5549900D02*
Y5651500D01*
X9080500D01*
Y5549900D01*
X8978900D01*
X12141200Y6781800D02*
Y6883400D01*
X12242800D01*
Y6781800D01*
X12141200D01*
X12086092Y6322667D02*
Y6424267D01*
X12187692D01*
Y6322667D01*
X12086092D01*
X12462108Y7986244D02*
Y8087844D01*
X12563708D01*
Y7986244D01*
X12462108D01*
X11226800Y9664700D02*
Y9766300D01*
X11328400D01*
Y9664700D01*
X11226800D01*
X10091208Y9048108D02*
Y9149708D01*
X10192808D01*
Y9048108D01*
X10091208D01*
X9461500Y9652000D02*
Y9753600D01*
X9563100D01*
Y9652000D01*
X9461500D01*
X9716728Y9318161D02*
Y9419761D01*
X9818328D01*
Y9318161D01*
X9716728D01*
X10904426Y7095088D02*
Y7196688D01*
X11006026D01*
Y7095088D01*
X10904426D01*
X10689899Y6848916D02*
Y6950516D01*
X10791499D01*
Y6848916D01*
X10689899D01*
X10050842Y8265821D02*
Y8367421D01*
X10152442D01*
Y8265821D01*
X10050842D01*
X9990729Y8592578D02*
Y8694178D01*
X10092329D01*
Y8592578D01*
X9990729D01*
X12338994Y6686857D02*
Y6788457D01*
X12440594D01*
Y6686857D01*
X12338994D01*
X12086957Y6537575D02*
Y6639175D01*
X12188557D01*
Y6537575D01*
X12086957D01*
X11598000Y9872301D02*
Y9973901D01*
X11699600D01*
Y9872301D01*
X11598000D01*
X12163519Y9391471D02*
Y9493071D01*
X12265119D01*
Y9391471D01*
X12163519D01*
X10589260Y8912860D02*
Y9014460D01*
X10690860D01*
Y8912860D01*
X10589260D01*
X9979660Y8773160D02*
Y8874760D01*
X10081260D01*
Y8773160D01*
X9979660D01*
X8799200Y9839200D02*
Y9940800D01*
X8900800D01*
Y9839200D01*
X8799200D01*
X9050000Y9299200D02*
X8999200Y9400800D01*
X9100800D01*
X9050000Y9299200D01*
X9160000D02*
X9109200Y9400800D01*
X9210800D01*
X9160000Y9299200D01*
Y9189200D02*
X9109200Y9290800D01*
X9210800D01*
X9160000Y9189200D01*
X9050000D02*
X8999200Y9290800D01*
X9100800D01*
X9050000Y9189200D01*
X10603642Y7509205D02*
X10552842Y7610805D01*
X10654442D01*
X10603642Y7509205D01*
X10493642D02*
X10442842Y7610805D01*
X10544442D01*
X10493642Y7509205D01*
X10383642D02*
X10332842Y7610805D01*
X10434442D01*
X10383642Y7509205D01*
X10273642D02*
X10222842Y7610805D01*
X10324442D01*
X10273642Y7509205D01*
X10163642D02*
X10112842Y7610805D01*
X10214442D01*
X10163642Y7509205D01*
X10603642Y7619205D02*
X10552842Y7720805D01*
X10654442D01*
X10603642Y7619205D01*
X10493642D02*
X10442842Y7720805D01*
X10544442D01*
X10493642Y7619205D01*
X10383642D02*
X10332842Y7720805D01*
X10434442D01*
X10383642Y7619205D01*
X10273642D02*
X10222842Y7720805D01*
X10324442D01*
X10273642Y7619205D01*
X10163642D02*
X10112842Y7720805D01*
X10214442D01*
X10163642Y7619205D01*
X10603642Y7729205D02*
X10552842Y7830805D01*
X10654442D01*
X10603642Y7729205D01*
X10493642D02*
X10442842Y7830805D01*
X10544442D01*
X10493642Y7729205D01*
X10383642D02*
X10332842Y7830805D01*
X10434442D01*
X10383642Y7729205D01*
X10273642D02*
X10222842Y7830805D01*
X10324442D01*
X10273642Y7729205D01*
X10163642D02*
X10112842Y7830805D01*
X10214442D01*
X10163642Y7729205D01*
X10603642Y7839205D02*
X10552842Y7940805D01*
X10654442D01*
X10603642Y7839205D01*
X10493642D02*
X10442842Y7940805D01*
X10544442D01*
X10493642Y7839205D01*
X10383642D02*
X10332842Y7940805D01*
X10434442D01*
X10383642Y7839205D01*
X10273642D02*
X10222842Y7940805D01*
X10324442D01*
X10273642Y7839205D01*
X10163642D02*
X10112842Y7940805D01*
X10214442D01*
X10163642Y7839205D01*
X10603642Y7949205D02*
X10552842Y8050805D01*
X10654442D01*
X10603642Y7949205D01*
X10493642D02*
X10442842Y8050805D01*
X10544442D01*
X10493642Y7949205D01*
X10383642D02*
X10332842Y8050805D01*
X10434442D01*
X10383642Y7949205D01*
X10273642D02*
X10222842Y8050805D01*
X10324442D01*
X10273642Y7949205D01*
X10163642D02*
X10112842Y8050805D01*
X10214442D01*
X10163642Y7949205D01*
D100*
X11934800Y9133500D02*
G03*
X11934800Y9133500I-50800J0D01*
G01*
X11426800Y9031900D02*
G03*
X11426800Y9031900I-50800J0D01*
G01*
Y9235100D02*
G03*
X11426800Y9235100I-50800J0D01*
G01*
%TF.MD5,39fa3b15a2c50c39510da51d26427e79*%
M02*
