%TF.GenerationSoftware,Altium Limited,Altium Designer,23.5.1 (21)*%
G04 Layer_Color=8421504*
%FSLAX45Y45*%
%MOMM*%
%TF.SameCoordinates,5289BC4C-B9E5-40BB-BF73-25A575C0F3CC*%
%TF.FilePolarity,Positive*%
%TF.FileFunction,Paste,Top*%
%TF.Part,Single*%
G01*
G75*
%TA.AperFunction,SMDPad,CuDef*%
%ADD10R,1.25000X1.25000*%
%ADD11R,3.18213X1.25000*%
%ADD12R,1.00000X2.80000*%
%ADD13R,0.60000X1.70000*%
%ADD14R,2.60000X0.75000*%
%ADD15R,0.86213X0.66370*%
%TA.AperFunction,ConnectorPad*%
%ADD16R,1.38000X0.45000*%
%ADD17R,1.55000X1.42500*%
%ADD18R,1.90000X1.00000*%
%ADD19R,1.90000X1.80000*%
%ADD20R,1.30000X1.65000*%
%TA.AperFunction,SMDPad,CuDef*%
%ADD22R,0.75000X2.60000*%
%ADD23R,0.45000X0.45000*%
%ADD24R,0.52000X0.52000*%
%ADD25R,1.40000X1.20000*%
%ADD26R,0.93108X0.81213*%
%ADD27R,0.90000X1.35000*%
%ADD28R,2.70000X2.60000*%
%ADD29R,0.80000X0.35000*%
%ADD30R,0.35000X0.85000*%
%ADD31R,1.45620X1.30464*%
%ADD32R,5.60000X5.60000*%
%ADD33O,0.25000X0.80000*%
%ADD34O,0.80000X0.25000*%
%ADD35R,0.52000X0.52000*%
%ADD36R,1.75395X1.80620*%
%ADD37R,0.84000X0.93000*%
%ADD38R,1.80620X1.75395*%
%ADD39R,0.80000X0.80000*%
%ADD40R,1.35000X1.55000*%
%ADD41R,0.66370X0.86213*%
%ADD42R,0.60000X0.80000*%
%ADD43R,1.30464X1.45620*%
%ADD44R,0.95000X1.05000*%
%ADD45R,1.15000X1.35000*%
D10*
X11339000Y6249500D02*
D03*
X11110000D02*
D03*
X10881000D02*
D03*
D11*
X11110000Y5590500D02*
D03*
D12*
X9168118Y5604252D02*
D03*
X9913118D02*
D03*
D13*
X9728118Y5269252D02*
D03*
X9603118D02*
D03*
X9478118D02*
D03*
X9353118D02*
D03*
D14*
X11890000Y5897500D02*
D03*
Y6202500D02*
D03*
D15*
X10180000Y8520000D02*
D03*
Y8645877D02*
D03*
D16*
X12720000Y8035000D02*
D03*
Y7970000D02*
D03*
Y7905000D02*
D03*
Y7840000D02*
D03*
Y7775000D02*
D03*
D17*
X12728500Y8153750D02*
D03*
Y7656250D02*
D03*
D18*
X12986000Y8060000D02*
D03*
D19*
Y7790000D02*
D03*
D20*
Y8242500D02*
D03*
Y7567500D02*
D03*
D22*
X11725969Y6479999D02*
D03*
X12030969D02*
D03*
D23*
X10231355Y8829606D02*
D03*
X10311356D02*
D03*
X10527125Y8831057D02*
D03*
X10447125D02*
D03*
D24*
X9850000Y7630000D02*
D03*
Y7550000D02*
D03*
X9818019Y7975680D02*
D03*
Y8055680D02*
D03*
X10660000Y7230000D02*
D03*
X10970000Y8120000D02*
D03*
Y8040000D02*
D03*
D25*
X8990000Y7000000D02*
D03*
Y6830000D02*
D03*
X9210000D02*
D03*
Y7000000D02*
D03*
D26*
X9180000Y7250000D02*
D03*
X9288105D02*
D03*
X9020000D02*
D03*
X8911895D02*
D03*
D27*
X9165000Y7450000D02*
D03*
X9320000D02*
D03*
D28*
X9105000Y9295000D02*
D03*
D29*
X9305000Y9170000D02*
D03*
Y9220000D02*
D03*
Y9270000D02*
D03*
Y9320000D02*
D03*
Y9370000D02*
D03*
Y9420000D02*
D03*
X8905000Y9170000D02*
D03*
Y9220000D02*
D03*
Y9270000D02*
D03*
Y9320000D02*
D03*
Y9370000D02*
D03*
Y9420000D02*
D03*
D30*
X9230000Y9492500D02*
D03*
X9180000D02*
D03*
X9130000D02*
D03*
X9080000D02*
D03*
X9030000D02*
D03*
X8980000D02*
D03*
X9230000Y9097500D02*
D03*
X9180000D02*
D03*
X9130000D02*
D03*
X9080000D02*
D03*
X9030000D02*
D03*
X8980000D02*
D03*
D31*
X9580000Y9370000D02*
D03*
Y9208844D02*
D03*
D32*
X10383642Y7780005D02*
D03*
D33*
X10108642Y8120005D02*
D03*
X10158642D02*
D03*
X10208642D02*
D03*
X10258642D02*
D03*
X10308642D02*
D03*
X10358642D02*
D03*
X10408642D02*
D03*
X10458642D02*
D03*
X10508642D02*
D03*
X10558642D02*
D03*
X10608642D02*
D03*
X10658642D02*
D03*
Y7440005D02*
D03*
X10608642D02*
D03*
X10558642D02*
D03*
X10508642D02*
D03*
X10458642D02*
D03*
X10408642D02*
D03*
X10358642D02*
D03*
X10308642D02*
D03*
X10258642D02*
D03*
X10208642D02*
D03*
X10158642D02*
D03*
X10108642D02*
D03*
D34*
X10723642Y8055005D02*
D03*
Y8005005D02*
D03*
Y7955005D02*
D03*
Y7905005D02*
D03*
Y7855005D02*
D03*
Y7805005D02*
D03*
Y7755005D02*
D03*
Y7705005D02*
D03*
Y7655005D02*
D03*
Y7605005D02*
D03*
Y7555005D02*
D03*
Y7505005D02*
D03*
X10043642D02*
D03*
Y7555005D02*
D03*
Y7605005D02*
D03*
Y7655005D02*
D03*
Y7705005D02*
D03*
Y7755005D02*
D03*
Y7805005D02*
D03*
Y7855005D02*
D03*
Y7905005D02*
D03*
Y7955005D02*
D03*
Y8005005D02*
D03*
Y8055005D02*
D03*
D35*
X10004935Y8353065D02*
D03*
X9924935D02*
D03*
X10580000Y7230000D02*
D03*
D36*
X12008469Y6840000D02*
D03*
X11773244D02*
D03*
X10342387Y6900000D02*
D03*
X10577612D02*
D03*
D37*
X12143877Y7108433D02*
D03*
X11984877D02*
D03*
D38*
X12390000Y6922387D02*
D03*
Y7157612D02*
D03*
X9536632Y8088571D02*
D03*
Y7853346D02*
D03*
D39*
X12318469Y6170000D02*
D03*
X12468469D02*
D03*
D40*
X12488469Y6500000D02*
D03*
X12293469D02*
D03*
X11150000Y7300000D02*
D03*
X10955000D02*
D03*
D41*
X11823700Y9728200D02*
D03*
X11949577D02*
D03*
D42*
X10955907Y7557661D02*
D03*
X11100907D02*
D03*
D43*
X11610734Y9718200D02*
D03*
X11449577D02*
D03*
X9170000Y8850000D02*
D03*
X9331156D02*
D03*
D44*
X8940800Y8851900D02*
D03*
X8795800D02*
D03*
D45*
X9375000Y9700000D02*
D03*
X9230000D02*
D03*
%TF.MD5,3826d051519a0a860f921505dd3b8d2b*%
M02*
