%TF.GenerationSoftware,Altium Limited,Altium Designer,23.5.1 (21)*%
G04 Layer_Color=65535*
%FSLAX45Y45*%
%MOMM*%
%TF.SameCoordinates,D1A1A69A-B0F0-4312-96CC-35C0D177272F*%
%TF.FilePolarity,Positive*%
%TF.FileFunction,Legend,Top*%
%TF.Part,Single*%
G01*
G75*
%TA.AperFunction,NonConductor*%
%ADD60C,0.25000*%
%ADD61C,0.30000*%
%ADD62C,0.20000*%
%ADD63C,0.12700*%
%ADD64C,0.40000*%
%ADD65C,0.35000*%
D60*
X11472500Y6249500D02*
G03*
X11472500Y6249500I-12500J0D01*
G01*
X9368118Y5121752D02*
G03*
X9368118Y5121752I-12500J0D01*
G01*
X12578500Y7772500D02*
G03*
X12578500Y7772500I-12500J0D01*
G01*
X8850000Y6825000D02*
G03*
X8850000Y6825000I-12500J0D01*
G01*
X8822500Y9420000D02*
G03*
X8822500Y9420000I-12500J0D01*
G01*
X9961142Y8135005D02*
G03*
X9961142Y8135005I-12500J0D01*
G01*
X12585969Y6170000D02*
G03*
X12585969Y6170000I-12500J0D01*
G01*
D61*
X11770000Y9508500D02*
G03*
X11770000Y9508500I-15000J0D01*
G01*
D62*
X11435250Y5744750D02*
Y6095250D01*
X10784750Y5744750D02*
X11435250D01*
X10784750D02*
Y6095250D01*
X11435250D01*
X9953118Y5289252D02*
Y5426752D01*
X9255618Y5714252D02*
X9825618D01*
X9128118Y5289252D02*
Y5426752D01*
Y5289252D02*
X9285618D01*
X9795618D02*
X9953118D01*
X10267500Y8486815D02*
Y8679062D01*
X10092500Y8486815D02*
Y8679062D01*
X12616000Y7500500D02*
X12883501D01*
X12616000Y8309500D02*
X12883501D01*
X12616000Y8262500D02*
Y8309500D01*
Y7500500D02*
Y7547500D01*
X11803469Y6599999D02*
X11953469D01*
X11803469Y6359999D02*
X11953469D01*
X9913500Y7540000D02*
Y7640000D01*
X9786500Y7540000D02*
Y7640000D01*
X8875000Y6725000D02*
Y7105000D01*
Y6725000D02*
X9325000D01*
Y7105000D01*
X8875000D02*
X9325000D01*
X9133446Y7165000D02*
X9334659D01*
X9133446Y7335000D02*
X9334659D01*
X8865341D02*
X9066554D01*
X8865341Y7165000D02*
X9066554D01*
X9287500Y9510000D02*
X9320000D01*
Y9477500D02*
Y9510000D01*
Y9080000D02*
Y9112500D01*
X9287500Y9080000D02*
X9320000D01*
X8890000D02*
X8922500D01*
X8890000D02*
Y9112500D01*
Y9510000D02*
X8922500D01*
X8890000Y9477500D02*
Y9510000D01*
X9467190Y9143612D02*
Y9435232D01*
X9692810Y9143612D02*
Y9435232D01*
X10013642Y7410005D02*
X10056142D01*
X10013642D02*
Y7452505D01*
X10711142Y7410005D02*
X10753642D01*
Y7452505D01*
Y8107505D02*
Y8150005D01*
X10711142D02*
X10753642D01*
X10013642D02*
X10056142D01*
X10013642Y8107505D02*
Y8150005D01*
X9754519Y7965680D02*
Y8065680D01*
X9881519Y7965680D02*
Y8065680D01*
X9914935Y8289565D02*
X10014935D01*
X9914935Y8416565D02*
X10014935D01*
X11685547Y6970309D02*
X12096167D01*
X11685547Y6709690D02*
X12096167D01*
X10570000Y7293500D02*
X10670000D01*
X10570000Y7166500D02*
X10670000D01*
X12520310Y6834690D02*
Y7245310D01*
X12259690Y6834690D02*
Y7245310D01*
X12010000Y5975000D02*
Y6125000D01*
X11770000Y5975000D02*
Y6125000D01*
X12308469Y6255000D02*
X12478469D01*
X12308469Y6085000D02*
X12478469D01*
X11790515Y9640700D02*
X11982762D01*
X11790515Y9815700D02*
X11982762D01*
X9406322Y7765648D02*
Y8176268D01*
X9666942Y7765648D02*
Y8176268D01*
X11033500Y8030000D02*
Y8130000D01*
X10906500Y8030000D02*
Y8130000D01*
X10254690Y6769690D02*
X10665310D01*
X10254690Y7030310D02*
X10665310D01*
X11384346Y9831010D02*
X11675965D01*
X11384346Y9605390D02*
X11675965D01*
X9104768Y8737190D02*
X9396388D01*
X9104768Y8962810D02*
X9396388D01*
X8869994Y6659526D02*
X8923310Y6579552D01*
Y6659526D02*
X8869994Y6579552D01*
X8949968Y6659526D02*
X9003284D01*
X8976626D01*
Y6579552D01*
X9029942D02*
Y6632868D01*
X9056600Y6659526D01*
X9083258Y6632868D01*
Y6579552D01*
Y6619539D01*
X9029942D01*
X9109917Y6659526D02*
Y6579552D01*
X9163233D01*
X8873080Y9650776D02*
X8899738D01*
X8886409D01*
Y9570802D01*
X8873080D01*
X8899738D01*
X8939725D02*
Y9650776D01*
X8966383Y9624118D01*
X8993041Y9650776D01*
Y9570802D01*
X9019699Y9650776D02*
Y9584131D01*
X9033028Y9570802D01*
X9059686D01*
X9073015Y9584131D01*
Y9650776D01*
D63*
X12125300Y8828700D02*
Y9438300D01*
X11134700D02*
X12125300D01*
X11134700Y8828700D02*
Y9438300D01*
Y8828700D02*
X12125300D01*
D64*
X11180907Y7517661D02*
Y7597661D01*
D65*
X9205662Y5971488D02*
X9180270Y5996880D01*
X9129487D01*
X9104095Y5971488D01*
Y5869921D01*
X9129487Y5844529D01*
X9180270D01*
X9205662Y5869921D01*
Y5920704D01*
X9154879D01*
X9256446Y5844529D02*
Y5996880D01*
X9332621D01*
X9358013Y5971488D01*
Y5920704D01*
X9332621Y5895312D01*
X9256446D01*
X9408797Y5996880D02*
X9459580D01*
X9434188D01*
Y5844529D01*
X9408797D01*
X9459580D01*
X9611931Y5996880D02*
X9561147D01*
X9535755Y5971488D01*
Y5869921D01*
X9561147Y5844529D01*
X9611931D01*
X9637323Y5869921D01*
Y5971488D01*
X9611931Y5996880D01*
X11261567Y8736959D02*
X11236175Y8762351D01*
X11185392D01*
X11160000Y8736959D01*
Y8711567D01*
X11185392Y8686175D01*
X11236175D01*
X11261567Y8660783D01*
Y8635392D01*
X11236175Y8610000D01*
X11185392D01*
X11160000Y8635392D01*
X11312351Y8762351D02*
Y8610000D01*
X11363134Y8660783D01*
X11413918Y8610000D01*
Y8762351D01*
X11464701D02*
Y8610000D01*
X11540877D01*
X11566268Y8635392D01*
Y8736959D01*
X11540877Y8762351D01*
X11464701D01*
X12594262Y7423761D02*
Y7296802D01*
X12619654Y7271410D01*
X12670438D01*
X12695830Y7296802D01*
Y7423761D01*
X12848180Y7398369D02*
X12822787Y7423761D01*
X12772005D01*
X12746613Y7398369D01*
Y7372978D01*
X12772005Y7347586D01*
X12822787D01*
X12848180Y7322194D01*
Y7296802D01*
X12822787Y7271410D01*
X12772005D01*
X12746613Y7296802D01*
X12898964Y7423761D02*
Y7271410D01*
X12975139D01*
X13000531Y7296802D01*
Y7322194D01*
X12975139Y7347586D01*
X12898964D01*
X12975139D01*
X13000531Y7372978D01*
Y7398369D01*
X12975139Y7423761D01*
X12898964D01*
X10011837Y7335485D02*
X10062621D01*
X10037229D01*
Y7183134D01*
X10011837D01*
X10062621D01*
X10138796D02*
Y7335485D01*
X10189580Y7284701D01*
X10240363Y7335485D01*
Y7183134D01*
X10291147Y7335485D02*
Y7208526D01*
X10316539Y7183134D01*
X10367322D01*
X10392714Y7208526D01*
Y7335485D01*
%TF.MD5,dec675048647c1be2c2c732a7a96629d*%
M02*
